# Blender 5.2.0 LTS
# www.blender.org
mtllib 1.mtl
o Plain_Wall_Long
v -6.750000 0.000000 -8.975000
v -0.750000 0.000000 -8.975000
v -0.750000 4.000000 -9.000000
v -6.750000 1.604351 -8.975000
v -0.750000 0.204351 -8.975000
v -0.750000 0.195649 -9.000000
v -0.750000 0.404351 -8.975000
v -0.750000 0.395649 -9.000000
v -0.750000 0.604351 -8.975000
v -0.750000 0.595649 -9.000000
v -0.750000 0.804351 -8.975000
v -0.750000 0.795649 -9.000000
v -0.750000 1.004351 -8.975000
v -0.750000 0.995649 -9.000000
v -0.750000 1.204351 -8.975000
v -0.750000 1.195649 -9.000000
v -0.750000 1.404351 -8.975000
v -0.750000 1.395649 -9.000000
v -0.750000 1.604351 -8.975000
v -0.750000 1.595649 -9.000000
v -0.750000 1.804351 -8.975000
v -0.750000 1.795649 -9.000000
v -0.750000 2.004351 -8.975000
v -0.750000 1.995649 -9.000000
v -0.750000 2.204351 -8.975000
v -0.750000 2.195649 -9.000000
v -0.750000 2.404351 -8.975000
v -0.750000 2.395649 -9.000000
v -0.750000 2.604352 -8.975000
v -0.750000 2.595649 -9.000000
v -0.750000 2.804352 -8.975000
v -0.750000 2.795649 -9.000000
v -0.750000 3.004352 -8.975000
v -0.750000 2.995649 -9.000000
v -0.750000 3.204351 -8.975000
v -0.750000 3.195649 -9.000000
v -0.750000 3.404351 -8.975000
v -0.750000 3.395649 -9.000000
v -0.750000 3.604351 -8.975000
v -0.750000 3.595649 -9.000000
v -0.750000 3.804351 -8.975000
v -0.750000 3.795649 -9.000000
v -6.083333 0.000000 -8.975000
v -5.347145 0.000000 -8.975000
v -4.477112 0.003011 -8.972178
v -4.083333 0.000000 -8.975000
v -3.416666 0.000000 -8.975000
v -2.753141 -0.003955 -8.988649
v -1.411980 0.004679 -8.966694
v -1.416666 4.000000 -9.000000
v -2.744640 4.000000 -9.000000
v -3.416667 4.000000 -9.000000
v -4.083334 4.000000 -9.000000
v -4.505606 4.000000 -9.000000
v -5.347145 4.000000 -9.000000
v -6.083333 4.000000 -9.000000
v -1.420811 0.198292 -8.986388
v -2.744640 0.204351 -8.975000
v -3.416667 0.204351 -8.975000
v -4.083334 0.204351 -8.975000
v -4.478401 0.204351 -8.975000
v -5.347145 0.204351 -8.975000
v -6.083333 0.204351 -8.975000
v -6.081988 0.188379 -9.021975
v -5.345800 0.188379 -9.021975
v -4.477112 0.198659 -8.997178
v -4.083333 0.195649 -9.000000
v -3.416666 0.195649 -9.000000
v -2.753141 0.191694 -9.013649
v -1.411980 0.200328 -8.991693
v -1.416666 0.404351 -8.975000
v -2.744640 0.404351 -8.975000
v -3.418406 0.404351 -8.968772
v -4.092721 0.404351 -8.988709
v -4.478401 0.404351 -8.975000
v -5.342295 0.404351 -8.988327
v -6.083333 0.404351 -8.975000
v -6.083333 0.395649 -9.000000
v -5.347145 0.395649 -9.000000
v -4.478401 0.395649 -9.000000
v -4.083333 0.395649 -9.000000
v -3.417452 0.395649 -8.997188
v -2.745426 0.395649 -8.997188
v -1.420812 0.389590 -9.011388
v -1.416666 0.604351 -8.975000
v -2.744656 0.604347 -8.975022
v -3.416667 0.604351 -8.975000
v -4.077705 0.603751 -8.986409
v -4.474713 0.603537 -8.982796
v -5.347145 0.604351 -8.975000
v -6.083333 0.604351 -8.975000
v -6.083333 0.595649 -9.000000
v -5.342294 0.595649 -9.013328
v -4.478401 0.595649 -9.000000
v -4.092720 0.595649 -9.013710
v -3.416666 0.595649 -9.000000
v -2.744640 0.595649 -9.000000
v -1.416667 0.595649 -9.000000
v -1.416666 0.804351 -8.975000
v -2.737637 0.804351 -8.965870
v -3.417649 0.807204 -8.964749
v -4.083334 0.804351 -8.975000
v -4.478401 0.804351 -8.975000
v -5.350396 0.804351 -8.966069
v -6.069570 0.797663 -8.956986
v -6.083333 0.795649 -9.000000
v -5.347145 0.795649 -9.000000
v -4.474713 0.794835 -9.007795
v -4.077705 0.795048 -9.011409
v -3.416666 0.795649 -9.000000
v -2.743093 0.795649 -9.005541
v -1.416667 0.795649 -9.000000
v -1.416666 1.004351 -8.975000
v -2.744640 1.004351 -8.975000
v -3.416667 1.004351 -8.975000
v -4.083334 1.004351 -8.975000
v -4.478401 1.004351 -8.975000
v -5.347145 1.004351 -8.975000
v -6.083333 1.004351 -8.975000
v -6.069570 0.988960 -8.981987
v -5.350396 0.995649 -8.991069
v -4.478401 0.995649 -9.000000
v -4.083333 0.995649 -9.000000
v -3.416666 0.995649 -9.000000
v -2.739184 0.995649 -8.985330
v -1.416667 0.995649 -9.000000
v -1.416666 1.204351 -8.975000
v -2.749964 1.193910 -8.989733
v -3.419189 1.201375 -8.962200
v -4.083334 1.204351 -8.975000
v -4.478401 1.204351 -8.975000
v -5.342244 1.204351 -8.988466
v -6.083333 1.204351 -8.975000
v -6.083333 1.195649 -9.000000
v -5.347145 1.195649 -9.000000
v -4.478401 1.195649 -9.000000
v -4.083333 1.195649 -9.000000
v -3.416666 1.195649 -9.000000
v -2.744640 1.195649 -9.000000
v -1.416667 1.195649 -9.000000
v -1.423094 1.410421 -8.992040
v -2.741374 1.406968 -8.980523
v -3.416667 1.404351 -8.975000
v -4.083334 1.404351 -8.975000
v -4.478401 1.404351 -8.975000
v -5.347145 1.404351 -8.975000
v -6.083333 1.404351 -8.975000
v -6.083333 1.395649 -9.000000
v -5.342244 1.395649 -9.013467
v -4.478401 1.395649 -9.000000
v -4.083333 1.395649 -9.000000
v -3.414527 1.395649 -8.996876
v -2.746698 1.387823 -9.020255
v -1.416667 1.395649 -9.000000
v -1.423017 1.604351 -8.992075
v -2.744640 1.604351 -8.975000
v -3.416667 1.604351 -8.975000
v -4.083334 1.604351 -8.975000
v -4.478401 1.604351 -8.975000
v -5.348708 1.604351 -8.977283
v -6.089320 1.599706 -8.985193
v -6.083333 1.595649 -9.000000
v -5.347145 1.595649 -9.000000
v -4.478401 1.595649 -9.000000
v -4.083333 1.595649 -9.000000
v -3.416666 1.595649 -9.000000
v -2.744640 1.595649 -9.000000
v -1.423095 1.601719 -9.017040
v -1.416666 1.804351 -8.975000
v -3.417718 1.807404 -8.964031
v -4.083334 1.804351 -8.975000
v -4.478401 1.804351 -8.975000
v -5.342079 1.797219 -8.961663
v -6.083333 1.804351 -8.975000
v -6.089320 1.791003 -9.010193
v -5.348708 1.795649 -9.002282
v -4.478401 1.795649 -9.000000
v -4.083333 1.795649 -9.000000
v -3.416666 1.795649 -9.000000
v -2.744640 1.795649 -9.000000
v -1.423018 1.795649 -9.017075
v -1.414628 2.010427 -8.969275
v -2.744640 2.004351 -8.975000
v -3.416667 2.004351 -8.975000
v -4.083334 2.004351 -8.975000
v -5.347688 2.004478 -8.975708
v -6.085494 2.004351 -8.980808
v -6.083333 1.995649 -9.000000
v -5.342079 1.988517 -8.986664
v -4.478401 1.995649 -9.000000
v -4.083333 1.995649 -9.000000
v -3.416666 1.995649 -9.000000
v -1.416667 1.995649 -9.000000
v -1.416666 2.204351 -8.975000
v -2.744640 2.204351 -8.975000
v -3.414813 2.197164 -8.982006
v -4.083334 2.204351 -8.975000
v -5.347145 2.204351 -8.975000
v -6.083333 2.204351 -8.975000
v -6.085494 2.195648 -9.005809
v -5.347756 2.195905 -8.999994
v -4.083333 2.195649 -9.000000
v -3.416666 2.195649 -9.000000
v -2.744640 2.195649 -9.000000
v -1.414629 2.201725 -8.994275
v -1.416666 2.404351 -8.975000
v -2.741060 2.409584 -8.965165
v -3.416667 2.404351 -8.975000
v -4.083334 2.404351 -8.975000
v -4.505606 2.404351 -8.975000
v -5.347145 2.404351 -8.975000
v -6.083333 2.404351 -8.975000
v -6.083333 2.395648 -9.000000
v -5.347145 2.395648 -9.000000
v -4.083333 2.395648 -9.000000
v -3.414812 2.388461 -9.007006
v -2.744640 2.395649 -9.000000
v -1.416667 2.395649 -9.000000
v -1.416666 2.604352 -8.975000
v -2.744640 2.604352 -8.975000
v -3.419152 2.604352 -8.968171
v -4.083334 2.604351 -8.975000
v -4.508934 2.600042 -8.967002
v -5.347145 2.604351 -8.975000
v -6.083333 2.604351 -8.975000
v -6.083333 2.595649 -9.000000
v -5.347145 2.595649 -9.000000
v -4.505606 2.595649 -9.000000
v -4.083333 2.595649 -9.000000
v -3.416666 2.595649 -9.000000
v -2.741060 2.600881 -8.990166
v -1.416667 2.595649 -9.000000
v -1.410384 2.810435 -8.957864
v -2.744640 2.804352 -8.975000
v -3.416667 2.804351 -8.975000
v -4.083334 2.804351 -8.975000
v -4.505606 2.804351 -8.975000
v -5.344699 2.807927 -8.968279
v -6.083333 2.804351 -8.975000
v -6.083333 2.795649 -9.000000
v -5.347145 2.795649 -9.000000
v -4.508934 2.791339 -8.992002
v -4.083333 2.795649 -9.000000
v -3.419152 2.795649 -8.993172
v -2.744640 2.795649 -9.000000
v -1.416667 2.795649 -9.000000
v -1.418709 2.998266 -8.980734
v -2.753839 3.009589 -8.999524
v -3.416667 3.004352 -8.975000
v -4.083334 3.004351 -8.975000
v -4.505606 3.004351 -8.975000
v -5.346730 3.009210 -8.974849
v -6.083333 3.004351 -8.975000
v -6.083333 2.995649 -9.000000
v -5.344699 2.999224 -8.993279
v -4.505606 2.995649 -9.000000
v -4.083333 2.995649 -9.000000
v -3.416666 2.995649 -9.000000
v -2.744640 2.995649 -9.000000
v -1.410385 3.001733 -8.982863
v -1.416666 3.204351 -8.975000
v -2.744640 3.204351 -8.975000
v -3.416667 3.204351 -8.975000
v -4.083334 3.204351 -8.975000
v -4.505358 3.204351 -8.975739
v -6.088754 3.204351 -8.989574
v -6.083333 3.195649 -9.000000
v -5.347145 3.195649 -9.000000
v -4.505606 3.195649 -9.000000
v -4.083333 3.195649 -9.000000
v -3.416666 3.195649 -9.000000
v -2.753839 3.200886 -9.024524
v -1.418709 3.189564 -9.005733
v -1.416666 3.404351 -8.975000
v -2.744640 3.404351 -8.975000
v -3.420023 3.404351 -8.984023
v -4.083334 3.404351 -8.975000
v -4.505606 3.404351 -8.975000
v -5.347145 3.404351 -8.975000
v -6.083333 3.404351 -8.975000
v -6.088754 3.395649 -9.014575
v -4.505358 3.395649 -9.000000
v -4.083333 3.395649 -9.000000
v -3.416666 3.395649 -9.000000
v -2.744640 3.395649 -9.000000
v -1.416667 3.395649 -9.000000
v -1.416666 3.604351 -8.975000
v -3.416667 3.604351 -8.975000
v -4.083334 3.604351 -8.975000
v -4.505606 3.604351 -8.975000
v -5.347145 3.604351 -8.975000
v -6.083333 3.604351 -8.975000
v -6.083333 3.595649 -9.000000
v -5.347145 3.595649 -9.000000
v -4.505606 3.595649 -9.000000
v -4.083333 3.595649 -9.000000
v -3.420022 3.595649 -9.009023
v -2.744640 3.595649 -9.000000
v -1.416667 3.595649 -9.000000
v -1.416666 3.804351 -8.975000
v -2.744640 3.804351 -8.975000
v -3.416667 3.804351 -8.975000
v -4.083334 3.804351 -8.975000
v -4.505606 3.804351 -8.975000
v -5.347145 3.804351 -8.975000
v -6.083333 3.804351 -8.975000
v -6.083333 3.795649 -9.000000
v -5.347145 3.795649 -9.000000
v -4.505606 3.795649 -9.000000
v -4.083333 3.795649 -9.000000
v -3.416666 3.795649 -9.000000
v -1.416667 3.795649 -9.000000
v -4.474508 2.013803 -8.970561
v -4.478401 2.002853 -8.987864
v -4.486641 2.199113 -8.999928
v -4.473633 2.195648 -9.000000
v -4.478659 2.197275 -8.995635
v -4.485727 2.006070 -8.984557
v -4.478550 2.197236 -9.003998
v -4.483170 2.195718 -9.008360
v -4.473633 2.195718 -9.008360
v -1.877718 0.000000 -8.975000
v -1.885643 0.000000 -8.975000
v -1.885643 4.000000 -9.000000
v -1.877718 4.000000 -9.000000
v -1.877718 0.204351 -8.975000
v -1.885643 0.204351 -8.975000
v -1.885643 0.195649 -9.000000
v -1.877718 0.195649 -9.000000
v -1.877718 0.404351 -8.975000
v -1.885643 0.404351 -8.975000
v -1.885643 0.395649 -9.000000
v -1.877718 0.395649 -9.000000
v -1.876892 0.610815 -8.967426
v -1.888083 0.603735 -8.978660
v -1.885643 0.595649 -9.000000
v -1.877718 0.595649 -9.000000
v -1.877718 0.804351 -8.975000
v -1.885643 0.804351 -8.975000
v -1.885643 0.795649 -9.000000
v -1.876591 0.799728 -8.997355
v -1.877718 1.004351 -8.975000
v -1.885643 1.004351 -8.975000
v -1.885643 0.995649 -9.000000
v -1.877718 0.995649 -9.000000
v -1.877718 1.204351 -8.975000
v -1.885643 1.204351 -8.975000
v -1.885643 1.195649 -9.000000
v -1.877718 1.195649 -9.000000
v -1.877718 1.404351 -8.975000
v -1.885643 1.404351 -8.975000
v -1.885643 1.395649 -9.000000
v -1.877718 1.395649 -9.000000
v -1.877718 1.604351 -8.975000
v -1.885643 1.604351 -8.975000
v -1.885643 1.595649 -9.000000
v -1.877718 1.595649 -9.000000
v -1.877718 1.804351 -8.975000
v -1.885643 1.804351 -8.975000
v -1.885643 1.795649 -9.000000
v -1.877718 1.795649 -9.000000
v -1.877718 2.004351 -8.975000
v -1.885643 2.004351 -8.975000
v -1.885643 1.995649 -9.000000
v -1.877718 1.995649 -9.000000
v -1.877718 2.204351 -8.975000
v -1.885643 2.204351 -8.975000
v -1.885643 2.195649 -9.000000
v -1.877718 2.195649 -9.000000
v -1.877718 2.404351 -8.975000
v -1.885643 2.404351 -8.975000
v -1.885643 2.395649 -9.000000
v -1.877718 2.395649 -9.000000
v -1.877718 2.604352 -8.975000
v -1.885643 2.604352 -8.975000
v -1.885643 2.595649 -9.000000
v -1.877718 2.595649 -9.000000
v -1.877718 2.804352 -8.975000
v -1.885643 2.804352 -8.975000
v -1.885643 2.795649 -9.000000
v -1.877718 2.795649 -9.000000
v -1.877718 3.004352 -8.975000
v -1.885643 3.004352 -8.975000
v -1.885643 2.995649 -9.000000
v -1.877718 2.995649 -9.000000
v -1.877718 3.204351 -8.975000
v -1.885643 3.204351 -8.975000
v -1.885643 3.195649 -9.000000
v -1.877718 3.195649 -9.000000
v -1.877718 3.404351 -8.975000
v -1.885643 3.404351 -8.975000
v -1.885643 3.395649 -9.000000
v -1.877718 3.395649 -9.000000
v -1.877718 3.604351 -8.975000
v -1.885643 3.604351 -8.975000
v -1.885643 3.595649 -9.000000
v -1.877718 3.595649 -9.000000
v -1.885643 3.804351 -8.975000
v -1.877718 3.804351 -8.975000
v -1.885643 3.795649 -9.000000
v -1.877718 3.795649 -9.000000
v -1.885643 0.794031 -9.012382
v -1.877718 0.794031 -9.012382
v -1.877718 0.602733 -8.987382
v -1.885643 0.602733 -8.987382
v -5.339233 3.204351 -8.998630
v -5.347544 3.208927 -8.971980
v -5.347127 3.202888 -8.979202
v -5.351577 3.395648 -9.000000
v -5.339233 3.395648 -9.000000
v -5.347127 3.397111 -8.995797
v -4.663502 0.000000 -8.975000
v -4.663502 0.204351 -8.975000
v -4.663502 0.195649 -9.000000
v -4.663502 0.404351 -8.975000
v -4.663502 0.395649 -9.000000
v -4.663502 0.604351 -8.975000
v -4.663502 0.595649 -9.000000
v -4.663502 0.795649 -9.000000
v -4.663502 1.404351 -8.975000
v -4.663502 1.604351 -8.975000
v -4.663502 1.595649 -9.000000
v -4.663502 1.804351 -8.975000
v -4.663502 1.795649 -9.000000
v -4.663502 1.995649 -9.000000
v -4.658690 0.804351 -8.975000
v -4.668314 0.804351 -8.975000
v -4.663502 0.802769 -8.979544
v -4.669676 1.003879 -8.969454
v -4.656471 1.002711 -8.987083
v -4.658690 0.995649 -9.000000
v -4.668313 0.995649 -9.000000
v -4.668314 1.204351 -8.975000
v -4.658690 1.204351 -8.975000
v -4.662149 1.191257 -9.003925
v -4.668313 1.195649 -9.000000
v -4.668313 1.395649 -9.000000
v -4.658690 1.395649 -9.000000
v -4.663502 1.397231 -8.995456
v -4.510902 2.204351 -9.003418
v -4.513098 2.213970 -8.967966
v -4.499530 2.202756 -8.979652
v -4.510869 2.392732 -9.023465
v -4.510902 2.395648 -9.028418
v -4.505606 2.398218 -8.992618
v -2.737253 1.808858 -8.994507
v -2.739651 1.818023 -8.968397
v -2.742649 1.807439 -8.974216
v -2.748959 1.995649 -9.000000
v -2.740322 1.995649 -9.006614
v -2.744640 1.997068 -8.995922
v -2.735538 3.609701 -8.962106
v -2.741325 3.602466 -8.988995
v -2.736100 3.600748 -8.993929
v -2.749866 3.795649 -9.000000
v -2.739415 3.795649 -9.000000
v -2.744640 3.797367 -8.995066
v -3.879916 0.000000 -8.975000
v -3.879916 4.000000 -9.000000
v -3.879916 0.204351 -8.975000
v -3.879916 0.195649 -9.000000
v -3.881655 0.404351 -8.968772
v -3.879916 0.395649 -9.000000
v -3.879916 0.595649 -9.000000
v -3.880898 0.807204 -8.964749
v -3.879916 1.004351 -8.975000
v -3.879916 0.995649 -9.000000
v -3.884579 1.201375 -8.965324
v -3.879916 1.195649 -9.000000
v -3.881891 1.412011 -8.967534
v -3.879916 1.395649 -9.000000
v -3.879916 1.604351 -8.975000
v -3.879916 1.595649 -9.000000
v -3.873962 1.812060 -8.989307
v -3.879916 1.795649 -9.000000
v -3.879916 2.004351 -8.975000
v -3.879916 1.995649 -9.000000
v -3.879916 2.204351 -8.975000
v -3.879916 2.195649 -9.000000
v -3.879916 2.404351 -8.975000
v -3.879916 2.395648 -9.000000
v -3.879916 2.604352 -8.975000
v -3.879916 2.595649 -9.000000
v -3.879916 2.804351 -8.975000
v -3.879916 2.795649 -9.000000
v -3.869806 3.027921 -8.996505
v -3.879916 2.995649 -9.000000
v -3.879916 3.204351 -8.975000
v -3.879916 3.195649 -9.000000
v -3.879916 3.404351 -8.975000
v -3.879916 3.395649 -9.000000
v -3.879916 3.604351 -8.975000
v -3.879916 3.595649 -9.000000
v -3.879916 3.804351 -8.975000
v -3.879916 3.795649 -9.000000
v -3.876396 0.606814 -8.971168
v -3.879046 0.603336 -8.988134
v -3.875718 0.602242 -8.991278
v -3.883245 0.795649 -9.000000
v -3.876588 0.795649 -9.000000
v -3.879916 0.796743 -8.996857
v -12.750000 0.000000 -8.975000
v -12.750000 4.000000 -9.000000
v -6.750000 4.000000 -9.000000
v -12.750000 3.795649 -9.000000
v -12.750000 3.804351 -8.975000
v -12.750000 3.595649 -9.000000
v -12.750000 3.604351 -8.975000
v -12.750000 3.395649 -9.000000
v -12.750000 3.404351 -8.975000
v -12.750000 3.195649 -9.000000
v -12.750000 3.204351 -8.975000
v -12.750000 2.995649 -9.000000
v -12.750000 3.004351 -8.975000
v -12.750000 2.795649 -9.000000
v -12.750000 2.804351 -8.975000
v -12.750000 2.595649 -9.000000
v -12.750000 2.604351 -8.975000
v -12.750000 2.395648 -9.000000
v -12.750000 2.404351 -8.975000
v -12.750000 2.195648 -9.000000
v -12.750000 2.204351 -8.975000
v -12.750000 1.995649 -9.000000
v -12.750000 2.004351 -8.975000
v -12.750000 1.795649 -9.000000
v -12.750000 1.804351 -8.975000
v -12.750000 1.595649 -9.000000
v -12.750000 1.604351 -8.975000
v -12.750000 1.395649 -9.000000
v -12.750000 1.404351 -8.975000
v -12.750000 1.195649 -9.000000
v -12.750000 1.204351 -8.975000
v -12.750000 0.995649 -9.000000
v -12.750000 1.004351 -8.975000
v -12.750000 0.795649 -9.000000
v -12.750000 0.804351 -8.975000
v -12.750000 0.595649 -9.000000
v -12.750000 0.604351 -8.975000
v -12.750000 0.395649 -9.000000
v -12.750000 0.404351 -8.975000
v -12.750000 0.195649 -9.000000
v -12.750000 0.204351 -8.975000
v -6.750000 0.204351 -8.975000
v -6.750000 0.195649 -9.000000
v -6.750000 0.404351 -8.975000
v -6.750000 0.395649 -9.000000
v -6.750000 0.604351 -8.975000
v -6.750000 0.595649 -9.000000
v -6.750000 0.804351 -8.975000
v -6.750000 0.795649 -9.000000
v -6.750000 1.004351 -8.975000
v -6.750000 0.995649 -9.000000
v -6.750000 1.204351 -8.975000
v -6.750000 1.195649 -9.000000
v -6.750000 1.404351 -8.975000
v -6.750000 1.395649 -9.000000
v -6.750000 1.595649 -9.000000
v -6.750000 1.804351 -8.975000
v -6.750000 1.795649 -9.000000
v -6.750000 2.004351 -8.975000
v -6.750000 1.995649 -9.000000
v -6.750000 2.204351 -8.975000
v -6.750000 2.195649 -9.000000
v -6.750000 2.404351 -8.975000
v -6.750000 2.395649 -9.000000
v -6.750000 2.604352 -8.975000
v -6.750000 2.595649 -9.000000
v -6.750000 2.804352 -8.975000
v -6.750000 2.795649 -9.000000
v -6.750000 3.004352 -8.975000
v -6.750000 2.995649 -9.000000
v -6.750000 3.204351 -8.975000
v -6.750000 3.195649 -9.000000
v -6.750000 3.404351 -8.975000
v -6.750000 3.395649 -9.000000
v -6.750000 3.604351 -8.975000
v -6.750000 3.595649 -9.000000
v -6.750000 3.804351 -8.975000
v -6.750000 3.795649 -9.000000
v -12.083334 0.000000 -8.975000
v -11.347145 0.000000 -8.975000
v -10.477112 0.003011 -8.972178
v -10.083333 0.000000 -8.975000
v -9.416666 0.000000 -8.975000
v -8.753141 -0.003955 -8.988649
v -7.411980 0.004679 -8.966694
v -7.416667 4.000000 -9.000000
v -8.744640 4.000000 -9.000000
v -9.416667 4.000000 -9.000000
v -10.083334 4.000000 -9.000000
v -10.505606 4.000000 -9.000000
v -11.347145 4.000000 -9.000000
v -12.083334 4.000000 -9.000000
v -7.420811 0.198292 -8.986388
v -8.744640 0.204351 -8.975000
v -9.416667 0.204351 -8.975000
v -10.083334 0.204351 -8.975000
v -10.478401 0.204351 -8.975000
v -11.347145 0.204351 -8.975000
v -12.083334 0.204351 -8.975000
v -12.081988 0.188379 -9.021975
v -11.345800 0.188379 -9.021975
v -10.477112 0.198659 -8.997178
v -10.083333 0.195649 -9.000000
v -9.416666 0.195649 -9.000000
v -8.753141 0.191694 -9.013649
v -7.411980 0.200328 -8.991693
v -7.416667 0.404351 -8.975000
v -8.744640 0.404351 -8.975000
v -9.418406 0.404351 -8.968772
v -10.092721 0.404351 -8.988709
v -10.478401 0.404351 -8.975000
v -11.342295 0.404351 -8.988327
v -12.083334 0.404351 -8.975000
v -12.083334 0.395649 -9.000000
v -11.347145 0.395649 -9.000000
v -10.478401 0.395649 -9.000000
v -10.083333 0.395649 -9.000000
v -9.417452 0.395649 -8.997188
v -8.745426 0.395649 -8.997188
v -7.420812 0.389590 -9.011388
v -7.416667 0.604351 -8.975000
v -8.744656 0.604347 -8.975022
v -9.416667 0.604351 -8.975000
v -10.077705 0.603751 -8.986409
v -10.474713 0.603537 -8.982796
v -11.347145 0.604351 -8.975000
v -12.083334 0.604351 -8.975000
v -12.083334 0.595649 -9.000000
v -11.342295 0.595649 -9.013328
v -10.478401 0.595649 -9.000000
v -10.092720 0.595649 -9.013710
v -9.416666 0.595649 -9.000000
v -8.744640 0.595649 -9.000000
v -7.416667 0.595649 -9.000000
v -7.416667 0.804351 -8.975000
v -8.737637 0.804351 -8.965870
v -9.417649 0.807204 -8.964749
v -10.083334 0.804351 -8.975000
v -10.478401 0.804351 -8.975000
v -11.350396 0.804351 -8.966069
v -12.069571 0.797663 -8.956986
v -12.083334 0.795649 -9.000000
v -11.347145 0.795649 -9.000000
v -10.474713 0.794835 -9.007795
v -10.077705 0.795048 -9.011409
v -9.416666 0.795649 -9.000000
v -8.743093 0.795649 -9.005541
v -7.416667 0.795649 -9.000000
v -7.416667 1.004351 -8.975000
v -8.744640 1.004351 -8.975000
v -9.416667 1.004351 -8.975000
v -10.083334 1.004351 -8.975000
v -10.478401 1.004351 -8.975000
v -11.347145 1.004351 -8.975000
v -12.083334 1.004351 -8.975000
v -12.069571 0.988960 -8.981987
v -11.350396 0.995649 -8.991069
v -10.478401 0.995649 -9.000000
v -10.083333 0.995649 -9.000000
v -9.416666 0.995649 -9.000000
v -8.739184 0.995649 -8.985330
v -7.416667 0.995649 -9.000000
v -7.416667 1.204351 -8.975000
v -8.749964 1.193910 -8.989733
v -9.419189 1.201375 -8.962200
v -10.083334 1.204351 -8.975000
v -10.478401 1.204351 -8.975000
v -11.342243 1.204351 -8.988466
v -12.083334 1.204351 -8.975000
v -12.083334 1.195649 -9.000000
v -11.347145 1.195649 -9.000000
v -10.478401 1.195649 -9.000000
v -10.083333 1.195649 -9.000000
v -9.416666 1.195649 -9.000000
v -8.744640 1.195649 -9.000000
v -7.416667 1.195649 -9.000000
v -7.423094 1.410421 -8.992040
v -8.741374 1.406968 -8.980523
v -9.416667 1.404351 -8.975000
v -10.083334 1.404351 -8.975000
v -10.478401 1.404351 -8.975000
v -11.347145 1.404351 -8.975000
v -12.083334 1.404351 -8.975000
v -12.083334 1.395649 -9.000000
v -11.342243 1.395649 -9.013467
v -10.478401 1.395649 -9.000000
v -10.083333 1.395649 -9.000000
v -9.414527 1.395649 -8.996876
v -8.746698 1.387823 -9.020255
v -7.416667 1.395649 -9.000000
v -7.423017 1.604351 -8.992075
v -8.744640 1.604351 -8.975000
v -9.416667 1.604351 -8.975000
v -10.083334 1.604351 -8.975000
v -10.478401 1.604351 -8.975000
v -11.348708 1.604351 -8.977283
v -12.089319 1.599706 -8.985193
v -12.083334 1.595649 -9.000000
v -11.347145 1.595649 -9.000000
v -10.478401 1.595649 -9.000000
v -10.083333 1.595649 -9.000000
v -9.416666 1.595649 -9.000000
v -8.744640 1.595649 -9.000000
v -7.423095 1.601719 -9.017040
v -7.416667 1.804351 -8.975000
v -9.417718 1.807404 -8.964031
v -10.083334 1.804351 -8.975000
v -10.478401 1.804351 -8.975000
v -11.342079 1.797219 -8.961663
v -12.083334 1.804351 -8.975000
v -12.089319 1.791003 -9.010193
v -11.348707 1.795649 -9.002282
v -10.478401 1.795649 -9.000000
v -10.083333 1.795649 -9.000000
v -9.416666 1.795649 -9.000000
v -8.744640 1.795649 -9.000000
v -7.423017 1.795649 -9.017075
v -7.414628 2.010427 -8.969275
v -8.744640 2.004351 -8.975000
v -9.416667 2.004351 -8.975000
v -10.083334 2.004351 -8.975000
v -11.347689 2.004478 -8.975708
v -12.085493 2.004351 -8.980808
v -12.083334 1.995649 -9.000000
v -11.342079 1.988517 -8.986664
v -10.478401 1.995649 -9.000000
v -10.083333 1.995649 -9.000000
v -9.416666 1.995649 -9.000000
v -7.416667 1.995649 -9.000000
v -7.416667 2.204351 -8.975000
v -8.744640 2.204351 -8.975000
v -9.414813 2.197164 -8.982006
v -10.083334 2.204351 -8.975000
v -11.347145 2.204351 -8.975000
v -12.083334 2.204351 -8.975000
v -12.085493 2.195648 -9.005809
v -11.347755 2.195905 -8.999994
v -10.083333 2.195649 -9.000000
v -9.416666 2.195649 -9.000000
v -8.744640 2.195649 -9.000000
v -7.414629 2.201725 -8.994275
v -7.416667 2.404351 -8.975000
v -8.741060 2.409584 -8.965165
v -9.416667 2.404351 -8.975000
v -10.083334 2.404351 -8.975000
v -10.505606 2.404351 -8.975000
v -11.347145 2.404351 -8.975000
v -12.083334 2.404351 -8.975000
v -12.083334 2.395648 -9.000000
v -11.347145 2.395648 -9.000000
v -10.083333 2.395648 -9.000000
v -9.414812 2.388461 -9.007006
v -8.744640 2.395649 -9.000000
v -7.416667 2.395649 -9.000000
v -7.416667 2.604352 -8.975000
v -8.744640 2.604352 -8.975000
v -9.419152 2.604352 -8.968171
v -10.083334 2.604351 -8.975000
v -10.508934 2.600042 -8.967002
v -11.347145 2.604351 -8.975000
v -12.083334 2.604351 -8.975000
v -12.083334 2.595649 -9.000000
v -11.347145 2.595649 -9.000000
v -10.505606 2.595649 -9.000000
v -10.083333 2.595649 -9.000000
v -9.416666 2.595649 -9.000000
v -8.741060 2.600881 -8.990166
v -7.416667 2.595649 -9.000000
v -7.410384 2.810435 -8.957864
v -8.744640 2.804352 -8.975000
v -9.416667 2.804351 -8.975000
v -10.083334 2.804351 -8.975000
v -10.505606 2.804351 -8.975000
v -11.344700 2.807927 -8.968279
v -12.083334 2.804351 -8.975000
v -12.083334 2.795649 -9.000000
v -11.347145 2.795649 -9.000000
v -10.508934 2.791339 -8.992002
v -10.083333 2.795649 -9.000000
v -9.419152 2.795649 -8.993172
v -8.744640 2.795649 -9.000000
v -7.416667 2.795649 -9.000000
v -7.418708 2.998266 -8.980734
v -8.753839 3.009589 -8.999524
v -9.416667 3.004352 -8.975000
v -10.083334 3.004351 -8.975000
v -10.505606 3.004351 -8.975000
v -11.346729 3.009210 -8.974849
v -12.083334 3.004351 -8.975000
v -12.083334 2.995649 -9.000000
v -11.344699 2.999224 -8.993279
v -10.505606 2.995649 -9.000000
v -10.083333 2.995649 -9.000000
v -9.416666 2.995649 -9.000000
v -8.744640 2.995649 -9.000000
v -7.410385 3.001733 -8.982863
v -7.416667 3.204351 -8.975000
v -8.744640 3.204351 -8.975000
v -9.416667 3.204351 -8.975000
v -10.083334 3.204351 -8.975000
v -10.505358 3.204351 -8.975739
v -12.088754 3.204351 -8.989574
v -12.083334 3.195649 -9.000000
v -11.347145 3.195649 -9.000000
v -10.505606 3.195649 -9.000000
v -10.083333 3.195649 -9.000000
v -9.416666 3.195649 -9.000000
v -8.753839 3.200886 -9.024524
v -7.418709 3.189564 -9.005733
v -7.416667 3.404351 -8.975000
v -8.744640 3.404351 -8.975000
v -9.420023 3.404351 -8.984023
v -10.083334 3.404351 -8.975000
v -10.505606 3.404351 -8.975000
v -11.347145 3.404351 -8.975000
v -12.083334 3.404351 -8.975000
v -12.088754 3.395649 -9.014575
v -10.505358 3.395649 -9.000000
v -10.083333 3.395649 -9.000000
v -9.416666 3.395649 -9.000000
v -8.744640 3.395649 -9.000000
v -7.416667 3.395649 -9.000000
v -7.416667 3.604351 -8.975000
v -9.416667 3.604351 -8.975000
v -10.083334 3.604351 -8.975000
v -10.505606 3.604351 -8.975000
v -11.347145 3.604351 -8.975000
v -12.083334 3.604351 -8.975000
v -12.083334 3.595649 -9.000000
v -11.347145 3.595649 -9.000000
v -10.505606 3.595649 -9.000000
v -10.083333 3.595649 -9.000000
v -9.420022 3.595649 -9.009023
v -8.744640 3.595649 -9.000000
v -7.416667 3.595649 -9.000000
v -7.416667 3.804351 -8.975000
v -8.744640 3.804351 -8.975000
v -9.416667 3.804351 -8.975000
v -10.083334 3.804351 -8.975000
v -10.505606 3.804351 -8.975000
v -11.347145 3.804351 -8.975000
v -12.083334 3.804351 -8.975000
v -12.083334 3.795649 -9.000000
v -11.347145 3.795649 -9.000000
v -10.505606 3.795649 -9.000000
v -10.083333 3.795649 -9.000000
v -9.416666 3.795649 -9.000000
v -7.416667 3.795649 -9.000000
v -10.474508 2.013803 -8.970561
v -10.478401 2.002853 -8.987864
v -10.486641 2.199113 -8.999928
v -10.473633 2.195648 -9.000000
v -10.478659 2.197275 -8.995635
v -10.485727 2.006070 -8.984557
v -10.478550 2.197236 -9.003998
v -10.483170 2.195718 -9.008360
v -10.473633 2.195718 -9.008360
v -7.877718 0.000000 -8.975000
v -7.885643 0.000000 -8.975000
v -7.885643 4.000000 -9.000000
v -7.877718 4.000000 -9.000000
v -7.877718 0.204351 -8.975000
v -7.885643 0.204351 -8.975000
v -7.885643 0.195649 -9.000000
v -7.877718 0.195649 -9.000000
v -7.877718 0.404351 -8.975000
v -7.885643 0.404351 -8.975000
v -7.885643 0.395649 -9.000000
v -7.877718 0.395649 -9.000000
v -7.876892 0.610815 -8.967426
v -7.888083 0.603735 -8.978660
v -7.885643 0.595649 -9.000000
v -7.877718 0.595649 -9.000000
v -7.877718 0.804351 -8.975000
v -7.885643 0.804351 -8.975000
v -7.885643 0.795649 -9.000000
v -7.876590 0.799728 -8.997355
v -7.877718 1.004351 -8.975000
v -7.885643 1.004351 -8.975000
v -7.885643 0.995649 -9.000000
v -7.877718 0.995649 -9.000000
v -7.877718 1.204351 -8.975000
v -7.885643 1.204351 -8.975000
v -7.885643 1.195649 -9.000000
v -7.877718 1.195649 -9.000000
v -7.877718 1.404351 -8.975000
v -7.885643 1.404351 -8.975000
v -7.885643 1.395649 -9.000000
v -7.877718 1.395649 -9.000000
v -7.877718 1.604351 -8.975000
v -7.885643 1.604351 -8.975000
v -7.885643 1.595649 -9.000000
v -7.877718 1.595649 -9.000000
v -7.877718 1.804351 -8.975000
v -7.885643 1.804351 -8.975000
v -7.885643 1.795649 -9.000000
v -7.877718 1.795649 -9.000000
v -7.877718 2.004351 -8.975000
v -7.885643 2.004351 -8.975000
v -7.885643 1.995649 -9.000000
v -7.877718 1.995649 -9.000000
v -7.877718 2.204351 -8.975000
v -7.885643 2.204351 -8.975000
v -7.885643 2.195649 -9.000000
v -7.877718 2.195649 -9.000000
v -7.877718 2.404351 -8.975000
v -7.885643 2.404351 -8.975000
v -7.885643 2.395649 -9.000000
v -7.877718 2.395649 -9.000000
v -7.877718 2.604352 -8.975000
v -7.885643 2.604352 -8.975000
v -7.885643 2.595649 -9.000000
v -7.877718 2.595649 -9.000000
v -7.877718 2.804352 -8.975000
v -7.885643 2.804352 -8.975000
v -7.885643 2.795649 -9.000000
v -7.877718 2.795649 -9.000000
v -7.877718 3.004352 -8.975000
v -7.885643 3.004352 -8.975000
v -7.885643 2.995649 -9.000000
v -7.877718 2.995649 -9.000000
v -7.877718 3.204351 -8.975000
v -7.885643 3.204351 -8.975000
v -7.885643 3.195649 -9.000000
v -7.877718 3.195649 -9.000000
v -7.877718 3.404351 -8.975000
v -7.885643 3.404351 -8.975000
v -7.885643 3.395649 -9.000000
v -7.877718 3.395649 -9.000000
v -7.877718 3.604351 -8.975000
v -7.885643 3.604351 -8.975000
v -7.885643 3.595649 -9.000000
v -7.877718 3.595649 -9.000000
v -7.885643 3.804351 -8.975000
v -7.877718 3.804351 -8.975000
v -7.885643 3.795649 -9.000000
v -7.877718 3.795649 -9.000000
v -7.885643 0.794031 -9.012382
v -7.877718 0.794031 -9.012382
v -7.877718 0.602733 -8.987382
v -7.885643 0.602733 -8.987382
v -11.339233 3.204351 -8.998630
v -11.347544 3.208927 -8.971980
v -11.347128 3.202888 -8.979202
v -11.351578 3.395648 -9.000000
v -11.339233 3.395648 -9.000000
v -11.347128 3.397111 -8.995797
v -10.663502 0.000000 -8.975000
v -10.663502 0.204351 -8.975000
v -10.663502 0.195649 -9.000000
v -10.663502 0.404351 -8.975000
v -10.663502 0.395649 -9.000000
v -10.663502 0.604351 -8.975000
v -10.663502 0.595649 -9.000000
v -10.663502 0.795649 -9.000000
v -10.663502 1.404351 -8.975000
v -10.663502 1.604351 -8.975000
v -10.663502 1.595649 -9.000000
v -10.663502 1.804351 -8.975000
v -10.663502 1.795649 -9.000000
v -10.663502 1.995649 -9.000000
v -10.658690 0.804351 -8.975000
v -10.668314 0.804351 -8.975000
v -10.663502 0.802769 -8.979544
v -10.669676 1.003879 -8.969454
v -10.656471 1.002711 -8.987083
v -10.658690 0.995649 -9.000000
v -10.668313 0.995649 -9.000000
v -10.668314 1.204351 -8.975000
v -10.658690 1.204351 -8.975000
v -10.662149 1.191257 -9.003925
v -10.668313 1.195649 -9.000000
v -10.668313 1.395649 -9.000000
v -10.658690 1.395649 -9.000000
v -10.663502 1.397231 -8.995456
v -10.510902 2.204351 -9.003418
v -10.513098 2.213970 -8.967966
v -10.499530 2.202756 -8.979652
v -10.510869 2.392732 -9.023465
v -10.510902 2.395648 -9.028418
v -10.505606 2.398218 -8.992618
v -8.737253 1.808858 -8.994507
v -8.739651 1.818023 -8.968397
v -8.742649 1.807439 -8.974216
v -8.748959 1.995649 -9.000000
v -8.740322 1.995649 -9.006614
v -8.744640 1.997068 -8.995922
v -8.735538 3.609701 -8.962106
v -8.741325 3.602466 -8.988995
v -8.736100 3.600748 -8.993929
v -8.749866 3.795649 -9.000000
v -8.739415 3.795649 -9.000000
v -8.744640 3.797367 -8.995066
v -9.879916 0.000000 -8.975000
v -9.879916 4.000000 -9.000000
v -9.879916 0.204351 -8.975000
v -9.879916 0.195649 -9.000000
v -9.881655 0.404351 -8.968772
v -9.879916 0.395649 -9.000000
v -9.879916 0.595649 -9.000000
v -9.880898 0.807204 -8.964749
v -9.879916 1.004351 -8.975000
v -9.879916 0.995649 -9.000000
v -9.884579 1.201375 -8.965324
v -9.879916 1.195649 -9.000000
v -9.881891 1.412011 -8.967534
v -9.879916 1.395649 -9.000000
v -9.879916 1.604351 -8.975000
v -9.879916 1.595649 -9.000000
v -9.873962 1.812060 -8.989307
v -9.879916 1.795649 -9.000000
v -9.879916 2.004351 -8.975000
v -9.879916 1.995649 -9.000000
v -9.879916 2.204351 -8.975000
v -9.879916 2.195649 -9.000000
v -9.879916 2.404351 -8.975000
v -9.879916 2.395648 -9.000000
v -9.879916 2.604352 -8.975000
v -9.879916 2.595649 -9.000000
v -9.879916 2.804351 -8.975000
v -9.879916 2.795649 -9.000000
v -9.869806 3.027921 -8.996505
v -9.879916 2.995649 -9.000000
v -9.879916 3.204351 -8.975000
v -9.879916 3.195649 -9.000000
v -9.879916 3.404351 -8.975000
v -9.879916 3.395649 -9.000000
v -9.879916 3.604351 -8.975000
v -9.879916 3.595649 -9.000000
v -9.879916 3.804351 -8.975000
v -9.879916 3.795649 -9.000000
v -9.876396 0.606814 -8.971168
v -9.879046 0.603336 -8.988134
v -9.875718 0.602242 -8.991278
v -9.883245 0.795649 -9.000000
v -9.876588 0.795649 -9.000000
v -9.879916 0.796743 -8.996857
vn -0.0000 0.1296 0.9916
vn 0.0133 0.1267 0.9918
vn -0.0180 0.1296 0.9914
vn -0.0239 0.1295 0.9913
vn -0.0251 0.1295 0.9913
vn 0.0097 0.1296 0.9915
vn 0.0269 0.1295 0.9912
vn -0.0097 0.1296 0.9915
vn 0.0002 -0.9460 0.3243
vn -0.0000 -0.9444 0.3287
vn -0.0070 -0.9876 0.1570
vn -0.0120 -0.8012 0.5983
vn -0.0010 -0.9523 0.3051
vn -0.0006 -0.9390 0.3440
vn 0.0016 -0.9304 0.3665
vn 0.0013 -0.9547 0.2977
vn 0.0048 -0.8972 0.4416
vn 0.0029 -0.9656 0.2600
vn -0.0000 0.1267 0.9919
vn 0.0264 0.1295 0.9912
vn -0.0000 -0.9444 0.3288
vn 0.0003 -0.9453 0.3263
vn -0.0023 -0.9402 0.3406
vn -0.0026 -0.9205 0.3908
vn 0.0025 -0.9215 0.3883
vn -0.0037 -0.9214 0.3885
vn 0.0068 -0.9870 0.1603
vn -0.0003 -0.9429 0.3332
vn -0.0220 0.1386 0.9901
vn -0.0011 -0.8271 0.5620
vn 0.0016 -0.9818 0.1900
vn -0.0272 0.1295 0.9912
vn -0.0023 -0.9820 0.1888
vn 0.0152 -0.7446 0.6673
vn 0.0747 -0.5817 0.8100
vn -0.0030 -0.9186 0.3952
vn 0.0034 -0.9185 0.3954
vn -0.0001 -0.9439 0.3302
vn 0.0001 -0.9439 0.3302
vn 0.0019 -0.9275 0.3738
vn 0.0088 -0.8886 0.4587
vn -0.0045 -0.8873 0.4611
vn 0.0007 -0.9379 0.3469
vn 0.0032 -0.9679 0.2511
vn 0.0070 -0.9753 0.2206
vn -0.0036 -0.9755 0.2201
vn 0.0122 0.1296 0.9915
vn 0.0033 -0.9132 0.4074
vn -0.0022 -0.9762 0.2168
vn -0.0034 -0.9688 0.2477
vn 0.0048 -0.9687 0.2481
vn 0.0040 -0.9729 0.2311
vn -0.3046 -0.9525 -0.0037
vn 0.0006 -0.9638 0.2666
vn -0.0010 -0.9559 0.2938
vn -0.0025 -0.9215 0.3884
vn 0.0037 -0.9216 0.3882
vn -0.0002 -0.9559 0.2938
vn 0.0048 0.1026 0.9947
vn -0.0079 -0.8965 0.4430
vn -0.0115 -0.7754 0.6314
vn -0.0032 -0.9679 0.2514
vn 0.0045 -0.8926 0.4507
vn 0.0047 -0.9680 0.2507
vn -0.0002 -0.8121 0.5836
vn 0.0351 -0.8201 0.5712
vn 0.0064 -0.9880 0.1540
vn -0.0044 -0.9810 0.1938
vn -0.0100 -0.9752 0.2212
vn 0.0148 -0.9751 0.2212
vn -0.0006 -0.9395 0.3426
vn 0.0013 -0.9467 0.3221
vn -0.0111 -0.8155 0.5787
vn -0.0030 0.1162 0.9932
vn 0.0162 -0.8129 0.5821
vn 0.0053 -0.9113 0.4116
vn 0.0100 -0.9164 0.4001
vn 0.0024 -0.9643 0.2646
vn -0.0216 0.1428 0.9895
vn -0.0039 -0.9966 0.0820
vn -0.0128 -0.9721 0.2341
vn 0.0039 -0.9030 0.4297
vn -0.0048 -0.8973 0.4413
vn -0.0457 0.1087 0.9930
vn 0.0077 -0.6896 0.7241
vn 0.0139 0.1155 0.9932
vn -0.0035 -0.9626 0.2708
vn -0.0007 -0.9653 0.2611
vn 0.0015 -0.9649 0.2626
vn 0.0054 -0.9905 0.1372
vn -0.0011 0.1341 0.9910
vn -0.0033 -0.9237 0.3830
vn 0.0045 0.1402 0.9901
vn 0.0077 -0.9421 0.3353
vn -0.0026 -0.9643 0.2648
vn 0.0024 -0.9642 0.2652
vn 0.0012 -0.9341 0.3570
vn -0.0017 -0.9341 0.3571
vn 0.0015 -0.9456 0.3252
vn -0.0180 -0.9270 0.3747
vn 0.0076 -0.9009 0.4340
vn -0.0042 -0.9032 0.4292
vn 0.0039 -0.9036 0.4283
vn 0.0005 -0.9766 0.2150
vn 0.0016 0.1224 0.9925
vn -0.0007 -0.9767 0.2146
vn 0.0004 -0.9481 0.3181
vn -0.0026 -0.9565 0.2918
vn -0.0002 -0.9460 0.3243
vn -0.0000 -0.9468 0.3219
vn 0.0195 0.1296 0.9914
vn -0.0132 0.1296 0.9915
vn 0.0219 0.1296 0.9913
vn -0.0026 -0.9654 0.2608
vn -0.0055 -0.8683 0.4959
vn -0.0009 0.1277 0.9918
vn -0.0053 -0.9868 0.1618
vn -0.0005 0.1316 0.9913
vn 0.0005 0.1316 0.9913
vn -0.0214 0.0785 0.9967
vn 0.0356 0.1295 0.9909
vn -0.0117 -0.7495 0.6619
vn -0.0096 0.1296 0.9915
vn 0.0085 0.1296 0.9915
vn 0.0141 0.1296 0.9915
vn -0.0088 0.1296 0.9915
vn 0.0173 0.1296 0.9914
vn -0.0147 0.1296 0.9915
vn 0.0100 0.1296 0.9915
vn -0.0380 0.1295 0.9909
vn -0.0013 -0.9570 0.2899
vn -0.0154 0.1296 0.9915
vn -0.0008 -0.9353 0.3539
vn -0.0043 -0.7686 0.6397
vn 0.0009 -0.9262 0.3770
vn 0.0169 0.1296 0.9914
vn -0.0118 0.1296 0.9915
vn 0.0087 0.1296 0.9915
vn -0.0074 0.1277 0.9918
vn 0.0088 0.2125 0.9771
vn 0.0118 -0.7598 0.6501
vn -0.0166 0.1296 0.9914
vn -0.0266 0.1241 0.9919
vn -0.0150 0.0975 0.9951
vn -0.0140 0.1296 0.9915
vn 0.0162 0.1296 0.9914
vn -0.0114 0.1296 0.9915
vn 0.0092 0.1514 0.9884
vn 0.0038 0.1163 0.9932
vn 0.0372 0.1295 0.9909
vn -0.0031 -0.9185 0.3954
vn 0.0180 0.1296 0.9914
vn -0.0066 0.1759 0.9844
vn 0.0394 0.1647 0.9856
vn 0.0354 0.1295 0.9909
vn 0.0043 -0.9809 0.1943
vn -0.0198 0.1296 0.9914
vn 0.0038 -0.8968 0.4424
vn -0.0250 0.1295 0.9913
vn 0.0113 0.1296 0.9915
vn -0.0040 0.1435 0.9896
vn -0.0000 0.1839 0.9829
vn -0.0096 0.1426 0.9897
vn 0.0005 -0.9657 0.2598
vn 0.0415 0.1295 0.9907
vn 0.0090 0.1296 0.9915
vn -0.0001 -0.9503 0.3115
vn 0.0041 0.1436 0.9896
vn 0.0004 -0.9402 0.3407
vn 0.0178 0.1296 0.9914
vn 0.0352 0.1295 0.9910
vn -0.0000 0.1611 0.9869
vn 0.0046 0.1454 0.9894
vn 0.0126 0.1430 0.9896
vn 0.0006 -0.9382 0.3460
vn -0.0030 0.1224 0.9925
vn -0.0000 0.1152 0.9933
vn -0.0003 -0.9480 0.3182
vn 0.0172 0.1841 0.9828
vn -0.0000 0.2420 0.9703
vn -0.0171 0.1267 0.9918
vn 0.0081 0.1267 0.9919
vn 0.0212 0.1267 0.9917
vn -0.0190 0.1267 0.9918
vn 0.0080 0.1645 0.9863
vn 0.0074 0.1443 0.9895
vn -0.5833 0.0984 0.8063
vn -1.0000 0.0048 -0.0000
vn -0.1410 -0.9754 0.1694
vn 0.9289 0.0338 0.3687
vn -0.0000 0.1268 0.9919
vn 0.1849 -0.9449 0.2703
vn -0.0000 -0.8720 0.4895
vn 0.9935 0.0075 0.1139
vn -0.0162 0.1267 0.9918
vn 0.1901 -0.9505 0.2459
vn -0.9986 0.0084 0.0524
vn 0.8121 -0.5088 0.2858
vn -0.9569 -0.2532 0.1423
vn 0.8808 -0.3370 0.3325
vn 0.7937 0.0556 0.6057
vn -0.0137 0.0668 0.9977
vn -0.0168 0.1842 0.9827
vn -0.0195 0.1296 0.9914
vn 0.0042 -0.9537 0.3008
vn -0.0087 -0.9232 0.3843
vn 0.0072 -0.9273 0.3743
vn -0.0033 0.1296 0.9916
vn 0.0181 0.1296 0.9914
vn 0.0055 -0.9564 0.2920
vn 0.0056 -0.9308 0.3654
vn 0.0018 -0.9589 0.2836
vn 0.0005 -0.9399 0.3414
vn -0.0043 -0.9026 0.4306
vn -0.0026 -0.9643 0.2646
vn 0.7522 0.0899 0.6527
vn 0.2011 -0.9253 0.3216
vn -0.1595 -0.9116 0.3788
vn 0.0130 0.1296 0.9915
vn 0.5208 0.8315 -0.1934
vn 0.9698 -0.2072 -0.1285
vn 0.9986 0.0054 0.0526
vn -0.0658 0.1293 0.9894
vn 0.9027 -0.3733 0.2139
vn 0.1431 -0.9719 0.1868
vn 0.9510 0.0685 0.3015
vn 0.0018 0.1817 0.9834
vn -0.0596 -0.9606 0.2713
vn -0.8598 0.0375 0.5092
vn 0.0105 0.0935 0.9956
vn -0.0783 0.1453 0.9863
vn -0.0046 -0.9380 0.3466
vn -0.0260 0.1567 0.9873
vn -0.0226 0.1532 0.9879
vn -0.0211 0.1516 0.9882
vn 0.0327 0.0952 0.9949
vn 0.0468 0.0803 0.9957
vn -0.0009 -0.9600 0.2801
vn -0.0106 -0.9254 0.3790
vn -0.0067 -0.9601 0.2794
vn -0.0005 -0.9877 0.1560
vn -0.0055 -0.9082 0.4185
vn -0.0186 -0.8551 0.5181
vn -0.0058 -0.9728 0.2315
vn -0.0041 -0.9182 0.3960
vn -0.0022 -0.9562 0.2928
vn -0.0028 -0.9274 0.3741
vn -0.0339 -0.5650 0.8244
vn 0.0038 -0.9203 0.3912
vn 0.0028 -0.9592 0.2827
vn -0.1142 -0.9695 0.2167
vn -0.8795 0.0405 0.4742
vn -0.0246 0.0954 0.9951
vn -0.5833 0.0984 0.8062
vn 0.9289 0.0338 0.3688
vn 0.9935 0.0075 0.1140
vn -0.9986 0.0084 0.0525
vn 0.8121 -0.5088 0.2857
vn -0.9569 -0.2531 0.1423
vn 0.7938 0.0556 0.6057
vn 0.2010 -0.9253 0.3216
vn -0.1595 -0.9117 0.3787
vn 0.5207 0.8315 -0.1934
vn 0.9698 -0.2072 -0.1286
vn 0.9986 0.0054 0.0525
vn 0.9510 0.0685 0.3014
vn -0.8599 0.0375 0.5091
vn -0.1142 -0.9696 0.2166
vn -0.8795 0.0405 0.4741
vt 2.667534 1.802616
vt 3.000976 1.802616
vt 3.000976 1.898288
vt 2.667534 1.898288
vt 2.667535 0.000000
vt 3.000977 0.000000
vt 3.000976 0.097848
vt 2.667534 0.097848
vt 2.667535 0.102201
vt 3.000976 0.102201
vt 3.000976 0.197873
vt 2.667534 0.197873
vt 2.667535 0.202225
vt 3.000976 0.202225
vt 3.000976 0.297897
vt 2.667534 0.297897
vt 2.667534 0.302249
vt 3.000976 0.302249
vt 3.000976 0.397922
vt 2.667534 0.397922
vt 2.667534 0.402274
vt 3.000976 0.402274
vt 3.000976 0.497946
vt 2.667534 0.497946
vt 2.667534 0.502298
vt 3.000976 0.502298
vt 3.000976 0.597970
vt 2.667534 0.597970
vt 2.667534 0.602323
vt 3.000976 0.602323
vt 3.000976 0.697995
vt 2.667534 0.697995
vt 2.667534 0.702347
vt 3.000976 0.702347
vt 3.000976 0.798019
vt 2.667534 0.798019
vt 2.667534 0.802372
vt 3.000976 0.802372
vt 3.000976 0.898044
vt 2.667534 0.898044
vt 2.667534 0.902396
vt 3.000976 0.902396
vt 3.000976 0.998068
vt 2.667534 0.998068
vt 2.667534 1.002420
vt 3.000976 1.002420
vt 3.000976 1.098093
vt 2.667534 1.098093
vt 2.667534 1.102445
vt 3.000976 1.102445
vt 3.000976 1.198117
vt 2.667534 1.198117
vt 2.667534 1.202469
vt 3.000976 1.202469
vt 3.000976 1.298141
vt 2.667534 1.298141
vt 2.667534 1.302494
vt 3.000976 1.302494
vt 3.000976 1.398166
vt 2.667534 1.398166
vt 2.667534 1.402518
vt 3.000976 1.402518
vt 3.000976 1.498190
vt 2.667534 1.498190
vt 2.667534 1.502543
vt 3.000976 1.502543
vt 3.000976 1.598215
vt 2.667534 1.598215
vt 2.667535 1.602567
vt 3.000976 1.602567
vt 3.000976 1.698239
vt 2.667534 1.698239
vt 2.667535 1.702591
vt 3.000976 1.702591
vt 3.000976 1.798264
vt 2.667534 1.798264
vt 0.333442 0.102201
vt 0.000000 0.102201
vt 0.000000 0.097848
vt 0.333442 0.097848
vt 0.333442 0.202225
vt 0.000000 0.202225
vt 0.000000 0.197873
vt 0.333442 0.197873
vt 0.333442 0.302249
vt 0.000000 0.302249
vt 0.000000 0.297897
vt 0.333442 0.297897
vt 0.333442 0.402274
vt 0.000000 0.402274
vt 0.000000 0.397922
vt 0.333442 0.397922
vt 0.333442 0.502298
vt 0.000000 0.502298
vt 0.000000 0.497946
vt 0.333442 0.497946
vt 0.333442 0.602323
vt 0.000000 0.602323
vt 0.000000 0.597970
vt 0.333442 0.597970
vt 0.333442 0.702347
vt 0.000000 0.702347
vt 0.000000 0.697995
vt 0.333442 0.697995
vt 0.333442 0.802371
vt 0.000000 0.802371
vt 0.000000 0.798019
vt 0.333442 0.798019
vt 0.333442 0.902396
vt 0.000000 0.902396
vt 0.000000 0.898044
vt 0.333442 0.898044
vt 0.333442 1.002420
vt 0.000000 1.002420
vt 0.000000 0.998068
vt 0.333442 0.998068
vt 0.333442 1.102445
vt 0.000000 1.102445
vt 0.000000 1.098093
vt 0.333442 1.098093
vt 0.333442 1.202469
vt 0.000000 1.202469
vt 0.000000 1.198117
vt 0.333442 1.198117
vt 0.333442 1.302493
vt 0.000000 1.302493
vt 0.000000 1.298141
vt 0.333442 1.298141
vt 0.333442 1.402518
vt 0.000000 1.402518
vt 0.000000 1.398166
vt 0.333442 1.398166
vt 0.333442 1.502542
vt 0.000000 1.502542
vt 0.000000 1.498190
vt 0.333442 1.498190
vt 0.333442 1.602567
vt 0.000000 1.602567
vt 0.000000 1.598215
vt 0.333442 1.598215
vt 0.333442 1.702591
vt 0.000000 1.702591
vt 0.000000 1.698239
vt 0.333442 1.698239
vt 0.333442 1.802616
vt 0.000000 1.802616
vt 0.000000 1.798263
vt 0.333442 1.798263
vt 0.333442 1.902640
vt 0.000000 1.902640
vt 0.000000 1.898288
vt 0.333442 1.898288
vt 2.667535 1.902640
vt 3.000976 1.902640
vt 3.000977 2.000488
vt 2.667535 2.000488
vt 0.333442 2.000488
vt 0.000000 2.000488
vt 0.701656 1.902640
vt 0.701656 2.000488
vt 1.122563 1.902640
vt 1.122563 2.000488
vt 1.333767 1.902640
vt 1.333768 2.000488
vt 1.435509 1.902640
vt 1.667209 1.902640
vt 1.667209 2.000488
vt 1.435509 2.000488
vt 2.003332 1.902640
vt 2.003332 2.000488
vt 2.436934 0.102201
vt 2.436934 0.197873
vt 2.432970 1.902640
vt 2.432970 2.000488
vt 2.003332 1.899147
vt 2.005945 1.898288
vt 2.432970 1.898288
vt 1.333767 1.898288
vt 1.435509 1.898288
vt 1.122563 1.898288
vt 0.701656 1.898288
vt 2.003332 1.801757
vt 2.000718 1.802616
vt 1.667209 1.802616
vt 1.667209 1.798264
vt 2.003332 1.798264
vt 2.436934 1.802616
vt 2.436934 1.798264
vt 2.432970 1.802616
vt 2.005945 1.802616
vt 2.003332 1.801757
vt 2.432970 1.798264
vt 1.435509 1.802616
vt 1.333767 1.802616
vt 1.333767 1.798264
vt 1.435509 1.798264
vt 1.122563 1.802616
vt 1.122563 1.798264
vt 0.701656 1.802616
vt 0.701656 1.798263
vt 2.003332 1.702591
vt 2.432970 1.702591
vt 2.436934 1.702591
vt 2.436934 1.698239
vt 1.667209 1.702591
vt 1.667209 1.698239
vt 2.003332 1.698239
vt 1.435509 1.702591
vt 1.333767 1.702591
vt 1.333767 1.698239
vt 1.435509 1.698239
vt 1.122563 1.702591
vt 1.122687 1.698239
vt 0.701656 1.702591
vt 0.701664 1.698971
vt 0.705613 1.698239
vt 2.003332 1.602567
vt 2.432970 1.602567
vt 2.432970 1.698239
vt 2.436934 1.602567
vt 2.436934 1.598215
vt 1.667209 1.602567
vt 1.667209 1.598215
vt 2.003332 1.598215
vt 1.435509 1.602567
vt 1.333767 1.602567
vt 1.333767 1.598215
vt 1.435509 1.598215
vt 1.122687 1.602567
vt 1.122563 1.598215
vt 0.699439 1.602567
vt 0.699439 1.698239
vt 0.705613 1.602567
vt 0.701664 1.601835
vt 0.701656 1.598215
vt 2.003332 1.502542
vt 2.432970 1.502543
vt 2.432970 1.598215
vt 2.436933 1.502543
vt 2.436934 1.498190
vt 1.667209 1.502542
vt 1.667209 1.498190
vt 2.003332 1.498190
vt 1.435509 1.502542
vt 1.333767 1.502542
vt 1.333767 1.498190
vt 1.435509 1.498190
vt 1.122563 1.502542
vt 1.122563 1.498190
vt 0.701656 1.502542
vt 0.701656 1.498190
vt 2.003332 1.402518
vt 2.432969 1.402518
vt 2.432970 1.498190
vt 2.436933 1.402518
vt 2.436934 1.398166
vt 1.667209 1.402518
vt 1.667209 1.398166
vt 2.003332 1.398166
vt 1.435509 1.402518
vt 1.333767 1.402518
vt 1.333767 1.398166
vt 1.435509 1.398166
vt 1.122562 1.402518
vt 1.122562 1.398166
vt 0.701656 1.402518
vt 0.701656 1.398166
vt 2.003332 1.302494
vt 2.432970 1.302493
vt 2.432970 1.398166
vt 2.436934 1.302493
vt 2.436934 1.298141
vt 1.667209 1.302493
vt 1.667209 1.298141
vt 2.003332 1.298141
vt 1.435509 1.302493
vt 1.333767 1.302493
vt 1.333767 1.298141
vt 1.435509 1.298141
vt 1.122563 1.302493
vt 1.122562 1.298141
vt 0.701656 1.302493
vt 0.701656 1.298141
vt 2.003332 1.202469
vt 2.432970 1.202469
vt 2.432970 1.298141
vt 2.436933 1.202469
vt 2.436934 1.198117
vt 1.667209 1.202469
vt 1.667209 1.198117
vt 2.003332 1.198117
vt 1.435509 1.202469
vt 1.333767 1.202469
vt 1.333767 1.198117
vt 1.435509 1.198117
vt 1.122563 1.202469
vt 1.122562 1.199402
vt 1.126472 1.198117
vt 0.701656 1.202469
vt 0.701656 1.198117
vt 2.003332 1.102445
vt 2.432970 1.102445
vt 2.432970 1.198117
vt 2.436934 1.102445
vt 2.436934 1.098093
vt 1.667209 1.102445
vt 1.667209 1.098093
vt 2.003332 1.098093
vt 1.435509 1.102445
vt 1.333767 1.102445
vt 1.333767 1.098093
vt 1.435509 1.098092
vt 1.138554 1.098093
vt 1.136067 1.098863
vt 1.136100 1.098868
vt 1.118653 1.198117
vt 0.701656 1.102445
vt 0.701479 1.098093
vt 2.003332 1.002420
vt 2.432970 1.002420
vt 2.432970 1.098093
vt 2.436934 1.002420
vt 2.436934 0.998068
vt 2.003331 0.998778
vt 2.005491 0.998068
vt 2.432970 0.998068
vt 1.435509 1.002420
vt 1.333767 1.002420
vt 1.333767 0.998068
vt 1.435509 0.998068
vt 0.701479 1.002420
vt 1.133784 1.002420
vt 1.133784 1.098093
vt 1.138554 1.002420
vt 1.136169 1.001636
vt 1.136169 0.998068
vt 0.701656 0.998068
vt 2.003332 0.901686
vt 2.001172 0.902396
vt 1.667209 0.902396
vt 1.667209 0.898044
vt 2.003332 0.898044
vt 2.436934 0.902396
vt 2.436934 0.898044
vt 2.432970 0.902396
vt 2.005491 0.902396
vt 2.432970 0.898044
vt 1.435509 0.902396
vt 1.333767 0.902396
vt 1.333767 0.898044
vt 1.435509 0.898044
vt 1.136169 0.902396
vt 1.136169 0.898044
vt 1.043589 0.902396
vt 0.701656 0.902396
vt 0.701656 0.898044
vt 1.043589 0.898044
vt 2.003332 0.802372
vt 2.432969 0.802371
vt 2.436933 0.802371
vt 2.436934 0.798019
vt 1.667209 0.802372
vt 1.667209 0.798019
vt 2.003331 0.798019
vt 1.435509 0.802372
vt 1.333767 0.802372
vt 1.333767 0.798019
vt 1.435509 0.798019
vt 1.136169 0.802372
vt 1.136169 0.798019
vt 1.043589 0.802372
vt 0.701656 0.802372
vt 0.701656 0.798019
vt 1.043589 0.798019
vt 2.003332 0.702347
vt 2.432969 0.702347
vt 2.432970 0.798019
vt 2.436933 0.702347
vt 2.436934 0.697995
vt 1.667209 0.702347
vt 1.667209 0.697995
vt 2.003332 0.697995
vt 1.435509 0.702347
vt 1.333767 0.702347
vt 1.333767 0.697995
vt 1.435509 0.697995
vt 1.136169 0.702347
vt 1.136169 0.697995
vt 0.701656 0.702347
vt 0.701656 0.697995
vt 2.003332 0.602323
vt 2.432969 0.602323
vt 2.432970 0.697995
vt 2.436933 0.602323
vt 2.436934 0.597970
vt 1.667209 0.602323
vt 1.667209 0.597970
vt 2.003331 0.597970
vt 1.435509 0.602323
vt 1.333767 0.602323
vt 1.333767 0.597970
vt 1.435509 0.597971
vt 1.136169 0.602323
vt 1.136169 0.597970
vt 1.045995 0.602323
vt 1.045995 0.697995
vt 0.701656 0.602323
vt 0.701656 0.597970
vt 2.003332 0.502298
vt 2.432970 0.502298
vt 2.432970 0.597970
vt 2.436934 0.502298
vt 2.436934 0.497946
vt 1.667209 0.502298
vt 1.667209 0.497946
vt 2.003332 0.497946
vt 1.435509 0.502298
vt 1.333767 0.502298
vt 1.333767 0.497946
vt 1.435509 0.497946
vt 1.136169 0.502298
vt 1.136169 0.497946
vt 1.045995 0.502298
vt 1.045995 0.597970
vt 0.701656 0.502298
vt 0.701656 0.497946
vt 2.003332 0.402274
vt 2.432970 0.402274
vt 2.432970 0.497946
vt 2.436934 0.402274
vt 2.436934 0.397922
vt 1.667209 0.402274
vt 1.667209 0.397922
vt 2.003332 0.397922
vt 1.333767 0.402274
vt 1.136169 0.402274
vt 1.136169 0.397922
vt 1.333767 0.397922
vt 1.045995 0.402274
vt 1.045995 0.497946
vt 0.701656 0.402274
vt 0.701656 0.397922
vt 2.003332 0.302249
vt 2.432970 0.302249
vt 2.432970 0.397922
vt 2.436934 0.302249
vt 2.436934 0.297897
vt 1.667209 0.302249
vt 1.667209 0.297897
vt 2.003332 0.297897
vt 1.437174 0.302249
vt 1.437173 0.397922
vt 1.333767 0.302249
vt 1.136169 0.302249
vt 1.136169 0.297897
vt 1.333767 0.297897
vt 1.043589 0.302249
vt 0.701656 0.302249
vt 0.701656 0.297897
vt 1.043589 0.297897
vt 2.003332 0.202225
vt 2.432970 0.202225
vt 2.432970 0.297897
vt 2.436934 0.202225
vt 2.436934 0.197873
vt 1.667209 0.202225
vt 1.667209 0.197873
vt 2.003332 0.197873
vt 1.435509 0.202225
vt 1.333767 0.202225
vt 1.333767 0.197873
vt 1.435509 0.197873
vt 1.136169 0.202225
vt 1.136169 0.197873
vt 1.043589 0.202225
vt 0.701656 0.202225
vt 0.701656 0.197873
vt 1.043589 0.197873
vt 2.003332 0.102201
vt 2.432970 0.102201
vt 2.432970 0.197873
vt 2.436934 0.102201
vt 2.436934 0.097848
vt 1.667209 0.102201
vt 1.667209 0.097848
vt 2.003332 0.097848
vt 1.435509 0.102201
vt 1.333767 0.102201
vt 1.333767 0.097848
vt 1.435509 0.097848
vt 1.136169 0.102201
vt 1.136169 0.097848
vt 1.043589 0.102201
vt 0.701656 0.102201
vt 0.701656 0.097848
vt 1.043588 0.097848
vt 2.436934 1.802616
vt 2.436934 1.898288
vt 2.436934 1.702591
vt 2.436934 1.798264
vt 2.436934 1.602567
vt 2.436934 1.698239
vt 2.436934 1.502543
vt 2.436934 1.598215
vt 2.436933 1.402518
vt 2.436933 1.498190
vt 2.436934 1.302493
vt 2.436934 1.398166
vt 1.126472 1.102445
vt 1.125608 1.101637
vt 1.125607 1.101637
vt 1.118653 1.102445
vt 2.436934 1.202469
vt 2.436934 1.298141
vt 1.043589 0.998068
vt 1.667209 1.002420
vt 2.436934 1.102445
vt 2.436933 1.198117
vt 1.667209 0.998068
vt 2.436934 1.002420
vt 2.436934 1.098093
vt 2.001172 0.998068
vt 2.436934 0.902396
vt 2.436934 0.998068
vt 1.043589 0.702347
vt 2.436933 0.802372
vt 2.436934 0.898044
vt 1.043589 0.698786
vt 2.436933 0.702347
vt 2.436934 0.798019
vt 1.041182 0.602323
vt 1.041182 0.697995
vt 2.436933 0.602323
vt 2.436934 0.697995
vt 1.041182 0.502298
vt 1.041182 0.597970
vt 1.435509 0.402274
vt 2.436934 0.502298
vt 2.436934 0.597970
vt 1.043589 0.397922
vt 1.435509 0.398469
vt 1.437174 0.397922
vt 2.436934 0.402274
vt 2.436933 0.497946
vt 2.432970 0.302249
vt 1.435509 0.297897
vt 2.436934 0.302249
vt 2.436934 0.397922
vt 2.436934 0.202225
vt 2.436933 0.297897
vt 2.432970 0.097848
vt 0.000000 0.000000
vt 0.333442 0.000000
vt 0.701656 0.000000
vt 1.043589 0.000000
vt 1.136169 0.000000
vt 1.333767 0.000000
vt 1.435509 0.000000
vt 1.667209 0.000000
vt 2.003332 0.000000
vt 2.436934 0.000000
vt 2.436933 0.097848
vt 2.436934 1.902640
vt 2.436934 2.000488
vt 1.667209 1.898288
vt 2.436934 1.902640
vt 2.436934 1.898288
vt 2.000718 1.898288
vt 2.003332 1.899147
vt 1.133784 1.002420
vt 0.085852 0.504385
vt 0.085852 0.589365
vt 0.080352 0.589365
vt 0.080352 0.504385
vt 2.432970 0.097848
vt 2.432970 0.000000
vt 0.381868 0.541285
vt 0.554585 0.541285
vt 0.554585 0.552464
vt 0.381868 0.552465
vt 1.043589 0.401483
vt 1.045995 0.497946
vt 1.041182 0.402274
vt 1.041182 0.497946
vt 1.041182 0.402274
vt 1.045995 0.697995
vt 1.126472 1.198117
vt 2.000718 1.802616
vt 2.005945 1.898288
vt 1.437174 0.302249
vt 1.435509 0.301702
vt 1.433844 0.302249
vt 1.433844 0.397922
vt 1.435509 0.398469
vt 1.433844 0.397922
vt 1.433844 0.302249
s 0
usemtl Layered_Wood_Planks_Bare
f 287/1/1 39/2/1 42/3/1 312/4/1
f 49/5/2 2/6/2 6/7/2 70/8/2
f 57/9/3 5/10/3 8/11/3 84/12/3
f 71/13/1 7/14/1 10/15/1 98/16/1
f 85/17/1 9/18/1 12/19/1 112/20/1
f 99/21/1 11/22/1 14/23/1 126/24/1
f 113/25/1 13/26/1 16/27/1 140/28/1
f 127/29/1 15/30/1 18/31/1 154/32/1
f 141/33/4 17/34/4 20/35/4 168/36/4
f 155/37/5 19/38/5 22/39/5 181/40/5
f 169/41/1 21/42/1 24/43/1 193/44/1
f 182/45/6 23/46/6 26/47/6 205/48/6
f 194/49/1 25/50/1 28/51/1 218/52/1
f 206/53/1 27/54/1 30/55/1 232/56/1
f 219/57/1 29/58/1 32/59/1 246/60/1
f 233/61/7 31/62/7 34/63/7 260/64/7
f 247/65/8 33/66/8 36/67/8 273/68/8
f 261/69/1 35/70/1 38/71/1 286/72/1
f 274/73/1 37/74/1 40/75/1 299/76/1
f 63/77/9 543/78/9 544/79/9 64/80/9
f 77/81/10 545/82/10 546/83/10 78/84/10
f 91/85/10 547/86/10 548/87/10 92/88/10
f 105/89/11 549/90/11 550/91/11 106/92/11
f 119/93/12 551/94/12 552/95/12 120/96/12
f 133/97/10 553/98/10 554/99/10 134/100/10
f 147/101/10 555/102/10 556/103/10 148/104/10
f 161/105/13 4/106/13 557/107/13 162/108/13
f 174/109/14 558/110/14 559/111/14 175/112/14
f 187/113/15 560/114/15 561/115/15 188/116/15
f 199/117/16 562/118/16 563/119/16 200/120/16
f 212/121/10 564/122/10 565/123/10 213/124/10
f 225/125/10 566/126/10 567/127/10 226/128/10
f 239/129/10 568/130/10 569/131/10 240/132/10
f 253/133/10 570/134/10 571/135/10 254/136/10
f 266/137/17 572/138/17 573/139/17 267/140/17
f 280/141/18 574/142/18 575/143/18 281/144/18
f 292/145/10 576/146/10 577/147/10 293/148/10
f 306/149/10 578/150/10 579/151/10 307/152/10
f 300/153/19 41/154/19 3/155/19 50/156/19
f 578/150/19 306/149/19 56/157/19 504/158/19
f 306/149/19 305/159/19 55/160/19 56/157/19
f 305/159/19 304/161/19 54/162/19 55/160/19
f 304/161/19 303/163/19 53/164/19 54/162/19
f 494/165/19 302/166/19 52/167/19 459/168/19
f 302/166/19 301/169/19 51/170/19 52/167/19
f 326/171/20 57/9/20 84/12/20 333/172/20
f 301/169/19 398/173/19 324/174/19 51/170/19
f 41/154/10 300/153/10 312/4/10 42/3/10
f 398/173/21 301/169/21 457/175/21 456/176/21 400/177/21
f 494/165/21 303/163/21 310/178/21 495/179/21
f 303/163/21 304/161/21 309/180/21 310/178/21
f 304/161/21 305/159/21 308/181/21 309/180/21
f 305/159/21 306/149/21 307/152/21 308/181/21
f 39/2/10 287/1/10 299/76/10 40/75/10
f 454/182/22 453/183/22 288/184/22 297/185/22 298/186/22
f 287/1/21 394/187/21 397/188/21 299/76/21
f 395/189/23 452/190/23 454/191/23 298/186/23 396/192/23
f 492/193/21 289/194/21 296/195/21 493/196/21
f 289/194/21 290/197/21 295/198/21 296/195/21
f 290/197/21 291/199/21 294/200/21 295/198/21
f 291/199/10 292/145/10 293/148/10 294/200/10
f 37/74/10 274/73/10 286/72/10 38/71/10
f 275/201/1 391/202/1 396/192/1 298/186/1
f 274/73/10 390/203/10 393/204/10 286/72/10
f 275/201/24 276/205/24 284/206/24 285/207/24
f 490/208/21 277/209/21 283/210/21 491/211/21
f 277/209/21 278/212/21 282/213/21 283/210/21
f 278/212/21 279/214/21 411/215/21 410/216/21 282/213/21
f 35/70/25 261/69/25 273/68/25 36/67/25
f 262/217/1 387/218/1 392/219/1 285/207/1
f 261/69/26 386/220/26 389/221/26 273/68/26
f 262/217/27 263/222/27 271/223/27 272/224/27
f 488/225/21 264/226/21 270/227/21 489/228/21
f 264/226/28 265/229/28 269/230/28 270/227/28
f 266/137/29 407/231/29 409/232/29 281/144/29
f 265/229/30 406/233/30 408/234/30 268/235/30 269/230/30
f 33/66/31 247/65/31 260/64/31 34/63/31
f 248/236/32 383/237/32 388/238/32 272/224/32
f 247/65/33 382/239/33 385/240/33 260/64/33
f 248/236/34 249/241/34 258/242/34 259/243/34
f 486/244/35 250/245/35 257/246/35 487/247/35
f 250/245/21 251/248/21 256/249/21 257/246/21
f 251/248/36 252/250/36 255/251/36 256/249/36
f 252/250/37 253/133/37 254/136/37 255/251/37
f 31/62/38 233/61/38 246/60/38 32/59/38
f 234/252/1 379/253/1 384/254/1 259/243/1
f 233/61/39 378/255/39 381/256/39 246/60/39
f 234/252/40 235/257/40 244/258/40 245/259/40
f 484/260/21 236/261/21 243/262/21 485/263/21
f 236/261/41 237/264/41 242/265/41 243/262/41
f 237/264/42 238/266/42 241/267/42 242/265/42
f 238/266/43 239/129/43 240/132/43 241/267/43
f 29/58/10 219/57/10 232/56/10 30/55/10
f 220/268/1 375/269/1 380/270/1 245/259/1
f 219/57/10 374/271/10 377/272/10 232/56/10
f 220/268/44 221/273/44 230/274/44 231/275/44
f 482/276/21 222/277/21 229/278/21 483/279/21
f 222/277/45 223/280/45 228/281/45 229/278/45
f 223/280/46 224/282/46 227/283/46 228/281/46
f 224/282/21 225/125/21 226/128/21 227/283/21
f 27/54/10 206/53/10 218/52/10 28/51/10
f 207/284/47 371/285/47 376/286/47 231/275/47
f 206/53/21 370/287/21 373/288/21 218/52/21
f 207/284/48 208/289/48 216/290/48 217/291/48
f 480/292/21 209/293/21 215/294/21 481/295/21
f 209/293/49 210/296/49 445/297/49 444/298/49 215/294/49
f 211/299/10 212/121/10 213/124/10 214/300/10
f 25/50/50 194/49/50 205/48/50 26/47/50
f 195/301/1 367/302/1 372/303/1 217/291/1
f 194/49/51 366/304/51 369/305/51 205/48/51
f 195/301/52 196/306/52 203/307/52 204/308/52
f 478/309/21 197/310/21 202/311/21 479/312/21
f 316/313/53 317/314/53 319/315/53 321/313/53
f 210/296/54 211/299/54 214/300/54 443/316/54 445/297/54
f 198/317/55 199/117/55 200/120/55 201/318/55
f 23/46/56 182/45/56 193/44/56 24/43/56
f 183/319/1 363/320/1 368/321/1 204/308/1
f 182/45/57 362/322/57 365/323/57 193/44/57
f 363/320/58 183/319/58 451/324/58 450/325/58 364/326/58
f 476/327/10 185/328/10 191/329/10 477/330/10
f 186/331/59 318/332/59 315/333/59 201/318/59
f 185/328/60 313/334/60 314/335/60 190/336/60 191/329/60
f 186/331/61 187/113/61 188/116/61 189/337/61
f 21/42/62 169/41/62 181/40/62 22/39/62
f 448/338/63 447/339/63 170/340/63 179/341/63 180/342/63
f 169/41/64 358/343/64 361/344/64 181/40/64
f 359/345/65 446/346/65 448/338/65 180/342/65 360/347/65
f 474/348/66 171/349/66 178/350/66 475/351/66
f 171/349/10 172/352/10 177/353/10 178/350/10
f 423/354/67 173/355/67 176/356/67 424/357/67
f 173/355/68 174/109/68 175/112/68 176/356/68
f 19/38/69 155/37/69 168/36/69 20/35/69
f 156/358/1 355/359/1 360/347/1 180/342/1
f 155/37/70 354/360/70 357/361/70 168/36/70
f 156/358/21 157/362/21 166/363/21 167/364/21
f 472/365/21 158/366/21 165/367/21 473/368/21
f 158/366/10 159/369/10 164/370/10 165/367/10
f 421/371/71 160/372/71 163/373/71 422/374/71
f 160/372/72 161/105/72 162/108/72 163/373/72
f 17/34/73 141/33/73 154/32/73 18/31/73
f 142/375/74 351/376/74 356/377/74 167/364/74
f 141/33/75 350/378/75 353/379/75 154/32/75
f 142/375/76 143/380/76 152/381/76 153/382/76
f 470/383/77 144/384/77 151/385/77 471/386/77
f 144/384/21 145/387/21 150/388/21 151/385/21
f 146/389/78 147/101/78 148/104/78 149/390/78
f 15/30/10 127/29/10 140/28/10 16/27/10
f 128/391/79 347/392/79 352/393/79 153/382/79
f 127/29/10 346/394/10 349/395/10 140/28/10
f 128/391/80 129/396/80 138/397/80 139/398/80
f 468/399/81 130/400/81 137/401/81 469/402/81
f 130/400/21 131/403/21 136/404/21 137/401/21
f 434/405/1 131/403/1 150/388/1 438/406/1
f 132/407/82 133/97/82 134/100/82 135/408/82
f 13/26/10 113/25/10 126/24/10 14/23/10
f 114/409/1 343/410/1 348/411/1 139/398/1
f 113/25/10 342/412/10 345/413/10 126/24/10
f 114/409/83 115/414/83 124/415/83 125/416/83
f 466/417/10 116/418/10 123/419/10 467/420/10
f 116/418/10 117/421/10 122/422/10 123/419/10
f 430/423/84 117/421/84 136/404/84 435/424/84
f 118/425/85 119/93/85 120/96/85 121/426/85
f 11/22/10 99/21/10 112/20/10 12/19/10
f 100/427/86 339/428/86 344/429/86 125/416/86
f 99/21/87 338/430/87 341/431/87 112/20/87
f 100/427/88 101/432/88 110/433/88 111/434/88
f 102/435/89 103/436/89 108/437/89 109/438/89
f 426/439/1 103/436/1 122/422/1 431/440/1
f 104/441/90 105/89/90 106/92/90 107/442/90
f 9/18/10 85/17/10 98/16/10 10/15/10
f 86/443/91 335/444/91 340/445/91 111/434/91
f 85/17/92 334/446/92 337/447/92 98/16/92
f 86/443/21 87/448/21 96/449/21 97/450/21
f 496/451/93 87/448/93 110/433/93 500/452/93
f 88/453/94 89/454/94 94/455/94 95/456/94
f 417/457/95 90/458/95 93/459/95 418/460/95
f 90/458/96 91/85/96 92/88/96 93/459/96
f 7/14/97 71/13/97 84/12/97 8/11/97
f 72/461/1 331/462/1 336/463/1 97/450/1
f 71/13/98 330/464/98 333/465/98 84/12/98
f 72/461/99 73/466/99 82/467/99 83/468/99
f 462/469/100 74/470/100 81/471/100 463/472/100
f 74/470/101 75/473/101 80/474/101 81/471/101
f 415/475/102 76/476/102 79/477/102 416/478/102
f 76/476/103 77/81/103 78/84/103 79/477/103
f 5/10/104 57/9/104 70/8/104 6/7/104
f 58/479/105 327/480/105 332/481/105 83/468/105
f 57/9/106 326/482/106 329/483/106 70/8/106
f 58/479/107 59/484/107 68/485/107 69/486/107
f 460/487/10 60/488/10 67/489/10 461/490/10
f 60/488/108 61/491/108 66/492/108 67/489/108
f 413/493/109 62/494/109 65/495/109 414/496/109
f 62/494/110 63/77/110 64/80/110 65/495/110
f 574/142/1 280/141/1 293/148/1 577/147/1
f 280/141/1 279/214/1 294/200/1 293/148/1
f 279/214/1 278/212/1 295/198/1 294/200/1
f 278/212/1 277/209/1 296/195/1 295/198/1
f 490/208/111 276/205/111 297/185/111 493/196/111
f 276/205/112 275/201/112 298/186/112 297/185/112
f 394/497/1 287/1/1 312/4/1 401/498/1
f 391/202/21 275/201/21 285/207/21 392/219/21
f 572/138/113 266/137/113 281/144/113 575/143/113
f 279/214/114 280/141/114 281/144/114 409/232/114 411/215/114
f 408/234/115 407/231/115 266/137/115 267/140/115 268/235/115
f 265/229/116 264/226/116 283/210/116 282/213/116
f 488/225/1 263/222/1 284/206/1 491/211/1
f 263/222/1 262/217/1 285/207/1 284/206/1
f 390/499/1 274/73/1 299/76/1 397/500/1
f 387/218/117 262/217/117 272/224/117 388/238/117
f 570/134/1 253/133/1 267/140/1 573/139/1
f 253/133/118 252/250/118 268/235/118 267/140/118
f 252/250/119 251/248/119 269/230/119 268/235/119
f 251/248/1 250/245/1 270/227/1 269/230/1
f 486/244/120 249/241/120 271/223/120 489/228/120
f 249/241/121 248/236/121 272/224/121 271/223/121
f 386/501/1 261/69/1 286/72/1 393/502/1
f 383/237/122 248/236/122 259/243/122 384/254/122
f 568/130/1 239/129/1 254/136/1 571/135/1
f 239/129/123 238/266/123 255/251/123 254/136/123
f 238/266/124 237/264/124 256/249/124 255/251/124
f 237/264/1 236/261/1 257/246/1 256/249/1
f 484/260/1 235/257/1 258/242/1 487/247/1
f 235/257/1 234/252/1 259/243/1 258/242/1
f 382/503/125 247/65/125 273/68/125 389/504/125
f 379/253/21 234/252/21 245/259/21 380/270/21
f 566/126/1 225/125/1 240/132/1 569/131/1
f 225/125/1 224/282/1 241/267/1 240/132/1
f 224/282/126 223/280/126 242/265/126 241/267/126
f 223/280/127 222/277/127 243/262/127 242/265/127
f 482/276/128 221/273/128 244/258/128 485/263/128
f 221/273/129 220/268/129 245/259/129 244/258/129
f 378/505/130 233/61/130 260/64/130 385/506/130
f 375/269/131 220/268/131 231/275/131 376/286/131
f 564/122/1 212/121/1 226/128/1 567/127/1
f 212/121/1 211/299/1 227/283/1 226/128/1
f 211/299/1 210/296/1 228/281/1 227/283/1
f 210/296/1 209/293/1 229/278/1 228/281/1
f 480/292/1 208/289/1 230/274/1 483/279/1
f 208/289/132 207/284/132 231/275/132 230/274/132
f 374/507/1 219/57/1 246/60/1 381/508/1
f 371/285/133 207/284/133 217/291/133 372/303/133
f 562/118/1 199/117/1 213/124/1 565/123/1
f 199/117/1 198/317/1 214/300/1 213/124/1
f 197/310/134 440/509/134 442/510/134 317/314/134 316/313/134 202/311/134
f 442/511/135 441/512/135 198/317/135 201/318/135 315/333/135 317/314/135
f 478/309/136 196/306/136 216/290/136 481/295/136
f 196/306/137 195/301/137 217/291/137 216/290/137
f 370/513/1 206/53/1 232/56/1 377/514/1
f 367/302/21 195/301/21 204/308/21 368/321/21
f 560/114/138 187/113/138 200/120/138 563/119/138
f 187/113/139 186/331/139 201/318/139 200/120/139
f 198/317/140 441/512/140 443/316/140 214/300/140
f 314/335/141 318/332/141 186/331/141 189/337/141 425/515/141 190/336/141
f 476/327/1 184/516/1 203/307/1 479/312/1
f 184/516/1 183/319/1 204/308/1 203/307/1
f 366/517/1 194/49/1 218/52/1 373/518/1
f 558/110/1 174/109/1 188/116/1 561/115/1
f 174/109/142 173/355/142 189/337/142 188/116/142
f 423/354/1 172/352/1 190/336/1 425/515/1
f 172/352/1 171/349/1 191/329/1 190/336/1
f 474/348/143 170/340/143 192/519/143 477/330/143
f 446/346/144 359/345/144 364/326/144 450/325/144
f 362/520/145 182/45/145 205/48/145 369/521/145
f 183/319/10 184/516/10 192/519/10 449/522/10 451/324/10
f 4/106/146 161/105/146 175/112/146 559/111/146
f 161/105/147 160/372/147 176/356/147 175/112/147
f 421/371/1 159/369/1 177/353/1 424/357/1
f 159/369/1 158/366/1 178/350/1 177/353/1
f 472/365/1 157/362/1 179/341/1 475/351/1
f 157/362/1 156/358/1 180/342/1 179/341/1
f 358/523/1 169/41/1 193/44/1 365/524/1
f 355/359/10 156/358/10 167/364/10 356/377/10
f 555/102/1 147/101/1 162/108/1 557/107/1
f 147/101/1 146/389/1 163/373/1 162/108/1
f 420/525/1 145/387/1 164/370/1 422/374/1
f 145/387/1 144/384/1 165/367/1 164/370/1
f 470/383/148 143/380/148 166/363/148 473/368/148
f 143/380/149 142/375/149 167/364/149 166/363/149
f 354/526/150 155/37/150 181/40/150 361/527/150
f 351/376/151 142/375/151 153/382/151 352/393/151
f 553/98/1 133/97/1 148/104/1 556/103/1
f 133/97/152 132/407/152 149/390/152 148/104/152
f 145/387/21 420/525/21 439/528/21 438/406/21 150/388/21
f 131/403/1 130/400/1 151/385/1 150/388/1
f 468/399/153 129/396/153 152/381/153 471/386/153
f 129/396/154 128/391/154 153/382/154 152/381/154
f 350/529/155 141/33/155 168/36/155 357/530/155
f 347/392/156 128/391/156 139/398/156 348/411/156
f 551/94/1 119/93/1 134/100/1 554/99/1
f 119/93/1 118/425/1 135/408/1 134/100/1
f 132/407/157 433/531/157 437/532/157 149/390/157
f 117/421/1 116/418/1 137/401/1 136/404/1
f 466/417/1 115/414/1 138/397/1 469/402/1
f 115/414/1 114/409/1 139/398/1 138/397/1
f 346/533/1 127/29/1 154/32/1 353/534/1
f 343/410/158 114/409/158 125/416/158 344/429/158
f 549/90/159 105/89/159 120/96/159 552/95/159
f 105/89/160 104/441/160 121/426/160 120/96/160
f 118/425/161 429/535/161 436/536/161 135/408/161
f 103/436/1 102/435/1 123/419/1 122/422/1
f 465/537/162 101/432/162 124/415/162 467/420/162
f 101/432/163 100/427/163 125/416/163 124/415/163
f 342/538/1 113/25/1 140/28/1 349/539/1
f 339/428/164 100/427/164 111/434/164 340/445/164
f 547/86/1 91/85/1 106/92/1 550/91/1
f 91/85/1 90/458/1 107/442/1 106/92/1
f 417/457/165 89/454/165 108/437/165 419/540/165
f 89/454/166 88/453/166 109/438/166 108/437/166
f 101/432/167 465/537/167 501/541/167 500/542/167 110/433/167
f 87/448/168 86/443/168 111/434/168 110/433/168
f 338/543/1 99/21/1 126/24/1 345/544/1
f 335/545/169 86/443/169 97/450/169 336/463/169
f 545/82/1 77/81/1 92/88/1 548/87/1
f 77/81/170 76/476/170 93/459/170 92/88/170
f 415/475/1 75/473/1 94/455/1 418/460/1
f 75/473/171 74/470/171 95/456/171 94/455/171
f 462/469/172 73/466/172 96/449/172 464/546/172
f 73/466/173 72/461/173 97/450/173 96/449/173
f 334/547/174 85/17/174 112/20/174 341/548/174
f 331/462/175 72/461/175 83/468/175 332/481/175
f 543/78/1 63/77/1 78/84/1 546/83/1
f 63/77/1 62/494/1 79/477/1 78/84/1
f 413/493/1 61/491/1 80/474/1 416/478/1
f 61/491/1 60/488/1 81/471/1 80/474/1
f 460/487/176 59/484/176 82/467/176 463/472/176
f 59/484/177 58/479/177 83/468/177 82/467/177
f 330/549/1 71/13/1 98/16/1 337/550/1
f 327/480/178 58/479/178 69/486/178 328/551/178
f 1/552/179 43/553/179 64/80/179 544/79/179
f 43/553/180 44/554/180 65/495/180 64/80/180
f 412/555/181 45/556/181 66/492/181 414/496/181
f 45/556/182 46/557/182 67/489/182 66/492/182
f 458/558/19 47/559/19 68/485/19 461/490/19
f 47/559/183 48/560/183 69/486/183 68/485/183
f 322/561/184 49/5/184 70/8/184 329/562/184
f 399/563/19 300/153/19 50/156/19 325/564/19
f 576/146/1 292/145/1 307/152/1 579/151/1
f 292/145/1 291/199/1 308/181/1 307/152/1
f 291/199/1 290/197/1 309/180/1 308/181/1
f 290/197/1 289/194/1 310/178/1 309/180/1
f 492/193/1 288/184/1 311/565/1 495/179/1
f 452/190/185 395/189/185 400/177/185 456/176/185
f 300/153/10 399/566/10 401/567/10 312/4/10
f 301/169/21 302/166/21 311/565/21 455/568/21 457/569/21
f 313/334/186 185/328/186 202/311/186 316/313/186
f 318/570/187 314/335/187 313/334/187 321/313/187 319/315/187 320/333/187
f 313/334/188 316/313/188 321/313/188
f 317/314/189 315/333/189 320/333/189 319/315/189
f 315/333/190 318/332/190 320/333/190
f 399/563/191 325/564/191 324/174/191 398/173/191
f 398/173/10 400/177/10 401/567/10 399/566/10
f 395/189/10 396/192/10 397/188/10 394/187/10
f 391/202/10 392/219/10 393/204/10 390/203/10
f 387/218/10 388/238/10 389/221/10 386/220/10
f 383/237/10 384/254/10 385/240/10 382/239/10
f 379/253/10 380/270/10 381/256/10 378/255/10
f 375/269/10 376/286/10 377/272/10 374/271/10
f 371/285/10 372/303/10 373/288/10 370/287/10
f 367/302/10 368/321/10 369/305/10 366/304/10
f 363/320/10 364/326/10 365/323/10 362/322/10
f 359/345/10 360/347/10 361/344/10 358/343/10
f 355/359/10 356/377/10 357/361/10 354/360/10
f 351/376/10 352/393/10 353/379/10 350/378/10
f 347/392/10 348/411/10 349/395/10 346/394/10
f 343/410/10 344/429/10 345/413/10 342/412/10
f 339/428/192 340/445/192 341/431/192 338/430/192
f 405/444/193 336/463/193 337/550/193 404/547/193
f 331/462/10 332/481/10 333/465/10 330/464/10
f 327/480/10 328/551/10 329/483/10 326/482/10
f 390/499/1 397/500/1 396/192/1 391/202/1
f 386/501/1 393/502/1 392/219/1 387/218/1
f 382/503/1 389/504/1 388/238/1 383/237/1
f 378/505/1 385/506/1 384/254/1 379/253/1
f 374/507/1 381/508/1 380/270/1 375/269/1
f 370/513/1 377/514/1 376/286/1 371/285/1
f 366/517/1 373/518/1 372/303/1 367/302/1
f 362/520/1 369/521/1 368/321/1 363/320/1
f 358/523/1 365/524/1 364/326/1 359/345/1
f 354/526/1 361/527/1 360/347/1 355/359/1
f 350/529/1 357/530/1 356/377/1 351/376/1
f 346/533/1 353/534/1 352/393/1 347/392/1
f 342/538/1 349/539/1 348/411/1 343/410/1
f 338/543/1 345/544/1 344/429/1 339/428/1
f 340/571/194 335/572/194 405/573/194 402/574/194
f 330/549/1 337/550/1 336/463/1 331/462/1
f 326/171/1 333/172/1 332/481/1 327/480/1
f 322/561/19 329/562/19 328/575/19 323/576/19
f 394/497/1 401/498/1 400/177/1 395/189/1
f 48/560/195 323/576/195 328/575/195 69/486/195
f 404/547/1 403/548/1 402/445/1 405/444/1
f 341/431/196 340/445/196 402/445/196 403/431/196
f 334/577/197 341/578/197 403/579/197 404/580/197
f 336/463/198 405/444/198 335/545/198
f 334/547/199 404/547/199 337/550/199
f 406/233/200 407/231/200 408/234/200
f 409/232/10 410/216/10 411/215/10
f 406/233/201 410/216/201 409/232/201 407/231/201
f 406/233/202 265/229/202 282/213/202 410/216/202
f 44/554/203 412/555/203 414/496/203 65/495/203
f 62/494/1 413/493/1 416/478/1 79/477/1
f 76/476/204 415/475/204 418/460/204 93/459/204
f 90/458/1 417/457/1 419/540/1 107/442/1
f 103/436/205 426/439/205 428/581/205 419/540/205 108/437/205
f 117/421/206 430/423/206 431/582/206 122/422/206
f 131/403/207 434/405/207 435/424/207 136/404/207
f 146/389/1 420/525/1 422/374/1 163/373/1
f 160/372/208 421/371/208 424/357/208 176/356/208
f 173/355/209 423/354/209 425/515/209 189/337/209
f 61/491/210 413/493/210 414/496/210 66/492/210
f 75/473/10 415/475/10 416/478/10 80/474/10
f 89/454/211 417/457/211 418/460/211 94/455/211
f 428/581/212 427/583/212 104/441/212 107/442/212 419/540/212
f 429/535/213 118/425/213 121/426/213 432/584/213
f 433/531/214 132/407/214 135/408/214 436/536/214
f 420/525/215 146/389/215 149/390/215 437/532/215 439/528/215
f 159/369/10 421/371/10 422/374/10 164/370/10
f 172/352/10 423/354/10 424/357/10 177/353/10
f 426/439/10 427/585/10 428/581/10
f 437/532/10 438/586/10 439/528/10
f 426/439/1 431/440/1 432/584/1 427/583/1
f 430/423/216 435/424/216 436/536/216 429/535/216
f 434/405/1 438/406/1 437/532/1 433/531/1
f 429/535/217 432/584/217 431/582/217 430/423/217
f 433/531/218 436/536/218 435/424/218 434/405/218
f 104/441/219 427/583/219 432/584/219 121/426/219
f 440/509/220 441/512/220 442/511/220
f 443/316/221 444/298/221 445/297/221
f 440/509/222 444/587/222 443/316/222 441/512/222
f 440/509/223 197/310/223 215/294/223 444/587/223
f 446/346/224 447/339/224 448/338/224
f 449/522/225 450/325/225 451/324/225
f 446/346/226 450/325/226 449/522/226 447/339/226
f 170/340/227 447/339/227 449/522/227 192/519/227
f 452/190/228 453/588/228 454/182/228
f 455/568/21 456/589/21 457/175/21
f 452/190/229 456/176/229 455/568/229 453/183/229
f 288/184/230 453/183/230 455/568/230 311/565/230
f 289/194/1 492/193/1 495/179/1 310/178/1
f 46/557/19 458/558/19 461/490/19 67/489/19
f 60/488/1 460/487/1 463/472/1 81/471/1
f 74/470/231 462/469/231 464/546/231 95/456/231
f 87/448/232 496/590/232 498/591/232 464/546/232 96/449/232
f 102/435/233 465/537/233 467/420/233 123/419/233
f 116/418/1 466/417/1 469/402/1 137/401/1
f 130/400/234 468/399/234 471/386/234 151/385/234
f 144/384/235 470/383/235 473/368/235 165/367/235
f 158/366/1 472/365/1 475/351/1 178/350/1
f 171/349/236 474/348/236 477/330/236 191/329/236
f 185/328/1 476/327/1 479/312/1 202/311/1
f 197/310/1 478/309/1 481/295/1 215/294/1
f 209/293/1 480/292/1 483/279/1 229/278/1
f 222/277/1 482/276/1 485/263/1 243/262/1
f 236/261/1 484/260/1 487/247/1 257/246/1
f 250/245/237 486/244/237 489/228/237 270/227/237
f 264/226/1 488/225/1 491/211/1 283/210/1
f 277/209/1 490/208/1 493/196/1 296/195/1
f 59/484/10 460/487/10 461/490/10 68/485/10
f 73/466/238 462/469/238 463/472/238 82/467/238
f 498/591/239 497/592/239 88/453/239 95/456/239 464/546/239
f 465/537/240 102/435/240 109/438/240 499/593/240 501/594/240
f 115/414/10 466/417/10 467/420/10 124/415/10
f 129/396/241 468/399/241 469/402/241 138/397/241
f 143/380/242 470/383/242 471/386/242 152/381/242
f 157/362/21 472/365/21 473/368/21 166/363/21
f 170/340/243 474/348/243 475/351/243 179/341/243
f 184/516/10 476/327/10 477/330/10 192/519/10
f 196/306/244 478/309/244 479/312/244 203/307/244
f 208/289/245 480/292/245 481/295/245 216/290/245
f 221/273/246 482/276/246 483/279/246 230/274/246
f 235/257/247 484/260/247 485/263/247 244/258/247
f 249/241/248 486/244/248 487/247/248 258/242/248
f 263/222/21 488/225/21 489/228/21 271/223/21
f 276/205/249 490/208/249 491/211/249 284/206/249
f 288/184/250 492/193/250 493/196/250 297/185/250
f 302/166/21 494/165/21 495/179/21 311/565/21
f 303/163/19 494/165/19 459/168/19 53/164/19
f 496/451/251 497/592/251 498/591/251
f 499/595/10 500/452/10 501/541/10
f 496/451/252 500/452/252 499/595/252 497/596/252
f 88/453/253 497/596/253 499/595/253 109/438/253
f 824/1/1 576/2/1 579/3/1 849/4/1
f 586/5/2 1/6/2 544/7/2 607/8/2
f 594/9/3 543/10/3 546/11/3 621/12/3
f 608/13/1 545/14/1 548/15/1 635/16/1
f 622/17/1 547/18/1 550/19/1 649/20/1
f 636/21/1 549/22/1 552/23/1 663/24/1
f 650/25/1 551/26/1 554/27/1 677/28/1
f 664/29/1 553/30/1 556/31/1 691/32/1
f 678/33/4 555/34/4 557/35/4 705/36/4
f 692/37/5 4/38/5 559/39/5 718/40/5
f 706/41/1 558/42/1 561/43/1 730/44/1
f 719/45/6 560/46/6 563/47/6 742/48/6
f 731/49/1 562/50/1 565/51/1 755/52/1
f 743/53/1 564/54/1 567/55/1 769/56/1
f 756/57/1 566/58/1 569/59/1 783/60/1
f 770/61/7 568/62/7 571/63/7 797/64/7
f 784/65/8 570/66/8 573/67/8 810/68/8
f 798/69/1 572/70/1 575/71/1 823/72/1
f 811/73/1 574/74/1 577/75/1 836/76/1
f 600/77/9 542/78/9 541/79/9 601/80/9
f 614/81/10 540/82/10 539/83/10 615/84/10
f 628/85/10 538/86/10 537/87/10 629/88/10
f 642/89/11 536/90/11 535/91/11 643/92/11
f 656/93/12 534/94/12 533/95/12 657/96/12
f 670/97/10 532/98/10 531/99/10 671/100/10
f 684/101/10 530/102/10 529/103/10 685/104/10
f 698/105/13 528/106/13 527/107/13 699/108/13
f 711/109/14 526/110/14 525/111/14 712/112/14
f 724/113/15 524/114/15 523/115/15 725/116/15
f 736/117/16 522/118/16 521/119/16 737/120/16
f 749/121/10 520/122/10 519/123/10 750/124/10
f 762/125/10 518/126/10 517/127/10 763/128/10
f 776/129/10 516/130/10 515/131/10 777/132/10
f 790/133/10 514/134/10 513/135/10 791/136/10
f 803/137/17 512/138/17 511/139/17 804/140/17
f 817/141/18 510/142/18 509/143/18 818/144/18
f 829/145/10 508/146/10 507/147/10 830/148/10
f 843/149/10 506/150/10 505/151/10 844/152/10
f 837/153/19 578/154/19 504/155/19 587/156/19
f 506/150/19 843/149/19 593/157/19 503/158/19
f 843/149/19 842/159/19 592/160/19 593/157/19
f 842/159/19 841/161/19 591/162/19 592/160/19
f 841/161/19 840/163/19 590/164/19 591/162/19
f 1031/165/19 839/166/19 589/167/19 996/168/19
f 839/166/19 838/169/19 588/170/19 589/167/19
f 863/171/20 594/9/20 621/12/20 870/172/20
f 838/169/19 935/173/19 861/174/19 588/170/19
f 578/154/10 837/153/10 849/4/10 579/3/10
f 935/173/21 838/169/21 994/175/21 993/176/21 937/177/21
f 1031/165/21 840/163/21 847/178/21 1032/179/21
f 840/163/21 841/161/21 846/180/21 847/178/21
f 841/161/21 842/159/21 845/181/21 846/180/21
f 842/159/21 843/149/21 844/152/21 845/181/21
f 576/2/10 824/1/10 836/76/10 577/75/10
f 991/182/22 990/183/22 825/184/22 834/185/22 835/186/22
f 824/1/21 931/187/21 934/188/21 836/76/21
f 932/189/23 989/190/23 991/191/23 835/186/23 933/192/23
f 1029/193/21 826/194/21 833/195/21 1030/196/21
f 826/194/21 827/197/21 832/198/21 833/195/21
f 827/197/21 828/199/21 831/200/21 832/198/21
f 828/199/10 829/145/10 830/148/10 831/200/10
f 574/74/10 811/73/10 823/72/10 575/71/10
f 812/201/1 928/202/1 933/192/1 835/186/1
f 811/73/10 927/203/10 930/204/10 823/72/10
f 812/201/24 813/205/24 821/206/24 822/207/24
f 1027/208/21 814/209/21 820/210/21 1028/211/21
f 814/209/21 815/212/21 819/213/21 820/210/21
f 815/212/21 816/214/21 948/215/21 947/216/21 819/213/21
f 572/70/25 798/69/25 810/68/25 573/67/25
f 799/217/1 924/218/1 929/219/1 822/207/1
f 798/69/26 923/220/26 926/221/26 810/68/26
f 799/217/27 800/222/27 808/223/27 809/224/27
f 1025/225/21 801/226/21 807/227/21 1026/228/21
f 801/226/28 802/229/28 806/230/28 807/227/28
f 803/137/29 944/231/29 946/232/29 818/144/29
f 802/229/30 943/233/30 945/234/30 805/235/30 806/230/30
f 570/66/31 784/65/31 797/64/31 571/63/31
f 785/236/32 920/237/32 925/238/32 809/224/32
f 784/65/33 919/239/33 922/240/33 797/64/33
f 785/236/34 786/241/34 795/242/34 796/243/34
f 1023/244/35 787/245/35 794/246/35 1024/247/35
f 787/245/21 788/248/21 793/249/21 794/246/21
f 788/248/36 789/250/36 792/251/36 793/249/36
f 789/250/37 790/133/37 791/136/37 792/251/37
f 568/62/38 770/61/38 783/60/38 569/59/38
f 771/252/1 916/253/1 921/254/1 796/243/1
f 770/61/39 915/255/39 918/256/39 783/60/39
f 771/252/40 772/257/40 781/258/40 782/259/40
f 1021/260/21 773/261/21 780/262/21 1022/263/21
f 773/261/41 774/264/41 779/265/41 780/262/41
f 774/264/42 775/266/42 778/267/42 779/265/42
f 775/266/43 776/129/43 777/132/43 778/267/43
f 566/58/10 756/57/10 769/56/10 567/55/10
f 757/268/1 912/269/1 917/270/1 782/259/1
f 756/57/10 911/271/10 914/272/10 769/56/10
f 757/268/44 758/273/44 767/274/44 768/275/44
f 1019/276/21 759/277/21 766/278/21 1020/279/21
f 759/277/45 760/280/45 765/281/45 766/278/45
f 760/280/46 761/282/46 764/283/46 765/281/46
f 761/282/21 762/125/21 763/128/21 764/283/21
f 564/54/10 743/53/10 755/52/10 565/51/10
f 744/284/47 908/285/47 913/286/47 768/275/47
f 743/53/21 907/287/21 910/288/21 755/52/21
f 744/284/48 745/289/48 753/290/48 754/291/48
f 1017/292/21 746/293/21 752/294/21 1018/295/21
f 746/293/49 747/296/49 982/297/49 981/298/49 752/294/49
f 748/299/10 749/121/10 750/124/10 751/300/10
f 562/50/50 731/49/50 742/48/50 563/47/50
f 732/301/1 904/302/1 909/303/1 754/291/1
f 731/49/51 903/304/51 906/305/51 742/48/51
f 732/301/52 733/306/52 740/307/52 741/308/52
f 1015/309/21 734/310/21 739/311/21 1016/312/21
f 853/313/53 854/314/53 856/315/53 858/313/53
f 747/296/54 748/299/54 751/300/54 980/316/54 982/297/54
f 735/317/55 736/117/55 737/120/55 738/318/55
f 560/46/56 719/45/56 730/44/56 561/43/56
f 720/319/1 900/320/1 905/321/1 741/308/1
f 719/45/57 899/322/57 902/323/57 730/44/57
f 900/320/58 720/319/58 988/324/58 987/325/58 901/326/58
f 1013/327/10 722/328/10 728/329/10 1014/330/10
f 723/331/59 855/332/59 852/333/59 738/318/59
f 722/328/60 850/334/60 851/335/60 727/336/60 728/329/60
f 723/331/61 724/113/61 725/116/61 726/337/61
f 558/42/62 706/41/62 718/40/62 559/39/62
f 985/338/63 984/339/63 707/340/63 716/341/63 717/342/63
f 706/41/64 895/343/64 898/344/64 718/40/64
f 896/345/65 983/346/65 985/338/65 717/342/65 897/347/65
f 1011/348/66 708/349/66 715/350/66 1012/351/66
f 708/349/10 709/352/10 714/353/10 715/350/10
f 960/354/67 710/355/67 713/356/67 961/357/67
f 710/355/68 711/109/68 712/112/68 713/356/68
f 4/38/69 692/37/69 705/36/69 557/35/69
f 693/358/1 892/359/1 897/347/1 717/342/1
f 692/37/70 891/360/70 894/361/70 705/36/70
f 693/358/21 694/362/21 703/363/21 704/364/21
f 1009/365/10 695/366/10 702/367/10 1010/368/10
f 695/366/10 696/369/10 701/370/10 702/367/10
f 958/371/71 697/372/71 700/373/71 959/374/71
f 697/372/72 698/105/72 699/108/72 700/373/72
f 555/34/73 678/33/73 691/32/73 556/31/73
f 679/375/74 888/376/74 893/377/74 704/364/74
f 678/33/75 887/378/75 890/379/75 691/32/75
f 679/375/76 680/380/76 689/381/76 690/382/76
f 1007/383/77 681/384/77 688/385/77 1008/386/77
f 681/384/21 682/387/21 687/388/21 688/385/21
f 683/389/78 684/101/78 685/104/78 686/390/78
f 553/30/10 664/29/10 677/28/10 554/27/10
f 665/391/79 884/392/79 889/393/79 690/382/79
f 664/29/10 883/394/10 886/395/10 677/28/10
f 665/391/80 666/396/80 675/397/80 676/398/80
f 1005/399/81 667/400/81 674/401/81 1006/402/81
f 667/400/21 668/403/21 673/404/21 674/401/21
f 971/405/1 668/403/1 687/388/1 975/406/1
f 669/407/82 670/97/82 671/100/82 672/408/82
f 551/26/10 650/25/10 663/24/10 552/23/10
f 651/409/1 880/410/1 885/411/1 676/398/1
f 650/25/10 879/412/10 882/413/10 663/24/10
f 651/409/83 652/414/83 661/415/83 662/416/83
f 1003/417/10 653/418/10 660/419/10 1004/420/10
f 653/418/10 654/421/10 659/422/10 660/419/10
f 967/423/84 654/421/84 673/404/84 972/424/84
f 655/425/85 656/93/85 657/96/85 658/426/85
f 549/22/10 636/21/10 649/20/10 550/19/10
f 637/427/86 876/428/86 881/429/86 662/416/86
f 636/21/87 875/430/87 878/431/87 649/20/87
f 637/427/88 638/432/88 647/433/88 648/434/88
f 639/435/89 640/436/89 645/437/89 646/438/89
f 963/439/1 640/436/1 659/422/1 968/440/1
f 641/441/90 642/89/90 643/92/90 644/442/90
f 547/18/10 622/17/10 635/16/10 548/15/10
f 623/443/91 872/444/91 877/445/91 648/434/91
f 622/17/92 871/446/92 874/447/92 635/16/92
f 623/443/21 624/448/21 633/449/21 634/450/21
f 1033/451/93 624/448/93 647/433/93 1037/452/93
f 625/453/94 626/454/94 631/455/94 632/456/94
f 954/457/95 627/458/95 630/459/95 955/460/95
f 627/458/96 628/85/96 629/88/96 630/459/96
f 545/14/97 608/13/97 621/12/97 546/11/97
f 609/461/1 868/462/1 873/463/1 634/450/1
f 608/13/98 867/464/98 870/465/98 621/12/98
f 609/461/99 610/466/99 619/467/99 620/468/99
f 999/469/100 611/470/100 618/471/100 1000/472/100
f 611/470/101 612/473/101 617/474/101 618/471/101
f 952/475/102 613/476/102 616/477/102 953/478/102
f 613/476/103 614/81/103 615/84/103 616/477/103
f 543/10/104 594/9/104 607/8/104 544/7/104
f 595/479/105 864/480/105 869/481/105 620/468/105
f 594/9/106 863/482/106 866/483/106 607/8/106
f 595/479/107 596/484/107 605/485/107 606/486/107
f 997/487/10 597/488/10 604/489/10 998/490/10
f 597/488/108 598/491/108 603/492/108 604/489/108
f 950/493/109 599/494/109 602/495/109 951/496/109
f 599/494/110 600/77/110 601/80/110 602/495/110
f 510/142/1 817/141/1 830/148/1 507/147/1
f 817/141/1 816/214/1 831/200/1 830/148/1
f 816/214/1 815/212/1 832/198/1 831/200/1
f 815/212/1 814/209/1 833/195/1 832/198/1
f 1027/208/111 813/205/111 834/185/111 1030/196/111
f 813/205/112 812/201/112 835/186/112 834/185/112
f 931/497/1 824/1/1 849/4/1 938/498/1
f 928/202/21 812/201/21 822/207/21 929/219/21
f 512/138/113 803/137/113 818/144/113 509/143/113
f 816/214/114 817/141/114 818/144/114 946/232/114 948/215/114
f 945/234/115 944/231/115 803/137/115 804/140/115 805/235/115
f 802/229/116 801/226/116 820/210/116 819/213/116
f 1025/225/1 800/222/1 821/206/1 1028/211/1
f 800/222/1 799/217/1 822/207/1 821/206/1
f 927/499/1 811/73/1 836/76/1 934/500/1
f 924/218/117 799/217/117 809/224/117 925/238/117
f 514/134/1 790/133/1 804/140/1 511/139/1
f 790/133/118 789/250/118 805/235/118 804/140/118
f 789/250/119 788/248/119 806/230/119 805/235/119
f 788/248/1 787/245/1 807/227/1 806/230/1
f 1023/244/120 786/241/120 808/223/120 1026/228/120
f 786/241/121 785/236/121 809/224/121 808/223/121
f 923/501/1 798/69/1 823/72/1 930/502/1
f 920/237/122 785/236/122 796/243/122 921/254/122
f 516/130/1 776/129/1 791/136/1 513/135/1
f 776/129/123 775/266/123 792/251/123 791/136/123
f 775/266/124 774/264/124 793/249/124 792/251/124
f 774/264/1 773/261/1 794/246/1 793/249/1
f 1021/260/1 772/257/1 795/242/1 1024/247/1
f 772/257/1 771/252/1 796/243/1 795/242/1
f 919/503/125 784/65/125 810/68/125 926/504/125
f 916/253/21 771/252/21 782/259/21 917/270/21
f 518/126/1 762/125/1 777/132/1 515/131/1
f 762/125/1 761/282/1 778/267/1 777/132/1
f 761/282/126 760/280/126 779/265/126 778/267/126
f 760/280/127 759/277/127 780/262/127 779/265/127
f 1019/276/128 758/273/128 781/258/128 1022/263/128
f 758/273/129 757/268/129 782/259/129 781/258/129
f 915/505/130 770/61/130 797/64/130 922/506/130
f 912/269/131 757/268/131 768/275/131 913/286/131
f 520/122/1 749/121/1 763/128/1 517/127/1
f 749/121/1 748/299/1 764/283/1 763/128/1
f 748/299/1 747/296/1 765/281/1 764/283/1
f 747/296/1 746/293/1 766/278/1 765/281/1
f 1017/292/1 745/289/1 767/274/1 1020/279/1
f 745/289/132 744/284/132 768/275/132 767/274/132
f 911/507/1 756/57/1 783/60/1 918/508/1
f 908/285/133 744/284/133 754/291/133 909/303/133
f 522/118/1 736/117/1 750/124/1 519/123/1
f 736/117/1 735/317/1 751/300/1 750/124/1
f 734/310/134 977/509/134 979/510/134 854/314/134 853/313/134 739/311/134
f 979/511/135 978/512/135 735/317/135 738/318/135 852/333/135 854/314/135
f 1015/309/136 733/306/136 753/290/136 1018/295/136
f 733/306/137 732/301/137 754/291/137 753/290/137
f 907/513/1 743/53/1 769/56/1 914/514/1
f 904/302/21 732/301/21 741/308/21 905/321/21
f 524/114/138 724/113/138 737/120/138 521/119/138
f 724/113/139 723/331/139 738/318/139 737/120/139
f 735/317/140 978/512/140 980/316/140 751/300/140
f 851/335/141 855/332/141 723/331/141 726/337/141 962/515/141 727/336/141
f 1013/327/1 721/516/1 740/307/1 1016/312/1
f 721/516/1 720/319/1 741/308/1 740/307/1
f 903/517/1 731/49/1 755/52/1 910/518/1
f 526/110/1 711/109/1 725/116/1 523/115/1
f 711/109/142 710/355/142 726/337/142 725/116/142
f 960/354/1 709/352/1 727/336/1 962/515/1
f 709/352/1 708/349/1 728/329/1 727/336/1
f 1011/348/143 707/340/143 729/519/143 1014/330/143
f 983/346/144 896/345/144 901/326/144 987/325/144
f 899/520/145 719/45/145 742/48/145 906/521/145
f 720/319/10 721/516/10 729/519/10 986/522/10 988/324/10
f 528/106/146 698/105/146 712/112/146 525/111/146
f 698/105/147 697/372/147 713/356/147 712/112/147
f 958/371/1 696/369/1 714/353/1 961/357/1
f 696/369/1 695/366/1 715/350/1 714/353/1
f 1009/365/1 694/362/1 716/341/1 1012/351/1
f 694/362/1 693/358/1 717/342/1 716/341/1
f 895/523/1 706/41/1 730/44/1 902/524/1
f 892/359/21 693/358/21 704/364/21 893/377/21
f 530/102/1 684/101/1 699/108/1 527/107/1
f 684/101/1 683/389/1 700/373/1 699/108/1
f 957/525/1 682/387/1 701/370/1 959/374/1
f 682/387/1 681/384/1 702/367/1 701/370/1
f 1007/383/148 680/380/148 703/363/148 1010/368/148
f 680/380/149 679/375/149 704/364/149 703/363/149
f 891/526/150 692/37/150 718/40/150 898/527/150
f 888/376/151 679/375/151 690/382/151 889/393/151
f 532/98/1 670/97/1 685/104/1 529/103/1
f 670/97/152 669/407/152 686/390/152 685/104/152
f 682/387/21 957/525/21 976/528/21 975/406/21 687/388/21
f 668/403/1 667/400/1 688/385/1 687/388/1
f 1005/399/153 666/396/153 689/381/153 1008/386/153
f 666/396/154 665/391/154 690/382/154 689/381/154
f 887/529/155 678/33/155 705/36/155 894/530/155
f 884/392/156 665/391/156 676/398/156 885/411/156
f 534/94/1 656/93/1 671/100/1 531/99/1
f 656/93/1 655/425/1 672/408/1 671/100/1
f 669/407/157 970/531/157 974/532/157 686/390/157
f 654/421/1 653/418/1 674/401/1 673/404/1
f 1003/417/1 652/414/1 675/397/1 1006/402/1
f 652/414/1 651/409/1 676/398/1 675/397/1
f 883/533/1 664/29/1 691/32/1 890/534/1
f 880/410/158 651/409/158 662/416/158 881/429/158
f 536/90/159 642/89/159 657/96/159 533/95/159
f 642/89/160 641/441/160 658/426/160 657/96/160
f 655/425/161 966/535/161 973/536/161 672/408/161
f 640/436/1 639/435/1 660/419/1 659/422/1
f 1002/537/162 638/432/162 661/415/162 1004/420/162
f 638/432/163 637/427/163 662/416/163 661/415/163
f 879/538/1 650/25/1 677/28/1 886/539/1
f 876/428/164 637/427/164 648/434/164 877/445/164
f 538/86/1 628/85/1 643/92/1 535/91/1
f 628/85/1 627/458/1 644/442/1 643/92/1
f 954/457/165 626/454/165 645/437/165 956/540/165
f 626/454/166 625/453/166 646/438/166 645/437/166
f 638/432/167 1002/537/167 1038/541/167 1037/542/167 647/433/167
f 624/448/168 623/443/168 648/434/168 647/433/168
f 875/543/1 636/21/1 663/24/1 882/544/1
f 872/545/169 623/443/169 634/450/169 873/463/169
f 540/82/1 614/81/1 629/88/1 537/87/1
f 614/81/170 613/476/170 630/459/170 629/88/170
f 952/475/1 612/473/1 631/455/1 955/460/1
f 612/473/171 611/470/171 632/456/171 631/455/171
f 999/469/172 610/466/172 633/449/172 1001/546/172
f 610/466/173 609/461/173 634/450/173 633/449/173
f 871/547/174 622/17/174 649/20/174 878/548/174
f 868/462/175 609/461/175 620/468/175 869/481/175
f 542/78/1 600/77/1 615/84/1 539/83/1
f 600/77/1 599/494/1 616/477/1 615/84/1
f 950/493/1 598/491/1 617/474/1 953/478/1
f 598/491/1 597/488/1 618/471/1 617/474/1
f 997/487/176 596/484/176 619/467/176 1000/472/176
f 596/484/177 595/479/177 620/468/177 619/467/177
f 867/549/1 608/13/1 635/16/1 874/550/1
f 864/480/178 595/479/178 606/486/178 865/551/178
f 502/552/179 580/553/179 601/80/179 541/79/179
f 580/553/180 581/554/180 602/495/180 601/80/180
f 949/555/181 582/556/181 603/492/181 951/496/181
f 582/556/182 583/557/182 604/489/182 603/492/182
f 995/558/19 584/559/19 605/485/19 998/490/19
f 584/559/183 585/560/183 606/486/183 605/485/183
f 859/561/184 586/5/184 607/8/184 866/562/184
f 936/563/19 837/153/19 587/156/19 862/564/19
f 508/146/1 829/145/1 844/152/1 505/151/1
f 829/145/1 828/199/1 845/181/1 844/152/1
f 828/199/1 827/197/1 846/180/1 845/181/1
f 827/197/1 826/194/1 847/178/1 846/180/1
f 1029/193/1 825/184/1 848/565/1 1032/179/1
f 989/190/185 932/189/185 937/177/185 993/176/185
f 837/153/10 936/566/10 938/567/10 849/4/10
f 838/169/21 839/166/21 848/565/21 992/568/21 994/569/21
f 850/334/186 722/328/186 739/311/186 853/313/186
f 855/570/254 851/335/254 850/334/254 858/313/254 856/315/254 857/333/254
f 850/334/188 853/313/188 858/313/188
f 854/314/189 852/333/189 857/333/189 856/315/189
f 852/333/255 855/332/255 857/333/255
f 936/563/191 862/564/191 861/174/191 935/173/191
f 935/173/21 937/177/21 938/567/21 936/566/21
f 932/189/21 933/192/21 934/188/21 931/187/21
f 928/202/21 929/219/21 930/204/21 927/203/21
f 924/218/21 925/238/21 926/221/21 923/220/21
f 920/237/21 921/254/21 922/240/21 919/239/21
f 916/253/21 917/270/21 918/256/21 915/255/21
f 912/269/21 913/286/21 914/272/21 911/271/21
f 908/285/21 909/303/21 910/288/21 907/287/21
f 904/302/21 905/321/21 906/305/21 903/304/21
f 900/320/10 901/326/10 902/323/10 899/322/10
f 896/345/10 897/347/10 898/344/10 895/343/10
f 892/359/10 893/377/10 894/361/10 891/360/10
f 888/376/10 889/393/10 890/379/10 887/378/10
f 884/392/10 885/411/10 886/395/10 883/394/10
f 880/410/10 881/429/10 882/413/10 879/412/10
f 876/428/192 877/445/192 878/431/192 875/430/192
f 942/444/193 873/463/193 874/550/193 941/547/193
f 868/462/10 869/481/10 870/465/10 867/464/10
f 864/480/10 865/551/10 866/483/10 863/482/10
f 927/499/1 934/500/1 933/192/1 928/202/1
f 923/501/1 930/502/1 929/219/1 924/218/1
f 919/503/1 926/504/1 925/238/1 920/237/1
f 915/505/1 922/506/1 921/254/1 916/253/1
f 911/507/1 918/508/1 917/270/1 912/269/1
f 907/513/1 914/514/1 913/286/1 908/285/1
f 903/517/1 910/518/1 909/303/1 904/302/1
f 899/520/1 906/521/1 905/321/1 900/320/1
f 895/523/1 902/524/1 901/326/1 896/345/1
f 891/526/1 898/527/1 897/347/1 892/359/1
f 887/529/1 894/530/1 893/377/1 888/376/1
f 883/533/1 890/534/1 889/393/1 884/392/1
f 879/538/1 886/539/1 885/411/1 880/410/1
f 875/543/1 882/544/1 881/429/1 876/428/1
f 877/571/256 872/572/256 942/573/256 939/574/256
f 867/549/1 874/550/1 873/463/1 868/462/1
f 863/171/1 870/172/1 869/481/1 864/480/1
f 859/561/19 866/562/19 865/575/19 860/576/19
f 931/497/1 938/498/1 937/177/1 932/189/1
f 585/560/195 860/576/195 865/575/195 606/486/195
f 941/547/1 940/548/1 939/445/1 942/444/1
f 878/431/196 877/445/196 939/445/196 940/431/196
f 871/577/257 878/578/257 940/579/257 941/580/257
f 873/463/258 942/444/258 872/545/258
f 871/547/259 941/547/259 874/550/259
f 943/233/200 944/231/200 945/234/200
f 946/232/21 947/216/21 948/215/21
f 943/233/260 947/216/260 946/232/260 944/231/260
f 943/233/202 802/229/202 819/213/202 947/216/202
f 581/554/203 949/555/203 951/496/203 602/495/203
f 599/494/1 950/493/1 953/478/1 616/477/1
f 613/476/204 952/475/204 955/460/204 630/459/204
f 627/458/1 954/457/1 956/540/1 644/442/1
f 640/436/205 963/439/205 965/581/205 956/540/205 645/437/205
f 654/421/206 967/423/206 968/582/206 659/422/206
f 668/403/207 971/405/207 972/424/207 673/404/207
f 683/389/1 957/525/1 959/374/1 700/373/1
f 697/372/208 958/371/208 961/357/208 713/356/208
f 710/355/209 960/354/209 962/515/209 726/337/209
f 598/491/210 950/493/210 951/496/210 603/492/210
f 612/473/10 952/475/10 953/478/10 617/474/10
f 626/454/211 954/457/211 955/460/211 631/455/211
f 965/581/212 964/583/212 641/441/212 644/442/212 956/540/212
f 966/535/213 655/425/213 658/426/213 969/584/213
f 970/531/214 669/407/214 672/408/214 973/536/214
f 957/525/215 683/389/215 686/390/215 974/532/215 976/528/215
f 696/369/10 958/371/10 959/374/10 701/370/10
f 709/352/10 960/354/10 961/357/10 714/353/10
f 963/439/10 964/585/10 965/581/10
f 974/532/10 975/586/10 976/528/10
f 963/439/1 968/440/1 969/584/1 964/583/1
f 967/423/216 972/424/216 973/536/216 966/535/216
f 971/405/1 975/406/1 974/532/1 970/531/1
f 966/535/261 969/584/261 968/582/261 967/423/261
f 970/531/262 973/536/262 972/424/262 971/405/262
f 641/441/219 964/583/219 969/584/219 658/426/219
f 977/509/263 978/512/263 979/511/263
f 980/316/264 981/298/264 982/297/264
f 977/509/265 981/587/265 980/316/265 978/512/265
f 977/509/223 734/310/223 752/294/223 981/587/223
f 983/346/224 984/339/224 985/338/224
f 986/522/225 987/325/225 988/324/225
f 983/346/266 987/325/266 986/522/266 984/339/266
f 707/340/227 984/339/227 986/522/227 729/519/227
f 989/190/228 990/588/228 991/182/228
f 992/568/21 993/589/21 994/175/21
f 989/190/267 993/176/267 992/568/267 990/183/267
f 825/184/230 990/183/230 992/568/230 848/565/230
f 826/194/1 1029/193/1 1032/179/1 847/178/1
f 583/557/19 995/558/19 998/490/19 604/489/19
f 597/488/1 997/487/1 1000/472/1 618/471/1
f 611/470/231 999/469/231 1001/546/231 632/456/231
f 624/448/232 1033/590/232 1035/591/232 1001/546/232 633/449/232
f 639/435/233 1002/537/233 1004/420/233 660/419/233
f 653/418/1 1003/417/1 1006/402/1 674/401/1
f 667/400/234 1005/399/234 1008/386/234 688/385/234
f 681/384/235 1007/383/235 1010/368/235 702/367/235
f 695/366/1 1009/365/1 1012/351/1 715/350/1
f 708/349/236 1011/348/236 1014/330/236 728/329/236
f 722/328/1 1013/327/1 1016/312/1 739/311/1
f 734/310/1 1015/309/1 1018/295/1 752/294/1
f 746/293/1 1017/292/1 1020/279/1 766/278/1
f 759/277/1 1019/276/1 1022/263/1 780/262/1
f 773/261/1 1021/260/1 1024/247/1 794/246/1
f 787/245/237 1023/244/237 1026/228/237 807/227/237
f 801/226/1 1025/225/1 1028/211/1 820/210/1
f 814/209/1 1027/208/1 1030/196/1 833/195/1
f 596/484/10 997/487/10 998/490/10 605/485/10
f 610/466/238 999/469/238 1000/472/238 619/467/238
f 1035/591/239 1034/592/239 625/453/239 632/456/239 1001/546/239
f 1002/537/240 639/435/240 646/438/240 1036/593/240 1038/594/240
f 652/414/10 1003/417/10 1004/420/10 661/415/10
f 666/396/241 1005/399/241 1006/402/241 675/397/241
f 680/380/242 1007/383/242 1008/386/242 689/381/242
f 694/362/21 1009/365/21 1010/368/21 703/363/21
f 707/340/243 1011/348/243 1012/351/243 716/341/243
f 721/516/10 1013/327/10 1014/330/10 729/519/10
f 733/306/244 1015/309/244 1016/312/244 740/307/244
f 745/289/245 1017/292/245 1018/295/245 753/290/245
f 758/273/246 1019/276/246 1020/279/246 767/274/246
f 772/257/247 1021/260/247 1022/263/247 781/258/247
f 786/241/248 1023/244/248 1024/247/248 795/242/248
f 800/222/21 1025/225/21 1026/228/21 808/223/21
f 813/205/249 1027/208/249 1028/211/249 821/206/249
f 825/184/250 1029/193/250 1030/196/250 834/185/250
f 839/166/21 1031/165/21 1032/179/21 848/565/21
f 840/163/19 1031/165/19 996/168/19 590/164/19
f 1033/451/268 1034/592/268 1035/591/268
f 1036/595/10 1037/452/10 1038/541/10
f 1033/451/269 1037/452/269 1036/595/269 1034/596/269
f 625/453/253 1034/596/253 1036/595/253 646/438/253
