# Blender 5.2.0 LTS
# www.blender.org
mtllib 4.mtl
o Plain_Wall_Short
v 2.700000 0.000000 -6.975000
v 8.700000 0.000000 -6.975000
v 2.700000 4.000000 -7.000000
v 8.700000 4.000000 -7.000000
v 2.700000 3.795649 -7.000000
v 2.700000 3.804351 -6.975000
v 2.700000 3.595649 -7.000000
v 2.700000 3.604351 -6.975000
v 2.700000 3.395649 -7.000000
v 2.700000 3.404351 -6.975000
v 2.700000 3.195649 -7.000000
v 2.700000 3.204351 -6.975000
v 2.700000 2.995649 -7.000000
v 2.700000 3.004351 -6.975000
v 2.700000 2.795649 -7.000000
v 2.700000 2.804351 -6.975000
v 2.700000 2.595649 -7.000000
v 2.700000 2.604351 -6.975000
v 2.700000 2.395648 -7.000000
v 2.700000 2.404351 -6.975000
v 2.700000 2.195648 -7.000000
v 2.700000 2.204351 -6.975000
v 2.700000 1.995649 -7.000000
v 2.700000 2.004351 -6.975000
v 2.700000 1.795649 -7.000000
v 2.700000 1.804351 -6.975000
v 2.700000 1.595649 -7.000000
v 2.700000 1.604351 -6.975000
v 2.700000 1.395649 -7.000000
v 2.700000 1.404351 -6.975000
v 2.700000 1.195649 -7.000000
v 2.700000 1.204351 -6.975000
v 2.700000 0.995649 -7.000000
v 2.700000 1.004351 -6.975000
v 2.700000 0.795649 -7.000000
v 2.700000 0.804351 -6.975000
v 2.700000 0.595649 -7.000000
v 2.700000 0.604351 -6.975000
v 2.700000 0.395649 -7.000000
v 2.700000 0.404351 -6.975000
v 2.700000 0.195649 -7.000000
v 2.700000 0.204351 -6.975000
v 8.700000 0.204351 -6.975000
v 8.700000 0.195649 -7.000000
v 8.700000 0.404351 -6.975000
v 8.700000 0.395649 -7.000000
v 8.700000 0.604351 -6.975000
v 8.700000 0.595649 -7.000000
v 8.700000 0.804351 -6.975000
v 8.700000 0.795649 -7.000000
v 8.700000 1.004351 -6.975000
v 8.700000 0.995649 -7.000000
v 8.700000 1.204351 -6.975000
v 8.700000 1.195649 -7.000000
v 8.700000 1.404351 -6.975000
v 8.700000 1.395649 -7.000000
v 8.700000 1.604351 -6.975000
v 8.700000 1.595649 -7.000000
v 8.700000 1.804351 -6.975000
v 8.700000 1.795649 -7.000000
v 8.700000 2.004351 -6.975000
v 8.700000 1.995649 -7.000000
v 8.700000 2.204351 -6.975000
v 8.700000 2.195649 -7.000000
v 8.700000 2.404351 -6.975000
v 8.700000 2.395649 -7.000000
v 8.700000 2.604352 -6.975000
v 8.700000 2.595649 -7.000000
v 8.700000 2.804352 -6.975000
v 8.700000 2.795649 -7.000000
v 8.700000 3.004352 -6.975000
v 8.700000 2.995649 -7.000000
v 8.700000 3.204351 -6.975000
v 8.700000 3.195649 -7.000000
v 8.700000 3.404351 -6.975000
v 8.700000 3.395649 -7.000000
v 8.700000 3.604351 -6.975000
v 8.700000 3.595649 -7.000000
v 8.700000 3.804351 -6.975000
v 8.700000 3.795649 -7.000000
v 3.366667 0.000000 -6.975000
v 4.102855 0.000000 -6.975000
v 4.972888 0.003011 -6.972178
v 5.366667 0.000000 -6.975000
v 6.033334 0.000000 -6.975000
v 6.696859 -0.003955 -6.988649
v 8.038020 0.004679 -6.966694
v 8.033334 4.000000 -7.000000
v 6.705360 4.000000 -7.000000
v 6.033333 4.000000 -7.000000
v 5.366667 4.000000 -7.000000
v 4.944395 4.000000 -7.000000
v 4.102855 4.000000 -7.000000
v 3.366667 4.000000 -7.000000
v 8.029189 0.198292 -6.986388
v 6.705360 0.204351 -6.975000
v 6.033333 0.204351 -6.975000
v 5.366667 0.204351 -6.975000
v 4.971599 0.204351 -6.975000
v 4.102855 0.204351 -6.975000
v 3.366667 0.204351 -6.975000
v 3.368012 0.188379 -7.021975
v 4.104200 0.188379 -7.021975
v 4.972888 0.198659 -6.997178
v 5.366667 0.195649 -7.000000
v 6.033334 0.195649 -7.000000
v 6.696859 0.191694 -7.013649
v 8.038020 0.200328 -6.991694
v 8.033334 0.404351 -6.975000
v 6.705360 0.404351 -6.975000
v 6.031594 0.404351 -6.968772
v 5.357279 0.404351 -6.988709
v 4.971599 0.404351 -6.975000
v 4.107706 0.404351 -6.988328
v 3.366667 0.404351 -6.975000
v 3.366667 0.395649 -7.000000
v 4.102855 0.395649 -7.000000
v 4.971599 0.395649 -7.000000
v 5.366667 0.395649 -7.000000
v 6.032548 0.395649 -6.997188
v 6.704575 0.395649 -6.997188
v 8.029188 0.389590 -7.011388
v 8.033334 0.604351 -6.975000
v 6.705345 0.604347 -6.975023
v 6.033333 0.604351 -6.975000
v 5.372295 0.603751 -6.986409
v 4.975286 0.603537 -6.982796
v 4.102855 0.604351 -6.975000
v 3.366667 0.604351 -6.975000
v 3.366667 0.595649 -7.000000
v 4.107706 0.595649 -7.013327
v 4.971599 0.595649 -7.000000
v 5.357280 0.595649 -7.013710
v 6.033334 0.595649 -7.000000
v 6.705359 0.595649 -7.000000
v 8.033333 0.595649 -7.000000
v 8.033334 0.804351 -6.975000
v 6.712363 0.804351 -6.965870
v 6.032351 0.807204 -6.964749
v 5.366667 0.804351 -6.975000
v 4.971599 0.804351 -6.975000
v 4.099604 0.804351 -6.966069
v 3.380430 0.797663 -6.956987
v 3.366667 0.795649 -7.000000
v 4.102855 0.795649 -7.000000
v 4.975287 0.794835 -7.007796
v 5.372295 0.795048 -7.011409
v 6.033334 0.795649 -7.000000
v 6.706907 0.795649 -7.005541
v 8.033333 0.795649 -7.000000
v 8.033334 1.004351 -6.975000
v 6.705360 1.004351 -6.975000
v 6.033333 1.004351 -6.975000
v 5.366667 1.004351 -6.975000
v 4.971599 1.004351 -6.975000
v 4.102855 1.004351 -6.975000
v 3.366667 1.004351 -6.975000
v 3.380430 0.988960 -6.981987
v 4.099604 0.995649 -6.991069
v 4.971599 0.995649 -7.000000
v 5.366667 0.995649 -7.000000
v 6.033334 0.995649 -7.000000
v 6.710815 0.995649 -6.985329
v 8.033333 0.995649 -7.000000
v 8.033334 1.204351 -6.975000
v 6.700037 1.193910 -6.989732
v 6.030810 1.201375 -6.962200
v 5.366667 1.204351 -6.975000
v 4.971599 1.204351 -6.975000
v 4.107756 1.204351 -6.988466
v 3.366667 1.204351 -6.975000
v 3.366667 1.195649 -7.000000
v 4.102855 1.195649 -7.000000
v 4.971599 1.195649 -7.000000
v 5.366667 1.195649 -7.000000
v 6.033334 1.195649 -7.000000
v 6.705359 1.195649 -7.000000
v 8.033333 1.195649 -7.000000
v 8.026906 1.410421 -6.992040
v 6.708626 1.406968 -6.980523
v 6.033333 1.404351 -6.975000
v 5.366667 1.404351 -6.975000
v 4.971599 1.404351 -6.975000
v 4.102855 1.404351 -6.975000
v 3.366667 1.404351 -6.975000
v 3.366667 1.395649 -7.000000
v 4.107757 1.395649 -7.013466
v 4.971599 1.395649 -7.000000
v 5.366667 1.395649 -7.000000
v 6.035473 1.395649 -6.996876
v 6.703302 1.387823 -7.020255
v 8.033333 1.395649 -7.000000
v 8.026983 1.604351 -6.992075
v 6.705360 1.604351 -6.975000
v 6.033333 1.604351 -6.975000
v 5.366667 1.604351 -6.975000
v 4.971599 1.604351 -6.975000
v 4.101292 1.604351 -6.977282
v 3.360680 1.599706 -6.985193
v 3.366667 1.595649 -7.000000
v 4.102855 1.595649 -7.000000
v 4.971599 1.595649 -7.000000
v 5.366667 1.595649 -7.000000
v 6.033334 1.595649 -7.000000
v 6.705359 1.595649 -7.000000
v 8.026905 1.601719 -7.017040
v 8.033334 1.804351 -6.975000
v 6.032282 1.807404 -6.964031
v 5.366667 1.804351 -6.975000
v 4.971599 1.804351 -6.975000
v 4.107921 1.797219 -6.961664
v 3.366667 1.804351 -6.975000
v 3.360680 1.791003 -7.010193
v 4.101292 1.795649 -7.002282
v 4.971599 1.795649 -7.000000
v 5.366667 1.795649 -7.000000
v 6.033334 1.795649 -7.000000
v 6.705359 1.795649 -7.000000
v 8.026983 1.795649 -7.017075
v 8.035372 2.010427 -6.969275
v 6.705360 2.004351 -6.975000
v 6.033333 2.004351 -6.975000
v 5.366667 2.004351 -6.975000
v 4.102312 2.004478 -6.975708
v 3.364506 2.004351 -6.980809
v 3.366667 1.995649 -7.000000
v 4.107921 1.988517 -6.986663
v 4.971599 1.995649 -7.000000
v 5.366667 1.995649 -7.000000
v 6.033334 1.995649 -7.000000
v 8.033333 1.995649 -7.000000
v 8.033334 2.204351 -6.975000
v 6.705360 2.204351 -6.975000
v 6.035187 2.197164 -6.982006
v 5.366667 2.204351 -6.975000
v 4.102855 2.204351 -6.975000
v 3.366667 2.204351 -6.975000
v 3.364507 2.195648 -7.005808
v 4.102244 2.195905 -6.999995
v 5.366667 2.195649 -7.000000
v 6.033334 2.195649 -7.000000
v 6.705359 2.195649 -7.000000
v 8.035372 2.201725 -6.994275
v 8.033334 2.404351 -6.975000
v 6.708940 2.409584 -6.965166
v 6.033333 2.404351 -6.975000
v 5.366667 2.404351 -6.975000
v 4.944395 2.404351 -6.975000
v 4.102855 2.404351 -6.975000
v 3.366667 2.404351 -6.975000
v 3.366667 2.395648 -7.000000
v 4.102855 2.395648 -7.000000
v 5.366667 2.395648 -7.000000
v 6.035188 2.388461 -7.007006
v 6.705359 2.395649 -7.000000
v 8.033333 2.395649 -7.000000
v 8.033334 2.604352 -6.975000
v 6.705360 2.604352 -6.975000
v 6.030848 2.604352 -6.968172
v 5.366667 2.604351 -6.975000
v 4.941066 2.600042 -6.967001
v 4.102855 2.604351 -6.975000
v 3.366667 2.604351 -6.975000
v 3.366667 2.595649 -7.000000
v 4.102855 2.595649 -7.000000
v 4.944395 2.595649 -7.000000
v 5.366667 2.595649 -7.000000
v 6.033334 2.595649 -7.000000
v 6.708940 2.600881 -6.990165
v 8.033333 2.595649 -7.000000
v 8.039616 2.810435 -6.957863
v 6.705360 2.804352 -6.975000
v 6.033333 2.804351 -6.975000
v 5.366667 2.804351 -6.975000
v 4.944395 2.804351 -6.975000
v 4.105301 2.807927 -6.968279
v 3.366667 2.804351 -6.975000
v 3.366667 2.795649 -7.000000
v 4.102855 2.795649 -7.000000
v 4.941066 2.791339 -6.992002
v 5.366667 2.795649 -7.000000
v 6.030848 2.795649 -6.993171
v 6.705359 2.795649 -7.000000
v 8.033333 2.795649 -7.000000
v 8.031292 2.998266 -6.980734
v 6.696161 3.009589 -6.999524
v 6.033333 3.004352 -6.975000
v 5.366667 3.004351 -6.975000
v 4.944395 3.004351 -6.975000
v 4.103271 3.009210 -6.974849
v 3.366667 3.004351 -6.975000
v 3.366667 2.995649 -7.000000
v 4.105301 2.999224 -6.993279
v 4.944395 2.995649 -7.000000
v 5.366667 2.995649 -7.000000
v 6.033334 2.995649 -7.000000
v 6.705359 2.995649 -7.000000
v 8.039616 3.001733 -6.982863
v 8.033334 3.204351 -6.975000
v 6.705360 3.204351 -6.975000
v 6.033333 3.204351 -6.975000
v 5.366667 3.204351 -6.975000
v 4.944643 3.204351 -6.975740
v 3.361246 3.204351 -6.989575
v 3.366667 3.195649 -7.000000
v 4.102855 3.195649 -7.000000
v 4.944395 3.195649 -7.000000
v 5.366667 3.195649 -7.000000
v 6.033334 3.195649 -7.000000
v 6.696161 3.200886 -7.024524
v 8.031291 3.189564 -7.005733
v 8.033334 3.404351 -6.975000
v 6.705360 3.404351 -6.975000
v 6.029978 3.404351 -6.984023
v 5.366667 3.404351 -6.975000
v 4.944395 3.404351 -6.975000
v 4.102855 3.404351 -6.975000
v 3.366667 3.404351 -6.975000
v 3.361247 3.395649 -7.014575
v 4.944643 3.395649 -7.000000
v 5.366667 3.395649 -7.000000
v 6.033334 3.395649 -7.000000
v 6.705359 3.395649 -7.000000
v 8.033333 3.395649 -7.000000
v 8.033334 3.604351 -6.975000
v 6.033333 3.604351 -6.975000
v 5.366667 3.604351 -6.975000
v 4.944395 3.604351 -6.975000
v 4.102855 3.604351 -6.975000
v 3.366667 3.604351 -6.975000
v 3.366667 3.595649 -7.000000
v 4.102855 3.595649 -7.000000
v 4.944395 3.595649 -7.000000
v 5.366667 3.595649 -7.000000
v 6.029978 3.595649 -7.009023
v 6.705359 3.595649 -7.000000
v 8.033333 3.595649 -7.000000
v 8.033334 3.804351 -6.975000
v 6.705360 3.804351 -6.975000
v 6.033333 3.804351 -6.975000
v 5.366667 3.804351 -6.975000
v 4.944395 3.804351 -6.975000
v 4.102855 3.804351 -6.975000
v 3.366667 3.804351 -6.975000
v 3.366667 3.795649 -7.000000
v 4.102855 3.795649 -7.000000
v 4.944395 3.795649 -7.000000
v 5.366667 3.795649 -7.000000
v 6.033334 3.795649 -7.000000
v 8.033333 3.795649 -7.000000
v 4.975492 2.013803 -6.970561
v 4.971599 2.002853 -6.987863
v 4.963359 2.199113 -6.999927
v 4.976367 2.195648 -7.000000
v 4.971341 2.197275 -6.995636
v 4.964272 2.006070 -6.984558
v 4.971450 2.197236 -7.003998
v 4.966831 2.195718 -7.008360
v 4.976367 2.195718 -7.008360
v 7.572282 0.000000 -6.975000
v 7.564357 0.000000 -6.975000
v 7.564357 4.000000 -7.000000
v 7.572282 4.000000 -7.000000
v 7.572282 0.204351 -6.975000
v 7.564357 0.204351 -6.975000
v 7.564357 0.195649 -7.000000
v 7.572282 0.195649 -7.000000
v 7.572282 0.404351 -6.975000
v 7.564357 0.404351 -6.975000
v 7.564357 0.395649 -7.000000
v 7.572282 0.395649 -7.000000
v 7.573109 0.610815 -6.967426
v 7.561916 0.603735 -6.978660
v 7.564357 0.595649 -7.000000
v 7.572282 0.595649 -7.000000
v 7.572282 0.804351 -6.975000
v 7.564357 0.804351 -6.975000
v 7.564357 0.795649 -7.000000
v 7.573410 0.799728 -6.997355
v 7.572282 1.004351 -6.975000
v 7.564357 1.004351 -6.975000
v 7.564357 0.995649 -7.000000
v 7.572282 0.995649 -7.000000
v 7.572282 1.204351 -6.975000
v 7.564357 1.204351 -6.975000
v 7.564357 1.195649 -7.000000
v 7.572282 1.195649 -7.000000
v 7.572282 1.404351 -6.975000
v 7.564357 1.404351 -6.975000
v 7.564357 1.395649 -7.000000
v 7.572282 1.395649 -7.000000
v 7.572282 1.604351 -6.975000
v 7.564357 1.604351 -6.975000
v 7.564357 1.595649 -7.000000
v 7.572282 1.595649 -7.000000
v 7.572282 1.804351 -6.975000
v 7.564357 1.804351 -6.975000
v 7.564357 1.795649 -7.000000
v 7.572282 1.795649 -7.000000
v 7.572282 2.004351 -6.975000
v 7.564357 2.004351 -6.975000
v 7.564357 1.995649 -7.000000
v 7.572282 1.995649 -7.000000
v 7.572282 2.204351 -6.975000
v 7.564357 2.204351 -6.975000
v 7.564357 2.195649 -7.000000
v 7.572282 2.195649 -7.000000
v 7.572282 2.404351 -6.975000
v 7.564357 2.404351 -6.975000
v 7.564357 2.395649 -7.000000
v 7.572282 2.395649 -7.000000
v 7.572282 2.604352 -6.975000
v 7.564357 2.604352 -6.975000
v 7.564357 2.595649 -7.000000
v 7.572282 2.595649 -7.000000
v 7.572282 2.804352 -6.975000
v 7.564357 2.804352 -6.975000
v 7.564357 2.795649 -7.000000
v 7.572282 2.795649 -7.000000
v 7.572282 3.004352 -6.975000
v 7.564357 3.004352 -6.975000
v 7.564357 2.995649 -7.000000
v 7.572282 2.995649 -7.000000
v 7.572282 3.204351 -6.975000
v 7.564357 3.204351 -6.975000
v 7.564357 3.195649 -7.000000
v 7.572282 3.195649 -7.000000
v 7.572282 3.404351 -6.975000
v 7.564357 3.404351 -6.975000
v 7.564357 3.395649 -7.000000
v 7.572282 3.395649 -7.000000
v 7.572282 3.604351 -6.975000
v 7.564357 3.604351 -6.975000
v 7.564357 3.595649 -7.000000
v 7.572282 3.595649 -7.000000
v 7.564357 3.804351 -6.975000
v 7.572282 3.804351 -6.975000
v 7.564357 3.795649 -7.000000
v 7.572282 3.795649 -7.000000
v 7.564357 0.794031 -7.012382
v 7.572282 0.794031 -7.012382
v 7.572282 0.602733 -6.987382
v 7.564357 0.602733 -6.987382
v 4.110767 3.204351 -6.998630
v 4.102457 3.208927 -6.971981
v 4.102872 3.202888 -6.979202
v 4.098423 3.395648 -7.000000
v 4.110767 3.395648 -7.000000
v 4.102873 3.397111 -6.995798
v 4.786498 0.000000 -6.975000
v 4.786498 0.204351 -6.975000
v 4.786498 0.195649 -7.000000
v 4.786498 0.404351 -6.975000
v 4.786498 0.395649 -7.000000
v 4.786498 0.604351 -6.975000
v 4.786498 0.595649 -7.000000
v 4.786498 0.795649 -7.000000
v 4.786498 1.404351 -6.975000
v 4.786498 1.604351 -6.975000
v 4.786498 1.595649 -7.000000
v 4.786498 1.804351 -6.975000
v 4.786498 1.795649 -7.000000
v 4.786498 1.995649 -7.000000
v 4.791309 0.804351 -6.975000
v 4.781687 0.804351 -6.975000
v 4.786498 0.802769 -6.979544
v 4.780324 1.003879 -6.969453
v 4.793529 1.002711 -6.987084
v 4.791310 0.995649 -7.000000
v 4.781687 0.995649 -7.000000
v 4.781687 1.204351 -6.975000
v 4.791309 1.204351 -6.975000
v 4.787850 1.191257 -7.003925
v 4.781687 1.195649 -7.000000
v 4.781687 1.395649 -7.000000
v 4.791310 1.395649 -7.000000
v 4.786498 1.397231 -6.995456
v 4.939097 2.204351 -7.003418
v 4.936902 2.213970 -6.967966
v 4.950470 2.202756 -6.979652
v 4.939131 2.392732 -7.023466
v 4.939097 2.395648 -7.028418
v 4.944395 2.398218 -6.992618
v 6.712747 1.808858 -6.994507
v 6.710350 1.818023 -6.968398
v 6.707351 1.807439 -6.974216
v 6.701042 1.995649 -7.000000
v 6.709678 1.995649 -7.006614
v 6.705359 1.997068 -6.995923
v 6.714461 3.609701 -6.962106
v 6.708674 3.602466 -6.988995
v 6.713900 3.600748 -6.993929
v 6.700134 3.795649 -7.000000
v 6.710585 3.795649 -7.000000
v 6.705359 3.797367 -6.995065
v 5.570084 0.000000 -6.975000
v 5.570084 4.000000 -7.000000
v 5.570084 0.204351 -6.975000
v 5.570084 0.195649 -7.000000
v 5.568345 0.404351 -6.968772
v 5.570084 0.395649 -7.000000
v 5.570084 0.595649 -7.000000
v 5.569101 0.807204 -6.964749
v 5.570084 1.004351 -6.975000
v 5.570084 0.995649 -7.000000
v 5.565422 1.201375 -6.965324
v 5.570084 1.195649 -7.000000
v 5.568109 1.412011 -6.967534
v 5.570084 1.395649 -7.000000
v 5.570084 1.604351 -6.975000
v 5.570084 1.595649 -7.000000
v 5.576038 1.812060 -6.989307
v 5.570084 1.795649 -7.000000
v 5.570084 2.004351 -6.975000
v 5.570084 1.995649 -7.000000
v 5.570084 2.204351 -6.975000
v 5.570084 2.195649 -7.000000
v 5.570084 2.404351 -6.975000
v 5.570084 2.395648 -7.000000
v 5.570084 2.604352 -6.975000
v 5.570084 2.595649 -7.000000
v 5.570084 2.804351 -6.975000
v 5.570084 2.795649 -7.000000
v 5.580194 3.027921 -6.996505
v 5.570084 2.995649 -7.000000
v 5.570084 3.204351 -6.975000
v 5.570084 3.195649 -7.000000
v 5.570084 3.404351 -6.975000
v 5.570084 3.395649 -7.000000
v 5.570084 3.604351 -6.975000
v 5.570084 3.595649 -7.000000
v 5.570084 3.804351 -6.975000
v 5.570084 3.795649 -7.000000
v 5.573604 0.606814 -6.971167
v 5.570953 0.603336 -6.988134
v 5.574282 0.602242 -6.991277
v 5.566755 0.795649 -7.000000
v 5.573412 0.795649 -7.000000
v 5.570084 0.796743 -6.996857
vn -0.0000 0.1296 0.9916
vn 0.0133 0.1267 0.9918
vn -0.0180 0.1296 0.9914
vn -0.0239 0.1295 0.9913
vn -0.0251 0.1295 0.9913
vn 0.0097 0.1296 0.9915
vn 0.0269 0.1295 0.9912
vn -0.0097 0.1296 0.9915
vn 0.0002 -0.9460 0.3243
vn -0.0000 -0.9444 0.3287
vn -0.0070 -0.9876 0.1570
vn -0.0120 -0.8012 0.5983
vn -0.0010 -0.9523 0.3051
vn -0.0006 -0.9390 0.3440
vn 0.0016 -0.9304 0.3665
vn 0.0013 -0.9547 0.2977
vn 0.0048 -0.8972 0.4416
vn 0.0029 -0.9656 0.2600
vn -0.0000 0.1267 0.9919
vn 0.0264 0.1295 0.9912
vn -0.0000 -0.9444 0.3288
vn 0.0003 -0.9453 0.3263
vn -0.0023 -0.9402 0.3406
vn -0.0026 -0.9205 0.3908
vn 0.0025 -0.9215 0.3883
vn -0.0037 -0.9214 0.3885
vn 0.0068 -0.9870 0.1603
vn -0.0003 -0.9429 0.3332
vn -0.0220 0.1386 0.9901
vn -0.0011 -0.8271 0.5620
vn 0.0016 -0.9818 0.1900
vn -0.0272 0.1295 0.9912
vn -0.0023 -0.9820 0.1888
vn 0.0152 -0.7446 0.6673
vn 0.0747 -0.5817 0.8100
vn -0.0030 -0.9186 0.3952
vn 0.0034 -0.9185 0.3954
vn -0.0001 -0.9439 0.3302
vn 0.0001 -0.9439 0.3302
vn 0.0019 -0.9275 0.3738
vn 0.0088 -0.8886 0.4587
vn -0.0045 -0.8873 0.4611
vn 0.0007 -0.9379 0.3469
vn 0.0032 -0.9679 0.2511
vn 0.0070 -0.9753 0.2206
vn -0.0036 -0.9755 0.2201
vn 0.0122 0.1296 0.9915
vn 0.0033 -0.9132 0.4074
vn -0.0022 -0.9762 0.2168
vn -0.0034 -0.9688 0.2477
vn 0.0048 -0.9687 0.2481
vn 0.0040 -0.9729 0.2311
vn -0.3046 -0.9525 -0.0037
vn 0.0006 -0.9638 0.2666
vn -0.0010 -0.9559 0.2938
vn -0.0025 -0.9215 0.3884
vn 0.0037 -0.9216 0.3882
vn -0.0002 -0.9559 0.2938
vn 0.0048 0.1026 0.9947
vn -0.0079 -0.8965 0.4430
vn -0.0115 -0.7754 0.6314
vn -0.0032 -0.9679 0.2514
vn 0.0045 -0.8926 0.4507
vn 0.0047 -0.9680 0.2507
vn -0.0002 -0.8121 0.5836
vn 0.0351 -0.8201 0.5712
vn 0.0064 -0.9880 0.1540
vn -0.0044 -0.9810 0.1938
vn -0.0100 -0.9752 0.2212
vn 0.0148 -0.9751 0.2212
vn -0.0006 -0.9395 0.3426
vn 0.0013 -0.9467 0.3221
vn -0.0111 -0.8155 0.5787
vn -0.0030 0.1162 0.9932
vn 0.0162 -0.8129 0.5821
vn 0.0053 -0.9113 0.4116
vn 0.0100 -0.9164 0.4001
vn 0.0024 -0.9643 0.2646
vn -0.0216 0.1428 0.9895
vn -0.0039 -0.9966 0.0820
vn -0.0128 -0.9721 0.2341
vn 0.0039 -0.9030 0.4297
vn -0.0048 -0.8973 0.4413
vn -0.0457 0.1087 0.9930
vn 0.0077 -0.6896 0.7241
vn 0.0139 0.1155 0.9932
vn -0.0035 -0.9626 0.2708
vn -0.0007 -0.9653 0.2611
vn 0.0015 -0.9649 0.2626
vn 0.0054 -0.9905 0.1372
vn -0.0011 0.1341 0.9910
vn -0.0033 -0.9237 0.3830
vn 0.0045 0.1402 0.9901
vn 0.0077 -0.9421 0.3353
vn -0.0026 -0.9643 0.2648
vn 0.0024 -0.9642 0.2652
vn 0.0012 -0.9341 0.3570
vn -0.0017 -0.9341 0.3571
vn 0.0015 -0.9456 0.3252
vn -0.0180 -0.9270 0.3747
vn 0.0076 -0.9009 0.4340
vn -0.0042 -0.9032 0.4292
vn 0.0039 -0.9036 0.4283
vn 0.0005 -0.9766 0.2150
vn 0.0016 0.1224 0.9925
vn -0.0007 -0.9767 0.2146
vn 0.0004 -0.9481 0.3181
vn -0.0026 -0.9565 0.2918
vn -0.0002 -0.9460 0.3243
vn -0.0000 -0.9468 0.3219
vn 0.0195 0.1296 0.9914
vn -0.0132 0.1296 0.9915
vn 0.0219 0.1296 0.9913
vn -0.0026 -0.9654 0.2608
vn -0.0055 -0.8683 0.4959
vn -0.0009 0.1277 0.9918
vn -0.0053 -0.9868 0.1618
vn -0.0005 0.1316 0.9913
vn 0.0005 0.1316 0.9913
vn -0.0214 0.0785 0.9967
vn 0.0356 0.1295 0.9909
vn -0.0117 -0.7495 0.6619
vn -0.0096 0.1296 0.9915
vn 0.0085 0.1296 0.9915
vn 0.0141 0.1296 0.9915
vn -0.0088 0.1296 0.9915
vn 0.0173 0.1296 0.9914
vn -0.0147 0.1296 0.9915
vn 0.0100 0.1296 0.9915
vn -0.0380 0.1295 0.9909
vn -0.0013 -0.9570 0.2899
vn -0.0154 0.1296 0.9915
vn -0.0008 -0.9353 0.3539
vn -0.0043 -0.7686 0.6397
vn 0.0009 -0.9262 0.3770
vn 0.0169 0.1296 0.9914
vn -0.0118 0.1296 0.9915
vn 0.0087 0.1296 0.9915
vn -0.0074 0.1277 0.9918
vn 0.0088 0.2125 0.9771
vn 0.0118 -0.7598 0.6501
vn -0.0166 0.1296 0.9914
vn -0.0266 0.1241 0.9919
vn -0.0150 0.0975 0.9951
vn -0.0140 0.1296 0.9915
vn 0.0162 0.1296 0.9914
vn -0.0114 0.1296 0.9915
vn 0.0092 0.1514 0.9884
vn 0.0038 0.1163 0.9932
vn 0.0372 0.1295 0.9909
vn -0.0031 -0.9185 0.3954
vn 0.0180 0.1296 0.9914
vn -0.0066 0.1759 0.9844
vn 0.0394 0.1647 0.9856
vn 0.0354 0.1295 0.9909
vn 0.0043 -0.9809 0.1943
vn -0.0198 0.1296 0.9914
vn 0.0038 -0.8968 0.4424
vn -0.0250 0.1295 0.9913
vn 0.0113 0.1296 0.9915
vn -0.0040 0.1435 0.9896
vn -0.0000 0.1839 0.9829
vn -0.0096 0.1426 0.9897
vn 0.0005 -0.9657 0.2598
vn 0.0415 0.1295 0.9907
vn 0.0090 0.1296 0.9915
vn -0.0001 -0.9503 0.3115
vn 0.0041 0.1436 0.9896
vn 0.0004 -0.9402 0.3407
vn 0.0178 0.1296 0.9914
vn 0.0352 0.1295 0.9910
vn -0.0000 0.1611 0.9869
vn 0.0046 0.1454 0.9894
vn 0.0126 0.1430 0.9896
vn 0.0006 -0.9382 0.3460
vn -0.0030 0.1224 0.9925
vn -0.0000 0.1152 0.9933
vn -0.0003 -0.9480 0.3182
vn 0.0172 0.1841 0.9828
vn -0.0000 0.2420 0.9703
vn -0.0171 0.1267 0.9918
vn 0.0081 0.1267 0.9919
vn 0.0212 0.1267 0.9917
vn -0.0190 0.1267 0.9918
vn 0.0080 0.1645 0.9863
vn 0.0074 0.1443 0.9895
vn -0.5833 0.0984 0.8062
vn -1.0000 0.0048 -0.0000
vn -0.1410 -0.9754 0.1694
vn 0.9289 0.0338 0.3688
vn -0.0000 0.1268 0.9919
vn 0.1849 -0.9449 0.2703
vn -0.0000 -0.8720 0.4895
vn 0.9935 0.0075 0.1140
vn -0.0162 0.1267 0.9918
vn 0.1901 -0.9505 0.2459
vn -0.9986 0.0084 0.0525
vn 0.8121 -0.5088 0.2857
vn -0.9569 -0.2531 0.1423
vn 0.8808 -0.3371 0.3325
vn 0.7938 0.0556 0.6057
vn -0.0137 0.0668 0.9977
vn -0.0168 0.1842 0.9827
vn -0.0195 0.1296 0.9914
vn 0.0042 -0.9537 0.3008
vn -0.0087 -0.9232 0.3843
vn 0.0072 -0.9273 0.3743
vn -0.0033 0.1296 0.9916
vn 0.0181 0.1296 0.9914
vn 0.0055 -0.9564 0.2920
vn 0.0056 -0.9308 0.3654
vn 0.0018 -0.9589 0.2836
vn 0.0005 -0.9399 0.3414
vn -0.0043 -0.9026 0.4306
vn -0.0026 -0.9643 0.2646
vn 0.7522 0.0899 0.6527
vn 0.2010 -0.9253 0.3216
vn -0.1595 -0.9117 0.3787
vn 0.0130 0.1296 0.9915
vn 0.5207 0.8315 -0.1934
vn 0.9698 -0.2072 -0.1286
vn 0.9986 0.0054 0.0525
vn -0.0658 0.1293 0.9894
vn 0.9027 -0.3734 0.2139
vn 0.1431 -0.9719 0.1868
vn 0.9510 0.0685 0.3014
vn 0.0018 0.1817 0.9834
vn -0.0597 -0.9606 0.2713
vn -0.8599 0.0375 0.5091
vn 0.0105 0.0935 0.9956
vn -0.0783 0.1453 0.9863
vn -0.0046 -0.9380 0.3466
vn -0.0260 0.1567 0.9873
vn -0.0226 0.1532 0.9879
vn -0.0211 0.1516 0.9882
vn 0.0327 0.0952 0.9949
vn 0.0468 0.0803 0.9957
vn -0.0009 -0.9600 0.2801
vn -0.0106 -0.9254 0.3790
vn -0.0067 -0.9601 0.2794
vn -0.0005 -0.9877 0.1560
vn -0.0055 -0.9082 0.4185
vn -0.0186 -0.8551 0.5181
vn -0.0058 -0.9728 0.2315
vn -0.0041 -0.9182 0.3960
vn -0.0022 -0.9562 0.2928
vn -0.0028 -0.9274 0.3741
vn -0.0339 -0.5650 0.8244
vn 0.0038 -0.9203 0.3912
vn 0.0028 -0.9592 0.2827
vn -0.1142 -0.9696 0.2166
vn -0.8795 0.0405 0.4741
vn -0.0246 0.0954 0.9951
vt 2.667534 1.802616
vt 3.000976 1.802616
vt 3.000976 1.898288
vt 2.667534 1.898288
vt 2.667535 0.000000
vt 3.000977 0.000000
vt 3.000976 0.097848
vt 2.667534 0.097848
vt 2.667535 0.102201
vt 3.000976 0.102201
vt 3.000976 0.197873
vt 2.667534 0.197873
vt 2.667535 0.202225
vt 3.000976 0.202225
vt 3.000976 0.297897
vt 2.667534 0.297897
vt 2.667534 0.302249
vt 3.000976 0.302249
vt 3.000976 0.397922
vt 2.667534 0.397922
vt 2.667534 0.402274
vt 3.000976 0.402274
vt 3.000976 0.497946
vt 2.667534 0.497946
vt 2.667534 0.502298
vt 3.000976 0.502298
vt 3.000976 0.597970
vt 2.667534 0.597970
vt 2.667534 0.602323
vt 3.000976 0.602323
vt 3.000976 0.697995
vt 2.667534 0.697995
vt 2.667534 0.702347
vt 3.000976 0.702347
vt 3.000976 0.798019
vt 2.667534 0.798019
vt 2.667534 0.802372
vt 3.000976 0.802372
vt 3.000976 0.898044
vt 2.667534 0.898044
vt 2.667534 0.902396
vt 3.000976 0.902396
vt 3.000976 0.998068
vt 2.667534 0.998068
vt 2.667534 1.002420
vt 3.000976 1.002420
vt 3.000976 1.098093
vt 2.667534 1.098093
vt 2.667534 1.102445
vt 3.000976 1.102445
vt 3.000976 1.198117
vt 2.667534 1.198117
vt 2.667534 1.202469
vt 3.000976 1.202469
vt 3.000976 1.298141
vt 2.667534 1.298141
vt 2.667534 1.302494
vt 3.000976 1.302494
vt 3.000976 1.398166
vt 2.667534 1.398166
vt 2.667534 1.402518
vt 3.000976 1.402518
vt 3.000976 1.498190
vt 2.667534 1.498190
vt 2.667534 1.502543
vt 3.000976 1.502543
vt 3.000976 1.598215
vt 2.667534 1.598215
vt 2.667535 1.602567
vt 3.000976 1.602567
vt 3.000976 1.698239
vt 2.667534 1.698239
vt 2.667535 1.702591
vt 3.000976 1.702591
vt 3.000976 1.798264
vt 2.667534 1.798264
vt 0.333442 0.102201
vt 0.000000 0.102201
vt 0.000000 0.097848
vt 0.333442 0.097848
vt 0.333442 0.202225
vt 0.000000 0.202225
vt 0.000000 0.197873
vt 0.333442 0.197873
vt 0.333442 0.302249
vt 0.000000 0.302249
vt 0.000000 0.297897
vt 0.333442 0.297897
vt 0.333442 0.402274
vt 0.000000 0.402274
vt 0.000000 0.397922
vt 0.333442 0.397922
vt 0.333442 0.502298
vt 0.000000 0.502298
vt 0.000000 0.497946
vt 0.333442 0.497946
vt 0.333442 0.602323
vt 0.000000 0.602323
vt 0.000000 0.597970
vt 0.333442 0.597970
vt 0.333442 0.702347
vt 0.000000 0.702347
vt 0.000000 0.697995
vt 0.333442 0.697995
vt 0.333442 0.802371
vt 0.000000 0.802371
vt 0.000000 0.798019
vt 0.333442 0.798019
vt 0.333442 0.902396
vt 0.000000 0.902396
vt 0.000000 0.898044
vt 0.333442 0.898044
vt 0.333442 1.002420
vt 0.000000 1.002420
vt 0.000000 0.998068
vt 0.333442 0.998068
vt 0.333442 1.102445
vt 0.000000 1.102445
vt 0.000000 1.098093
vt 0.333442 1.098093
vt 0.333442 1.202469
vt 0.000000 1.202469
vt 0.000000 1.198117
vt 0.333442 1.198117
vt 0.333442 1.302493
vt 0.000000 1.302493
vt 0.000000 1.298141
vt 0.333442 1.298141
vt 0.333442 1.402518
vt 0.000000 1.402518
vt 0.000000 1.398166
vt 0.333442 1.398166
vt 0.333442 1.502542
vt 0.000000 1.502542
vt 0.000000 1.498190
vt 0.333442 1.498190
vt 0.333442 1.602567
vt 0.000000 1.602567
vt 0.000000 1.598215
vt 0.333442 1.598215
vt 0.333442 1.702591
vt 0.000000 1.702591
vt 0.000000 1.698239
vt 0.333442 1.698239
vt 0.333442 1.802616
vt 0.000000 1.802616
vt 0.000000 1.798263
vt 0.333442 1.798263
vt 0.333442 1.902640
vt 0.000000 1.902640
vt 0.000000 1.898288
vt 0.333442 1.898288
vt 2.667535 1.902640
vt 3.000976 1.902640
vt 3.000977 2.000488
vt 2.667535 2.000488
vt 0.333442 2.000488
vt 0.000000 2.000488
vt 0.701656 1.902640
vt 0.701656 2.000488
vt 1.122563 1.902640
vt 1.122563 2.000488
vt 1.333767 1.902640
vt 1.333768 2.000488
vt 1.435509 1.902640
vt 1.667209 1.902640
vt 1.667209 2.000488
vt 1.435509 2.000488
vt 2.003332 1.902640
vt 2.003332 2.000488
vt 2.436934 0.102201
vt 2.436934 0.197873
vt 2.432970 1.902640
vt 2.432970 2.000488
vt 2.003332 1.899147
vt 2.005945 1.898288
vt 2.432970 1.898288
vt 1.333767 1.898288
vt 1.435509 1.898288
vt 1.122563 1.898288
vt 0.701656 1.898288
vt 2.003332 1.801757
vt 2.000718 1.802616
vt 1.667209 1.802616
vt 1.667209 1.798264
vt 2.003332 1.798264
vt 2.436934 1.802616
vt 2.436934 1.798264
vt 2.432970 1.802616
vt 2.005945 1.802616
vt 2.003332 1.801757
vt 2.432970 1.798264
vt 1.435509 1.802616
vt 1.333767 1.802616
vt 1.333767 1.798264
vt 1.435509 1.798264
vt 1.122563 1.802616
vt 1.122563 1.798264
vt 0.701656 1.802616
vt 0.701656 1.798263
vt 2.003332 1.702591
vt 2.432970 1.702591
vt 2.436934 1.702591
vt 2.436934 1.698239
vt 1.667209 1.702591
vt 1.667209 1.698239
vt 2.003332 1.698239
vt 1.435509 1.702591
vt 1.333767 1.702591
vt 1.333767 1.698239
vt 1.435509 1.698239
vt 1.122563 1.702591
vt 1.122687 1.698239
vt 0.701656 1.702591
vt 0.701664 1.698971
vt 0.705613 1.698239
vt 2.003332 1.602567
vt 2.432970 1.602567
vt 2.432970 1.698239
vt 2.436934 1.602567
vt 2.436934 1.598215
vt 1.667209 1.602567
vt 1.667209 1.598215
vt 2.003332 1.598215
vt 1.435509 1.602567
vt 1.333767 1.602567
vt 1.333767 1.598215
vt 1.435509 1.598215
vt 1.122687 1.602567
vt 1.122563 1.598215
vt 0.699439 1.602567
vt 0.699439 1.698239
vt 0.705613 1.602567
vt 0.701664 1.601835
vt 0.701656 1.598215
vt 2.003332 1.502542
vt 2.432970 1.502543
vt 2.432970 1.598215
vt 2.436933 1.502543
vt 2.436934 1.498190
vt 1.667209 1.502542
vt 1.667209 1.498190
vt 2.003332 1.498190
vt 1.435509 1.502542
vt 1.333767 1.502542
vt 1.333767 1.498190
vt 1.435509 1.498190
vt 1.122563 1.502542
vt 1.122563 1.498190
vt 0.701656 1.502542
vt 0.701656 1.498190
vt 2.003332 1.402518
vt 2.432969 1.402518
vt 2.432970 1.498190
vt 2.436933 1.402518
vt 2.436934 1.398166
vt 1.667209 1.402518
vt 1.667209 1.398166
vt 2.003332 1.398166
vt 1.435509 1.402518
vt 1.333767 1.402518
vt 1.333767 1.398166
vt 1.435509 1.398166
vt 1.122562 1.402518
vt 1.122562 1.398166
vt 0.701656 1.402518
vt 0.701656 1.398166
vt 2.003332 1.302494
vt 2.432970 1.302493
vt 2.432970 1.398166
vt 2.436934 1.302493
vt 2.436934 1.298141
vt 1.667209 1.302493
vt 1.667209 1.298141
vt 2.003332 1.298141
vt 1.435509 1.302493
vt 1.333767 1.302493
vt 1.333767 1.298141
vt 1.435509 1.298141
vt 1.122563 1.302493
vt 1.122562 1.298141
vt 0.701656 1.302493
vt 0.701656 1.298141
vt 2.003332 1.202469
vt 2.432970 1.202469
vt 2.432970 1.298141
vt 2.436933 1.202469
vt 2.436934 1.198117
vt 1.667209 1.202469
vt 1.667209 1.198117
vt 2.003332 1.198117
vt 1.435509 1.202469
vt 1.333767 1.202469
vt 1.333767 1.198117
vt 1.435509 1.198117
vt 1.122563 1.202469
vt 1.122562 1.199402
vt 1.126472 1.198117
vt 0.701656 1.202469
vt 0.701656 1.198117
vt 2.003332 1.102445
vt 2.432970 1.102445
vt 2.432970 1.198117
vt 2.436934 1.102445
vt 2.436934 1.098093
vt 1.667209 1.102445
vt 1.667209 1.098093
vt 2.003332 1.098093
vt 1.435509 1.102445
vt 1.333767 1.102445
vt 1.333767 1.098093
vt 1.435509 1.098092
vt 1.138554 1.098093
vt 1.136067 1.098863
vt 1.136100 1.098868
vt 1.118653 1.198117
vt 0.701656 1.102445
vt 0.701479 1.098093
vt 2.003332 1.002420
vt 2.432970 1.002420
vt 2.432970 1.098093
vt 2.436934 1.002420
vt 2.436934 0.998068
vt 2.003331 0.998778
vt 2.005491 0.998068
vt 2.432970 0.998068
vt 1.435509 1.002420
vt 1.333767 1.002420
vt 1.333767 0.998068
vt 1.435509 0.998068
vt 0.701479 1.002420
vt 1.133784 1.002420
vt 1.133784 1.098093
vt 1.138554 1.002420
vt 1.136169 1.001636
vt 1.136169 0.998068
vt 0.701656 0.998068
vt 2.003332 0.901686
vt 2.001172 0.902396
vt 1.667209 0.902396
vt 1.667209 0.898044
vt 2.003332 0.898044
vt 2.436934 0.902396
vt 2.436934 0.898044
vt 2.432970 0.902396
vt 2.005491 0.902396
vt 2.432970 0.898044
vt 1.435509 0.902396
vt 1.333767 0.902396
vt 1.333767 0.898044
vt 1.435509 0.898044
vt 1.136169 0.902396
vt 1.136169 0.898044
vt 1.043589 0.902396
vt 0.701656 0.902396
vt 0.701656 0.898044
vt 1.043589 0.898044
vt 2.003332 0.802372
vt 2.432969 0.802371
vt 2.436933 0.802371
vt 2.436934 0.798019
vt 1.667209 0.802372
vt 1.667209 0.798019
vt 2.003331 0.798019
vt 1.435509 0.802372
vt 1.333767 0.802372
vt 1.333767 0.798019
vt 1.435509 0.798019
vt 1.136169 0.802372
vt 1.136169 0.798019
vt 1.043589 0.802372
vt 0.701656 0.802372
vt 0.701656 0.798019
vt 1.043589 0.798019
vt 2.003332 0.702347
vt 2.432969 0.702347
vt 2.432970 0.798019
vt 2.436933 0.702347
vt 2.436934 0.697995
vt 1.667209 0.702347
vt 1.667209 0.697995
vt 2.003332 0.697995
vt 1.435509 0.702347
vt 1.333767 0.702347
vt 1.333767 0.697995
vt 1.435509 0.697995
vt 1.136169 0.702347
vt 1.136169 0.697995
vt 0.701656 0.702347
vt 0.701656 0.697995
vt 2.003332 0.602323
vt 2.432969 0.602323
vt 2.432970 0.697995
vt 2.436933 0.602323
vt 2.436934 0.597970
vt 1.667209 0.602323
vt 1.667209 0.597970
vt 2.003331 0.597970
vt 1.435509 0.602323
vt 1.333767 0.602323
vt 1.333767 0.597970
vt 1.435509 0.597971
vt 1.136169 0.602323
vt 1.136169 0.597970
vt 1.045995 0.602323
vt 1.045995 0.697995
vt 0.701656 0.602323
vt 0.701656 0.597970
vt 2.003332 0.502298
vt 2.432970 0.502298
vt 2.432970 0.597970
vt 2.436934 0.502298
vt 2.436934 0.497946
vt 1.667209 0.502298
vt 1.667209 0.497946
vt 2.003332 0.497946
vt 1.435509 0.502298
vt 1.333767 0.502298
vt 1.333767 0.497946
vt 1.435509 0.497946
vt 1.136169 0.502298
vt 1.136169 0.497946
vt 1.045995 0.502298
vt 1.045995 0.597970
vt 0.701656 0.502298
vt 0.701656 0.497946
vt 2.003332 0.402274
vt 2.432970 0.402274
vt 2.432970 0.497946
vt 2.436934 0.402274
vt 2.436934 0.397922
vt 1.667209 0.402274
vt 1.667209 0.397922
vt 2.003332 0.397922
vt 1.333767 0.402274
vt 1.136169 0.402274
vt 1.136169 0.397922
vt 1.333767 0.397922
vt 1.045995 0.402274
vt 1.045995 0.497946
vt 0.701656 0.402274
vt 0.701656 0.397922
vt 2.003332 0.302249
vt 2.432970 0.302249
vt 2.432970 0.397922
vt 2.436934 0.302249
vt 2.436934 0.297897
vt 1.667209 0.302249
vt 1.667209 0.297897
vt 2.003332 0.297897
vt 1.437174 0.302249
vt 1.437173 0.397922
vt 1.333767 0.302249
vt 1.136169 0.302249
vt 1.136169 0.297897
vt 1.333767 0.297897
vt 1.043589 0.302249
vt 0.701656 0.302249
vt 0.701656 0.297897
vt 1.043589 0.297897
vt 2.003332 0.202225
vt 2.432970 0.202225
vt 2.432970 0.297897
vt 2.436934 0.202225
vt 2.436934 0.197873
vt 1.667209 0.202225
vt 1.667209 0.197873
vt 2.003332 0.197873
vt 1.435509 0.202225
vt 1.333767 0.202225
vt 1.333767 0.197873
vt 1.435509 0.197873
vt 1.136169 0.202225
vt 1.136169 0.197873
vt 1.043589 0.202225
vt 0.701656 0.202225
vt 0.701656 0.197873
vt 1.043589 0.197873
vt 2.003332 0.102201
vt 2.432970 0.102201
vt 2.432970 0.197873
vt 2.436934 0.102201
vt 2.436934 0.097848
vt 1.667209 0.102201
vt 1.667209 0.097848
vt 2.003332 0.097848
vt 1.435509 0.102201
vt 1.333767 0.102201
vt 1.333767 0.097848
vt 1.435509 0.097848
vt 1.136169 0.102201
vt 1.136169 0.097848
vt 1.043589 0.102201
vt 0.701656 0.102201
vt 0.701656 0.097848
vt 1.043588 0.097848
vt 2.436934 1.802616
vt 2.436934 1.898288
vt 2.436934 1.702591
vt 2.436934 1.798264
vt 2.436934 1.602567
vt 2.436934 1.698239
vt 2.436934 1.502543
vt 2.436934 1.598215
vt 2.436933 1.402518
vt 2.436933 1.498190
vt 2.436934 1.302493
vt 2.436934 1.398166
vt 1.126472 1.102445
vt 1.125608 1.101637
vt 1.125607 1.101637
vt 1.118653 1.102445
vt 2.436934 1.202469
vt 2.436934 1.298141
vt 1.043589 0.998068
vt 1.667209 1.002420
vt 2.436934 1.102445
vt 2.436933 1.198117
vt 1.667209 0.998068
vt 2.436934 1.002420
vt 2.436934 1.098093
vt 2.001172 0.998068
vt 2.436934 0.902396
vt 2.436934 0.998068
vt 1.043589 0.702347
vt 2.436933 0.802372
vt 2.436934 0.898044
vt 1.043589 0.698786
vt 2.436933 0.702347
vt 2.436934 0.798019
vt 1.041182 0.602323
vt 1.041182 0.697995
vt 2.436933 0.602323
vt 2.436934 0.697995
vt 1.041182 0.502298
vt 1.041182 0.597970
vt 1.435509 0.402274
vt 2.436934 0.502298
vt 2.436934 0.597970
vt 1.043589 0.397922
vt 1.435509 0.398469
vt 1.437174 0.397922
vt 2.436934 0.402274
vt 2.436933 0.497946
vt 2.432970 0.302249
vt 1.435509 0.297897
vt 2.436934 0.302249
vt 2.436934 0.397922
vt 2.436934 0.202225
vt 2.436933 0.297897
vt 2.432970 0.097848
vt 0.000000 0.000000
vt 0.333442 0.000000
vt 0.701656 0.000000
vt 1.043589 0.000000
vt 1.136169 0.000000
vt 1.333767 0.000000
vt 1.435509 0.000000
vt 1.667209 0.000000
vt 2.003332 0.000000
vt 2.436934 0.000000
vt 2.436933 0.097848
vt 2.436934 1.902640
vt 2.436934 2.000488
vt 1.667209 1.898288
vt 2.436934 1.902640
vt 2.436934 1.898288
vt 2.000718 1.898288
vt 2.003332 1.899147
vt 1.133784 1.002420
vt 0.085852 0.504385
vt 0.085852 0.589365
vt 0.080352 0.589365
vt 0.080352 0.504385
vt 2.432970 0.097848
vt 2.432970 0.000000
vt 0.381868 0.541285
vt 0.554585 0.541285
vt 0.554585 0.552464
vt 0.381868 0.552465
vt 1.043589 0.401483
vt 1.045995 0.497946
vt 1.041182 0.402274
vt 1.041182 0.497946
vt 1.041182 0.402274
vt 1.045995 0.697995
vt 1.126472 1.198117
vt 2.000718 1.802616
vt 2.005945 1.898288
vt 1.437174 0.302249
vt 1.435509 0.301702
vt 1.433844 0.302249
vt 1.433844 0.397922
vt 1.435509 0.398469
vt 1.433844 0.397922
vt 1.433844 0.302249
s 0
usemtl Layered_Wood_Planks_Bare
f 325/1/1 77/2/1 80/3/1 350/4/1
f 87/5/2 2/6/2 44/7/2 108/8/2
f 95/9/3 43/10/3 46/11/3 122/12/3
f 109/13/1 45/14/1 48/15/1 136/16/1
f 123/17/1 47/18/1 50/19/1 150/20/1
f 137/21/1 49/22/1 52/23/1 164/24/1
f 151/25/1 51/26/1 54/27/1 178/28/1
f 165/29/1 53/30/1 56/31/1 192/32/1
f 179/33/4 55/34/4 58/35/4 206/36/4
f 193/37/5 57/38/5 60/39/5 219/40/5
f 207/41/1 59/42/1 62/43/1 231/44/1
f 220/45/6 61/46/6 64/47/6 243/48/6
f 232/49/1 63/50/1 66/51/1 256/52/1
f 244/53/1 65/54/1 68/55/1 270/56/1
f 257/57/1 67/58/1 70/59/1 284/60/1
f 271/61/7 69/62/7 72/63/7 298/64/7
f 285/65/8 71/66/8 74/67/8 311/68/8
f 299/69/1 73/70/1 76/71/1 324/72/1
f 312/73/1 75/74/1 78/75/1 337/76/1
f 101/77/9 42/78/9 41/79/9 102/80/9
f 115/81/10 40/82/10 39/83/10 116/84/10
f 129/85/10 38/86/10 37/87/10 130/88/10
f 143/89/11 36/90/11 35/91/11 144/92/11
f 157/93/12 34/94/12 33/95/12 158/96/12
f 171/97/10 32/98/10 31/99/10 172/100/10
f 185/101/10 30/102/10 29/103/10 186/104/10
f 199/105/13 28/106/13 27/107/13 200/108/13
f 212/109/14 26/110/14 25/111/14 213/112/14
f 225/113/15 24/114/15 23/115/15 226/116/15
f 237/117/16 22/118/16 21/119/16 238/120/16
f 250/121/10 20/122/10 19/123/10 251/124/10
f 263/125/10 18/126/10 17/127/10 264/128/10
f 277/129/10 16/130/10 15/131/10 278/132/10
f 291/133/10 14/134/10 13/135/10 292/136/10
f 304/137/17 12/138/17 11/139/17 305/140/17
f 318/141/18 10/142/18 9/143/18 319/144/18
f 330/145/10 8/146/10 7/147/10 331/148/10
f 344/149/10 6/150/10 5/151/10 345/152/10
f 338/153/19 79/154/19 4/155/19 88/156/19
f 6/150/19 344/149/19 94/157/19 3/158/19
f 344/149/19 343/159/19 93/160/19 94/157/19
f 343/159/19 342/161/19 92/162/19 93/160/19
f 342/161/19 341/163/19 91/164/19 92/162/19
f 532/165/19 340/166/19 90/167/19 497/168/19
f 340/166/19 339/169/19 89/170/19 90/167/19
f 364/171/20 95/9/20 122/12/20 371/172/20
f 339/169/19 436/173/19 362/174/19 89/170/19
f 79/154/10 338/153/10 350/4/10 80/3/10
f 436/173/21 339/169/21 495/175/21 494/176/21 438/177/21
f 532/165/21 341/163/21 348/178/21 533/179/21
f 341/163/21 342/161/21 347/180/21 348/178/21
f 342/161/21 343/159/21 346/181/21 347/180/21
f 343/159/21 344/149/21 345/152/21 346/181/21
f 77/2/10 325/1/10 337/76/10 78/75/10
f 492/182/22 491/183/22 326/184/22 335/185/22 336/186/22
f 325/1/21 432/187/21 435/188/21 337/76/21
f 433/189/23 490/190/23 492/191/23 336/186/23 434/192/23
f 530/193/21 327/194/21 334/195/21 531/196/21
f 327/194/21 328/197/21 333/198/21 334/195/21
f 328/197/21 329/199/21 332/200/21 333/198/21
f 329/199/10 330/145/10 331/148/10 332/200/10
f 75/74/10 312/73/10 324/72/10 76/71/10
f 313/201/1 429/202/1 434/192/1 336/186/1
f 312/73/10 428/203/10 431/204/10 324/72/10
f 313/201/24 314/205/24 322/206/24 323/207/24
f 528/208/21 315/209/21 321/210/21 529/211/21
f 315/209/21 316/212/21 320/213/21 321/210/21
f 316/212/21 317/214/21 449/215/21 448/216/21 320/213/21
f 73/70/25 299/69/25 311/68/25 74/67/25
f 300/217/1 425/218/1 430/219/1 323/207/1
f 299/69/26 424/220/26 427/221/26 311/68/26
f 300/217/27 301/222/27 309/223/27 310/224/27
f 526/225/21 302/226/21 308/227/21 527/228/21
f 302/226/28 303/229/28 307/230/28 308/227/28
f 304/137/29 445/231/29 447/232/29 319/144/29
f 303/229/30 444/233/30 446/234/30 306/235/30 307/230/30
f 71/66/31 285/65/31 298/64/31 72/63/31
f 286/236/32 421/237/32 426/238/32 310/224/32
f 285/65/33 420/239/33 423/240/33 298/64/33
f 286/236/34 287/241/34 296/242/34 297/243/34
f 524/244/35 288/245/35 295/246/35 525/247/35
f 288/245/21 289/248/21 294/249/21 295/246/21
f 289/248/36 290/250/36 293/251/36 294/249/36
f 290/250/37 291/133/37 292/136/37 293/251/37
f 69/62/38 271/61/38 284/60/38 70/59/38
f 272/252/1 417/253/1 422/254/1 297/243/1
f 271/61/39 416/255/39 419/256/39 284/60/39
f 272/252/40 273/257/40 282/258/40 283/259/40
f 522/260/21 274/261/21 281/262/21 523/263/21
f 274/261/41 275/264/41 280/265/41 281/262/41
f 275/264/42 276/266/42 279/267/42 280/265/42
f 276/266/43 277/129/43 278/132/43 279/267/43
f 67/58/10 257/57/10 270/56/10 68/55/10
f 258/268/1 413/269/1 418/270/1 283/259/1
f 257/57/10 412/271/10 415/272/10 270/56/10
f 258/268/44 259/273/44 268/274/44 269/275/44
f 520/276/21 260/277/21 267/278/21 521/279/21
f 260/277/45 261/280/45 266/281/45 267/278/45
f 261/280/46 262/282/46 265/283/46 266/281/46
f 262/282/21 263/125/21 264/128/21 265/283/21
f 65/54/10 244/53/10 256/52/10 66/51/10
f 245/284/47 409/285/47 414/286/47 269/275/47
f 244/53/21 408/287/21 411/288/21 256/52/21
f 245/284/48 246/289/48 254/290/48 255/291/48
f 518/292/21 247/293/21 253/294/21 519/295/21
f 247/293/49 248/296/49 483/297/49 482/298/49 253/294/49
f 249/299/10 250/121/10 251/124/10 252/300/10
f 63/50/50 232/49/50 243/48/50 64/47/50
f 233/301/1 405/302/1 410/303/1 255/291/1
f 232/49/51 404/304/51 407/305/51 243/48/51
f 233/301/52 234/306/52 241/307/52 242/308/52
f 516/309/21 235/310/21 240/311/21 517/312/21
f 354/313/53 355/314/53 357/315/53 359/313/53
f 248/296/54 249/299/54 252/300/54 481/316/54 483/297/54
f 236/317/55 237/117/55 238/120/55 239/318/55
f 61/46/56 220/45/56 231/44/56 62/43/56
f 221/319/1 401/320/1 406/321/1 242/308/1
f 220/45/57 400/322/57 403/323/57 231/44/57
f 401/320/58 221/319/58 489/324/58 488/325/58 402/326/58
f 514/327/10 223/328/10 229/329/10 515/330/10
f 224/331/59 356/332/59 353/333/59 239/318/59
f 223/328/60 351/334/60 352/335/60 228/336/60 229/329/60
f 224/331/61 225/113/61 226/116/61 227/337/61
f 59/42/62 207/41/62 219/40/62 60/39/62
f 486/338/63 485/339/63 208/340/63 217/341/63 218/342/63
f 207/41/64 396/343/64 399/344/64 219/40/64
f 397/345/65 484/346/65 486/338/65 218/342/65 398/347/65
f 512/348/66 209/349/66 216/350/66 513/351/66
f 209/349/10 210/352/10 215/353/10 216/350/10
f 461/354/67 211/355/67 214/356/67 462/357/67
f 211/355/68 212/109/68 213/112/68 214/356/68
f 57/38/69 193/37/69 206/36/69 58/35/69
f 194/358/1 393/359/1 398/347/1 218/342/1
f 193/37/70 392/360/70 395/361/70 206/36/70
f 194/358/21 195/362/21 204/363/21 205/364/21
f 510/365/10 196/366/10 203/367/10 511/368/10
f 196/366/10 197/369/10 202/370/10 203/367/10
f 459/371/71 198/372/71 201/373/71 460/374/71
f 198/372/72 199/105/72 200/108/72 201/373/72
f 55/34/73 179/33/73 192/32/73 56/31/73
f 180/375/74 389/376/74 394/377/74 205/364/74
f 179/33/75 388/378/75 391/379/75 192/32/75
f 180/375/76 181/380/76 190/381/76 191/382/76
f 508/383/77 182/384/77 189/385/77 509/386/77
f 182/384/21 183/387/21 188/388/21 189/385/21
f 184/389/78 185/101/78 186/104/78 187/390/78
f 53/30/10 165/29/10 178/28/10 54/27/10
f 166/391/79 385/392/79 390/393/79 191/382/79
f 165/29/10 384/394/10 387/395/10 178/28/10
f 166/391/80 167/396/80 176/397/80 177/398/80
f 506/399/81 168/400/81 175/401/81 507/402/81
f 168/400/21 169/403/21 174/404/21 175/401/21
f 472/405/1 169/403/1 188/388/1 476/406/1
f 170/407/82 171/97/82 172/100/82 173/408/82
f 51/26/10 151/25/10 164/24/10 52/23/10
f 152/409/1 381/410/1 386/411/1 177/398/1
f 151/25/10 380/412/10 383/413/10 164/24/10
f 152/409/83 153/414/83 162/415/83 163/416/83
f 504/417/10 154/418/10 161/419/10 505/420/10
f 154/418/10 155/421/10 160/422/10 161/419/10
f 468/423/84 155/421/84 174/404/84 473/424/84
f 156/425/85 157/93/85 158/96/85 159/426/85
f 49/22/10 137/21/10 150/20/10 50/19/10
f 138/427/86 377/428/86 382/429/86 163/416/86
f 137/21/87 376/430/87 379/431/87 150/20/87
f 138/427/88 139/432/88 148/433/88 149/434/88
f 140/435/89 141/436/89 146/437/89 147/438/89
f 464/439/1 141/436/1 160/422/1 469/440/1
f 142/441/90 143/89/90 144/92/90 145/442/90
f 47/18/10 123/17/10 136/16/10 48/15/10
f 124/443/91 373/444/91 378/445/91 149/434/91
f 123/17/92 372/446/92 375/447/92 136/16/92
f 124/443/21 125/448/21 134/449/21 135/450/21
f 534/451/93 125/448/93 148/433/93 538/452/93
f 126/453/94 127/454/94 132/455/94 133/456/94
f 455/457/95 128/458/95 131/459/95 456/460/95
f 128/458/96 129/85/96 130/88/96 131/459/96
f 45/14/97 109/13/97 122/12/97 46/11/97
f 110/461/1 369/462/1 374/463/1 135/450/1
f 109/13/98 368/464/98 371/465/98 122/12/98
f 110/461/99 111/466/99 120/467/99 121/468/99
f 500/469/100 112/470/100 119/471/100 501/472/100
f 112/470/101 113/473/101 118/474/101 119/471/101
f 453/475/102 114/476/102 117/477/102 454/478/102
f 114/476/103 115/81/103 116/84/103 117/477/103
f 43/10/104 95/9/104 108/8/104 44/7/104
f 96/479/105 365/480/105 370/481/105 121/468/105
f 95/9/106 364/482/106 367/483/106 108/8/106
f 96/479/107 97/484/107 106/485/107 107/486/107
f 498/487/10 98/488/10 105/489/10 499/490/10
f 98/488/108 99/491/108 104/492/108 105/489/108
f 451/493/109 100/494/109 103/495/109 452/496/109
f 100/494/110 101/77/110 102/80/110 103/495/110
f 10/142/1 318/141/1 331/148/1 7/147/1
f 318/141/1 317/214/1 332/200/1 331/148/1
f 317/214/1 316/212/1 333/198/1 332/200/1
f 316/212/1 315/209/1 334/195/1 333/198/1
f 528/208/111 314/205/111 335/185/111 531/196/111
f 314/205/112 313/201/112 336/186/112 335/185/112
f 432/497/1 325/1/1 350/4/1 439/498/1
f 429/202/21 313/201/21 323/207/21 430/219/21
f 12/138/113 304/137/113 319/144/113 9/143/113
f 317/214/114 318/141/114 319/144/114 447/232/114 449/215/114
f 446/234/115 445/231/115 304/137/115 305/140/115 306/235/115
f 303/229/116 302/226/116 321/210/116 320/213/116
f 526/225/1 301/222/1 322/206/1 529/211/1
f 301/222/1 300/217/1 323/207/1 322/206/1
f 428/499/1 312/73/1 337/76/1 435/500/1
f 425/218/117 300/217/117 310/224/117 426/238/117
f 14/134/1 291/133/1 305/140/1 11/139/1
f 291/133/118 290/250/118 306/235/118 305/140/118
f 290/250/119 289/248/119 307/230/119 306/235/119
f 289/248/1 288/245/1 308/227/1 307/230/1
f 524/244/120 287/241/120 309/223/120 527/228/120
f 287/241/121 286/236/121 310/224/121 309/223/121
f 424/501/1 299/69/1 324/72/1 431/502/1
f 421/237/122 286/236/122 297/243/122 422/254/122
f 16/130/1 277/129/1 292/136/1 13/135/1
f 277/129/123 276/266/123 293/251/123 292/136/123
f 276/266/124 275/264/124 294/249/124 293/251/124
f 275/264/1 274/261/1 295/246/1 294/249/1
f 522/260/1 273/257/1 296/242/1 525/247/1
f 273/257/1 272/252/1 297/243/1 296/242/1
f 420/503/125 285/65/125 311/68/125 427/504/125
f 417/253/21 272/252/21 283/259/21 418/270/21
f 18/126/1 263/125/1 278/132/1 15/131/1
f 263/125/1 262/282/1 279/267/1 278/132/1
f 262/282/126 261/280/126 280/265/126 279/267/126
f 261/280/127 260/277/127 281/262/127 280/265/127
f 520/276/128 259/273/128 282/258/128 523/263/128
f 259/273/129 258/268/129 283/259/129 282/258/129
f 416/505/130 271/61/130 298/64/130 423/506/130
f 413/269/131 258/268/131 269/275/131 414/286/131
f 20/122/1 250/121/1 264/128/1 17/127/1
f 250/121/1 249/299/1 265/283/1 264/128/1
f 249/299/1 248/296/1 266/281/1 265/283/1
f 248/296/1 247/293/1 267/278/1 266/281/1
f 518/292/1 246/289/1 268/274/1 521/279/1
f 246/289/132 245/284/132 269/275/132 268/274/132
f 412/507/1 257/57/1 284/60/1 419/508/1
f 409/285/133 245/284/133 255/291/133 410/303/133
f 22/118/1 237/117/1 251/124/1 19/123/1
f 237/117/1 236/317/1 252/300/1 251/124/1
f 235/310/134 478/509/134 480/510/134 355/314/134 354/313/134 240/311/134
f 480/511/135 479/512/135 236/317/135 239/318/135 353/333/135 355/314/135
f 516/309/136 234/306/136 254/290/136 519/295/136
f 234/306/137 233/301/137 255/291/137 254/290/137
f 408/513/1 244/53/1 270/56/1 415/514/1
f 405/302/21 233/301/21 242/308/21 406/321/21
f 24/114/138 225/113/138 238/120/138 21/119/138
f 225/113/139 224/331/139 239/318/139 238/120/139
f 236/317/140 479/512/140 481/316/140 252/300/140
f 352/335/141 356/332/141 224/331/141 227/337/141 463/515/141 228/336/141
f 514/327/1 222/516/1 241/307/1 517/312/1
f 222/516/1 221/319/1 242/308/1 241/307/1
f 404/517/1 232/49/1 256/52/1 411/518/1
f 26/110/1 212/109/1 226/116/1 23/115/1
f 212/109/142 211/355/142 227/337/142 226/116/142
f 461/354/1 210/352/1 228/336/1 463/515/1
f 210/352/1 209/349/1 229/329/1 228/336/1
f 512/348/143 208/340/143 230/519/143 515/330/143
f 484/346/144 397/345/144 402/326/144 488/325/144
f 400/520/145 220/45/145 243/48/145 407/521/145
f 221/319/10 222/516/10 230/519/10 487/522/10 489/324/10
f 28/106/146 199/105/146 213/112/146 25/111/146
f 199/105/147 198/372/147 214/356/147 213/112/147
f 459/371/1 197/369/1 215/353/1 462/357/1
f 197/369/1 196/366/1 216/350/1 215/353/1
f 510/365/1 195/362/1 217/341/1 513/351/1
f 195/362/1 194/358/1 218/342/1 217/341/1
f 396/523/1 207/41/1 231/44/1 403/524/1
f 393/359/21 194/358/21 205/364/21 394/377/21
f 30/102/1 185/101/1 200/108/1 27/107/1
f 185/101/1 184/389/1 201/373/1 200/108/1
f 458/525/1 183/387/1 202/370/1 460/374/1
f 183/387/1 182/384/1 203/367/1 202/370/1
f 508/383/148 181/380/148 204/363/148 511/368/148
f 181/380/149 180/375/149 205/364/149 204/363/149
f 392/526/150 193/37/150 219/40/150 399/527/150
f 389/376/151 180/375/151 191/382/151 390/393/151
f 32/98/1 171/97/1 186/104/1 29/103/1
f 171/97/152 170/407/152 187/390/152 186/104/152
f 183/387/21 458/525/21 477/528/21 476/406/21 188/388/21
f 169/403/1 168/400/1 189/385/1 188/388/1
f 506/399/153 167/396/153 190/381/153 509/386/153
f 167/396/154 166/391/154 191/382/154 190/381/154
f 388/529/155 179/33/155 206/36/155 395/530/155
f 385/392/156 166/391/156 177/398/156 386/411/156
f 34/94/1 157/93/1 172/100/1 31/99/1
f 157/93/1 156/425/1 173/408/1 172/100/1
f 170/407/157 471/531/157 475/532/157 187/390/157
f 155/421/1 154/418/1 175/401/1 174/404/1
f 504/417/1 153/414/1 176/397/1 507/402/1
f 153/414/1 152/409/1 177/398/1 176/397/1
f 384/533/1 165/29/1 192/32/1 391/534/1
f 381/410/158 152/409/158 163/416/158 382/429/158
f 36/90/159 143/89/159 158/96/159 33/95/159
f 143/89/160 142/441/160 159/426/160 158/96/160
f 156/425/161 467/535/161 474/536/161 173/408/161
f 141/436/1 140/435/1 161/419/1 160/422/1
f 503/537/162 139/432/162 162/415/162 505/420/162
f 139/432/163 138/427/163 163/416/163 162/415/163
f 380/538/1 151/25/1 178/28/1 387/539/1
f 377/428/164 138/427/164 149/434/164 378/445/164
f 38/86/1 129/85/1 144/92/1 35/91/1
f 129/85/1 128/458/1 145/442/1 144/92/1
f 455/457/165 127/454/165 146/437/165 457/540/165
f 127/454/166 126/453/166 147/438/166 146/437/166
f 139/432/167 503/537/167 539/541/167 538/542/167 148/433/167
f 125/448/168 124/443/168 149/434/168 148/433/168
f 376/543/1 137/21/1 164/24/1 383/544/1
f 373/545/169 124/443/169 135/450/169 374/463/169
f 40/82/1 115/81/1 130/88/1 37/87/1
f 115/81/170 114/476/170 131/459/170 130/88/170
f 453/475/1 113/473/1 132/455/1 456/460/1
f 113/473/171 112/470/171 133/456/171 132/455/171
f 500/469/172 111/466/172 134/449/172 502/546/172
f 111/466/173 110/461/173 135/450/173 134/449/173
f 372/547/174 123/17/174 150/20/174 379/548/174
f 369/462/175 110/461/175 121/468/175 370/481/175
f 42/78/1 101/77/1 116/84/1 39/83/1
f 101/77/1 100/494/1 117/477/1 116/84/1
f 451/493/1 99/491/1 118/474/1 454/478/1
f 99/491/1 98/488/1 119/471/1 118/474/1
f 498/487/176 97/484/176 120/467/176 501/472/176
f 97/484/177 96/479/177 121/468/177 120/467/177
f 368/549/1 109/13/1 136/16/1 375/550/1
f 365/480/178 96/479/178 107/486/178 366/551/178
f 1/552/179 81/553/179 102/80/179 41/79/179
f 81/553/180 82/554/180 103/495/180 102/80/180
f 450/555/181 83/556/181 104/492/181 452/496/181
f 83/556/182 84/557/182 105/489/182 104/492/182
f 496/558/19 85/559/19 106/485/19 499/490/19
f 85/559/183 86/560/183 107/486/183 106/485/183
f 360/561/184 87/5/184 108/8/184 367/562/184
f 437/563/19 338/153/19 88/156/19 363/564/19
f 8/146/1 330/145/1 345/152/1 5/151/1
f 330/145/1 329/199/1 346/181/1 345/152/1
f 329/199/1 328/197/1 347/180/1 346/181/1
f 328/197/1 327/194/1 348/178/1 347/180/1
f 530/193/1 326/184/1 349/565/1 533/179/1
f 490/190/185 433/189/185 438/177/185 494/176/185
f 338/153/10 437/566/10 439/567/10 350/4/10
f 339/169/21 340/166/21 349/565/21 493/568/21 495/569/21
f 351/334/186 223/328/186 240/311/186 354/313/186
f 356/570/187 352/335/187 351/334/187 359/313/187 357/315/187 358/333/187
f 351/334/188 354/313/188 359/313/188
f 355/314/189 353/333/189 358/333/189 357/315/189
f 353/333/190 356/332/190 358/333/190
f 437/563/191 363/564/191 362/174/191 436/173/191
f 436/173/21 438/177/21 439/567/21 437/566/21
f 433/189/21 434/192/21 435/188/21 432/187/21
f 429/202/21 430/219/21 431/204/21 428/203/21
f 425/218/21 426/238/21 427/221/21 424/220/21
f 421/237/21 422/254/21 423/240/21 420/239/21
f 417/253/21 418/270/21 419/256/21 416/255/21
f 413/269/21 414/286/21 415/272/21 412/271/21
f 409/285/21 410/303/21 411/288/21 408/287/21
f 405/302/21 406/321/21 407/305/21 404/304/21
f 401/320/10 402/326/10 403/323/10 400/322/10
f 397/345/10 398/347/10 399/344/10 396/343/10
f 393/359/10 394/377/10 395/361/10 392/360/10
f 389/376/10 390/393/10 391/379/10 388/378/10
f 385/392/10 386/411/10 387/395/10 384/394/10
f 381/410/10 382/429/10 383/413/10 380/412/10
f 377/428/192 378/445/192 379/431/192 376/430/192
f 443/444/193 374/463/193 375/550/193 442/547/193
f 369/462/10 370/481/10 371/465/10 368/464/10
f 365/480/10 366/551/10 367/483/10 364/482/10
f 428/499/1 435/500/1 434/192/1 429/202/1
f 424/501/1 431/502/1 430/219/1 425/218/1
f 420/503/1 427/504/1 426/238/1 421/237/1
f 416/505/1 423/506/1 422/254/1 417/253/1
f 412/507/1 419/508/1 418/270/1 413/269/1
f 408/513/1 415/514/1 414/286/1 409/285/1
f 404/517/1 411/518/1 410/303/1 405/302/1
f 400/520/1 407/521/1 406/321/1 401/320/1
f 396/523/1 403/524/1 402/326/1 397/345/1
f 392/526/1 399/527/1 398/347/1 393/359/1
f 388/529/1 395/530/1 394/377/1 389/376/1
f 384/533/1 391/534/1 390/393/1 385/392/1
f 380/538/1 387/539/1 386/411/1 381/410/1
f 376/543/1 383/544/1 382/429/1 377/428/1
f 378/571/194 373/572/194 443/573/194 440/574/194
f 368/549/1 375/550/1 374/463/1 369/462/1
f 364/171/1 371/172/1 370/481/1 365/480/1
f 360/561/19 367/562/19 366/575/19 361/576/19
f 432/497/1 439/498/1 438/177/1 433/189/1
f 86/560/195 361/576/195 366/575/195 107/486/195
f 442/547/1 441/548/1 440/445/1 443/444/1
f 379/431/196 378/445/196 440/445/196 441/431/196
f 372/577/197 379/578/197 441/579/197 442/580/197
f 374/463/198 443/444/198 373/545/198
f 372/547/199 442/547/199 375/550/199
f 444/233/200 445/231/200 446/234/200
f 447/232/21 448/216/21 449/215/21
f 444/233/201 448/216/201 447/232/201 445/231/201
f 444/233/202 303/229/202 320/213/202 448/216/202
f 82/554/203 450/555/203 452/496/203 103/495/203
f 100/494/1 451/493/1 454/478/1 117/477/1
f 114/476/204 453/475/204 456/460/204 131/459/204
f 128/458/1 455/457/1 457/540/1 145/442/1
f 141/436/205 464/439/205 466/581/205 457/540/205 146/437/205
f 155/421/206 468/423/206 469/582/206 160/422/206
f 169/403/207 472/405/207 473/424/207 174/404/207
f 184/389/1 458/525/1 460/374/1 201/373/1
f 198/372/208 459/371/208 462/357/208 214/356/208
f 211/355/209 461/354/209 463/515/209 227/337/209
f 99/491/210 451/493/210 452/496/210 104/492/210
f 113/473/10 453/475/10 454/478/10 118/474/10
f 127/454/211 455/457/211 456/460/211 132/455/211
f 466/581/212 465/583/212 142/441/212 145/442/212 457/540/212
f 467/535/213 156/425/213 159/426/213 470/584/213
f 471/531/214 170/407/214 173/408/214 474/536/214
f 458/525/215 184/389/215 187/390/215 475/532/215 477/528/215
f 197/369/10 459/371/10 460/374/10 202/370/10
f 210/352/10 461/354/10 462/357/10 215/353/10
f 464/439/10 465/585/10 466/581/10
f 475/532/10 476/586/10 477/528/10
f 464/439/1 469/440/1 470/584/1 465/583/1
f 468/423/216 473/424/216 474/536/216 467/535/216
f 472/405/1 476/406/1 475/532/1 471/531/1
f 467/535/217 470/584/217 469/582/217 468/423/217
f 471/531/218 474/536/218 473/424/218 472/405/218
f 142/441/219 465/583/219 470/584/219 159/426/219
f 478/509/220 479/512/220 480/511/220
f 481/316/221 482/298/221 483/297/221
f 478/509/222 482/587/222 481/316/222 479/512/222
f 478/509/223 235/310/223 253/294/223 482/587/223
f 484/346/224 485/339/224 486/338/224
f 487/522/225 488/325/225 489/324/225
f 484/346/226 488/325/226 487/522/226 485/339/226
f 208/340/227 485/339/227 487/522/227 230/519/227
f 490/190/228 491/588/228 492/182/228
f 493/568/21 494/589/21 495/175/21
f 490/190/229 494/176/229 493/568/229 491/183/229
f 326/184/230 491/183/230 493/568/230 349/565/230
f 327/194/1 530/193/1 533/179/1 348/178/1
f 84/557/19 496/558/19 499/490/19 105/489/19
f 98/488/1 498/487/1 501/472/1 119/471/1
f 112/470/231 500/469/231 502/546/231 133/456/231
f 125/448/232 534/590/232 536/591/232 502/546/232 134/449/232
f 140/435/233 503/537/233 505/420/233 161/419/233
f 154/418/1 504/417/1 507/402/1 175/401/1
f 168/400/234 506/399/234 509/386/234 189/385/234
f 182/384/235 508/383/235 511/368/235 203/367/235
f 196/366/1 510/365/1 513/351/1 216/350/1
f 209/349/236 512/348/236 515/330/236 229/329/236
f 223/328/1 514/327/1 517/312/1 240/311/1
f 235/310/1 516/309/1 519/295/1 253/294/1
f 247/293/1 518/292/1 521/279/1 267/278/1
f 260/277/1 520/276/1 523/263/1 281/262/1
f 274/261/1 522/260/1 525/247/1 295/246/1
f 288/245/237 524/244/237 527/228/237 308/227/237
f 302/226/1 526/225/1 529/211/1 321/210/1
f 315/209/1 528/208/1 531/196/1 334/195/1
f 97/484/10 498/487/10 499/490/10 106/485/10
f 111/466/238 500/469/238 501/472/238 120/467/238
f 536/591/239 535/592/239 126/453/239 133/456/239 502/546/239
f 503/537/240 140/435/240 147/438/240 537/593/240 539/594/240
f 153/414/10 504/417/10 505/420/10 162/415/10
f 167/396/241 506/399/241 507/402/241 176/397/241
f 181/380/242 508/383/242 509/386/242 190/381/242
f 195/362/21 510/365/21 511/368/21 204/363/21
f 208/340/243 512/348/243 513/351/243 217/341/243
f 222/516/10 514/327/10 515/330/10 230/519/10
f 234/306/244 516/309/244 517/312/244 241/307/244
f 246/289/245 518/292/245 519/295/245 254/290/245
f 259/273/246 520/276/246 521/279/246 268/274/246
f 273/257/247 522/260/247 523/263/247 282/258/247
f 287/241/248 524/244/248 525/247/248 296/242/248
f 301/222/21 526/225/21 527/228/21 309/223/21
f 314/205/249 528/208/249 529/211/249 322/206/249
f 326/184/250 530/193/250 531/196/250 335/185/250
f 340/166/21 532/165/21 533/179/21 349/565/21
f 341/163/19 532/165/19 497/168/19 91/164/19
f 534/451/251 535/592/251 536/591/251
f 537/595/10 538/452/10 539/541/10
f 534/451/252 538/452/252 537/595/252 535/596/252
f 126/453/253 535/596/253 537/595/253 147/438/253
